StampatelloFaceto.sfdir
StartChar: exclam
Encoding: 33 33 4
Width: 214
GlyphClass: 1
Flags: W
LayerCount: 2
Fore
SplineSet
94 894 m 0
 106 894 108 888 122 878 c 0
 132 870 136 862 138 852 c 0
 140 842 144 818 144 778 c 0
 144 770 142 750 142 718 c 2
 142 636 l 2
 142 538 144 452 146 378 c 0
 148 362 148 344 148 322 c 0
 148 296 140 278 130 272 c 0
 122 268 116 266 112 266 c 0
 102 266 94 280 84 312 c 0
 78 332 70 342 66 502 c 0
 66 540 64 584 64 630 c 2
 64 740 l 2
 64 766 62 786 62 802 c 0
 62 876 66 894 94 894 c 0
88 136 m 0
 130 136 142 128 162 72 c 0
 166 58 170 46 170 32 c 0
 170 12 148 -6 96 -6 c 0
 64 -6 56 22 56 72 c 0
 56 104 62 136 88 136 c 0
EndSplineSet
Validated: 1
EndChar
StartChar: quotedbl
Encoding: 34 34 5
Width: 414
GlyphClass: 1
Flags: W
LayerCount: 2
Fore
SplineSet
245 920 m 0
 247 926 258.000976562 927.999023438 272.000976562 927.999023438 c 0
 300.000976562 927.999023438 320.000976562 901.999023438 320.000976562 821.999023438 c 0
 320.000976562 749.999023438 324.000976562 715.999023438 326.000976562 709.999023438 c 0
 332.000976562 691.999023438 338.000976562 667.999023438 340.000976562 649.999023438 c 0
 341.155273438 638.452148438 342.309570312 624.572265625 342.309570312 612.592773438 c 0
 342.309570312 603.823242188 341.690429688 596.072265625 340 591 c 0
 336 581 334 578 324 578 c 0
 308 578 290 588 278 606 c 0
 241 663 237 734 237 800 c 0
 237 878 241 918 245 920 c 0
72.0009765625 817.999023438 m 0
 72.0009765625 863.999023438 82.0009765625 881.999023438 90.0009765625 887.999023438 c 0
 96.0009765625 891.999023438 106.000976562 891.999023438 118.000976562 891.999023438 c 0
 144.000976562 891.999023438 154.000976562 885.999023438 154.000976562 819.999023438 c 0
 154.000976562 791.999023438 154.000976562 771.999023438 156.000976562 759.999023438 c 0
 160.000976562 731.999023438 170.000976562 695.999023438 176.000976562 667.999023438 c 0
 180.000976562 647.999023438 182.000976562 635.999023438 182.000976562 625.999023438 c 0
 182.000976562 609.999023438 155.000976562 575.999023438 148.000976562 575.999023438 c 0
 140.000976562 575.999023438 124.000976562 577.999023438 110.000976562 609.999023438 c 0
 74.0009765625 690.999023438 72.0009765625 726.999023438 72.0009765625 817.999023438 c 0
EndSplineSet
Validated: 1
EndChar
StartChar: numbersign
Encoding: 35 35 6
Width: 536
GlyphClass: 1
Flags: W
LayerCount: 2
Fore
SplineSet
16 560 m 0
 16 578 18 590 24 596 c 0
 30 602 46 604 74 606 c 0
 128 612 154 620 174 620 c 1
 176 640 182 678 182 720 c 0
 182 756 184 782 194 792 c 0
 201 800 212 805 225 805 c 0
 228 805 231 804 234 804 c 0
 246 802 254 798 258 794 c 0
 262 790 262 780 262 764 c 0
 262 736 262 666 256 634 c 1
 296 638 324 642 368 642 c 1
 370 716 376 738 406 738 c 0
 414 738 422 734 428 730 c 0
 435.711914062 725.373046875 444.61328125 710.040039062 444.61328125 695.009765625 c 0
 444.61328125 690.55078125 443.830078125 686.118164062 442 682 c 0
 438 672 436 650 436 644 c 1
 468 644 486 642 496 630 c 0
 510 612 514 608 514 600 c 0
 514 579 500 558 478 554 c 1
 475 554 l 2
 467 554 463 559 449 559 c 0
 446 559 442 559 438 558 c 1
 438 528 440 430 440 412 c 1
 452 416 462 416 490 416 c 0
 518 416 530 412 530 384 c 0
 530 352 520 342 488 340 c 0
 472 338 458 338 442 334 c 1
 442 320 440 300 438 280 c 0
 434 248 434 222 434 182 c 0
 434 148 426 132 418 128 c 0
 408 122 402 120 400 120 c 0
 382 120 362 140 362 212 c 2
 362 310 l 1
 330 300 274 286 234 280 c 1
 228 234 226 138 226 96 c 0
 226 82 232 76 242 72 c 0
 250 68 254 64 254 54 c 0
 254 34 239 12 218 12 c 0
 206 12 186 24 172 30 c 0
 152 40 146 64 146 98 c 0
 146 184 148 256 148 280 c 1
 108 280 l 2
 75 280 36 281 24 318 c 0
 22 328 20 334 20 336 c 0
 20 356 42 376 64 376 c 0
 88 376 122 360 154 360 c 1
 158 396 168 496 168 530 c 1
 148 530 110 524 106 520 c 0
 100 516 94 514 84 514 c 0
 68 514 52 516 40 526 c 0
 26 536 16 538 16 560 c 0
246 542 m 1
 242 516 234 418 234 368 c 1
 250 368 334 390 362 398 c 1
 362 552 l 1
 312 552 286 546 246 542 c 1
EndSplineSet
Validated: 1
EndChar
StartChar: dollar
Encoding: 36 36 7
Width: 458
GlyphClass: 1
Flags: W
LayerCount: 2
Fore
SplineSet
332 316 m 1
 346 324 364 338 370 344 c 1
 364 352 336 362 326 368 c 1
 332 316 l 1
238 616 m 2
 238 678 l 1
 210 674 188 668 148 636 c 0
 116 610 100 592 100 582 c 0
 100 570 110 552 130 528 c 0
 144 514 226 472 246 472 c 1
 246 478 244 496 242 512 c 0
 238 564 238 590 238 616 c 2
264 922 m 0
 272 924 276 926 278 926 c 0
 296 926 306 902 306 856 c 2
 306 826 l 2
 306 806 310 782 310 768 c 1
 324 758 340 756 372 726 c 0
 400 700 414 674 414 650 c 0
 414 648 412 648 412 646 c 2
 412 640 l 1
 408 624 400 616 390 616 c 0
 380 616 368 624 352 638 c 0
 332 656 330 664 314 676 c 1
 320 614 316 556 320 500 c 1
 320 456 l 1
 350 442 398 420 414 410 c 0
 432 398 450 368 450 344 c 0
 450 314 398 266 340 240 c 1
 344 222 340 176 346 136 c 0
 350 102 352 72 378 50 c 0
 388 44 390 36 390 32 c 0
 390 12 340 -28 322 -28 c 0
 310 -28 272 28 272 60 c 0
 272 142 270 180 262 212 c 1
 234 198 208 196 154 196 c 0
 102 196 62 202 40 222 c 0
 26 236 18 252 18 268 c 0
 18 294 36 320 54 320 c 0
 64 320 70 316 76 310 c 0
 94 292 122 278 170 278 c 0
 206 278 232 280 258 290 c 1
 252 320 252 358 250 380 c 1
 242 386 212 396 192 406 c 0
 176 416 158 418 142 428 c 0
 126 438 112 444 102 448 c 0
 54 472 28 528 28 580 c 0
 28 604 28 620 32 628 c 0
 50 670 147 760 198 770 c 0
 204 772 226 772 236 772 c 1
 236 822 l 2
 236 856 238 878 244 880 c 0
 250 882 254 890 254 902 c 0
 254 912 256 920 264 922 c 0
EndSplineSet
Validated: 1
EndChar
StartChar: percent
Encoding: 8 37 8
GlifName: percent
Width: 884
VWidth: 0
Flags: W
LayerCount: 2
Fore
SplineSet
308 234 m 256
 352 318 396 408 420 456 c 258
 490 596 l 258
 520 660 526 664 540 704 c 257
 518 690 474 668 434 668 c 256
 416 668 384 670 364 684 c 257
 354 642 296 574 274 552 c 256
 232 510 184 488 134 488 c 256
 96 488 84 504 62 528 c 256
 34 560 20 570 20 622 c 256
 20 684 30 738 50 786 c 256
 62 812 126 874 154 886 c 256
 170 894 184 896 192 896 c 256
 226 896 290 856 290 842 c 256
 290 810 240 796 186 790 c 256
 140 784 106 716 106 662 c 256
 106 634 116 612 128 598 c 256
 138 586 144 580 154 580 c 256
 196 580 224 604 256 640 c 256
 282 672 294 696 294 714 c 256
 294 722 290 726 286 732 c 256
 280 740 278 746 278 764 c 256
 278 804 284 824 316 824 c 256
 338 824 354 816 362 790 c 256
 370 762 400 748 436 748 c 256
 478 748 586 802 616 838 c 256
 622 846 626 848 634 848 c 256
 654 848 674 828 674 798 c 256
 674 786 668 770 662 766 c 256
 656 762 624 710 562 582 c 256
 544 544 536 528 468 392 c 256
 440 338 380 214 364 184 c 256
 338 138 322 110 320 90 c 256
 318 66 282 34 256 34 c 256
 240 34 232 52 232 86 c 256
 232 110 238 128 248 138 c 256
 262 152 302 224 308 234 c 256
664 108 m 256
 720 108 788 162 788 222 c 256
 788 260 788 270 756 286 c 256
 738 296 718 300 698 300 c 256
 664 300 656 292 640 266 c 256
 626 242 620 228 620 178 c 256
 620 132 634 108 664 108 c 256
612 374 m 256
 630 394 670 402 682 402 c 256
 720 402 742 382 762 376 c 256
 870 350 876 280 876 230 c 256
 876 206 862 162 828 110 c 256
 776 36 708 18 652 18 c 256
 568 18 534 96 534 182 c 256
 534 260 544 298 612 374 c 256
EndSplineSet
Validated: 1
EndChar
StartChar: ampersand
Encoding: 38 38 9
Width: 628
GlyphClass: 1
Flags: W
LayerCount: 2
Fore
SplineSet
208 356 m 1
 160 322 122 286 122 248 c 0
 122 208 195 128 234 128 c 0
 262 128 282 150 300 174 c 0
 316 194 326 204 332 216 c 1
 302 242 246 308 208 356 c 1
250 822 m 0
 213 822 206 738 206 710 c 0
 206 686 206 660 212 630 c 0
 214 620 216 590 218 580 c 0
 224 548 228 534 236 514 c 1
 294 572 344 640 344 698 c 0
 344 730 328 762 316 782 c 0
 298 812 282 822 250 822 c 0
124 728 m 0
 124 815 144 908 250 908 c 0
 338 908 366 872 402 798 c 0
 414 774 426 730 426 694 c 0
 426 636 406 596 384 560 c 0
 352 506 292 440 274 416 c 1
 280 408 284 402 302 378 c 0
 320 354 332 340 342 332 c 0
 354 322 368 300 384 288 c 1
 406 326 420 356 446 426 c 0
 462 470 470 486 476 508 c 0
 478 516 494 526 512 526 c 0
 536 526 582 512 582 494 c 0
 582 480 566 450 558 442 c 0
 552 436 534 400 528 388 c 0
 512 342 482 292 450 224 c 1
 468 202 482 182 520 152 c 0
 560 120 582 116 610 106 c 0
 628 98 640 90 640 78 c 0
 640 66 632 14 616 14 c 0
 586 14 554 28 534 42 c 0
 528 46 520 50 510 56 c 0
 478 72 458 90 434 114 c 0
 424 124 404 142 396 150 c 1
 363 101 297 36 236 36 c 0
 222 36 206 38 192 46 c 0
 156 64 114 110 82 148 c 0
 42 198 42 234 42 266 c 0
 42 324 78 360 166 442 c 1
 132 509 124 651 124 728 c 0
EndSplineSet
Validated: 1
EndChar
StartChar: quotesingle
Encoding: 39 39 10
GlifName: quotesingle
Width: 185
VWidth: 0
Flags: W
LayerCount: 2
Fore
SplineSet
49 882 m 256
 57 904 81 914 95 914 c 256
 129 914 140 861 140 834 c 256
 140 808 134 784 130 754 c 256
 126 720 126 678 122 666 c 256
 118 656 103 638 89 638 c 256
 77 638 53 652 49 662 c 256
 45 672 45 692 45 724 c 256
 45 746 45 772 47 804 c 256
 47 814 49 820 49 828 c 256
 49 838 49 846 47 852 c 256
 45 854 45 858 45 862 c 256
 45 868 47 874 49 882 c 256
EndSplineSet
Validated: 1
EndChar
StartChar: parenleft
Encoding: 40 40 11
Width: 396
GlyphClass: 1
Flags: W
LayerCount: 2
Fore
SplineSet
80 586 m 0
 111 679 214 826 324 826 c 0
 338 826 348 820 348 792 c 0
 348 760 344 756 320 748 c 0
 273 733 208 660 186 616 c 0
 146 547 114 400 114 324 c 0
 114 228 147 35 192 -54 c 0
 211 -100 251 -182 310 -182 c 0
 322 -182 328 -180 340 -180 c 0
 352 -180 362 -192 362 -208 c 0
 362 -240 322 -270 308 -270 c 0
 153 -270 80 -13 62 108 c 0
 52 180 38 228 38 304 c 0
 38 407 47 486 80 586 c 0
EndSplineSet
Validated: 1
Substitution2: "Single Substitution lookup 1-1" parenleft.case
EndChar
StartChar: parenright
Encoding: 41 41 12
Width: 412
GlyphClass: 1
Flags: W
LayerCount: 2
Fore
SplineSet
254 66 m 0
 258 78 296 204 296 258 c 0
 296 352 284 364 272 434 c 0
 260 502 216 588 122 706 c 0
 70 770 48 808 48 820 c 0
 48 832 74 860 100 860 c 0
 132 860 144 812 174 780 c 0
 262 684 276 666 292 624 c 0
 336 514 350 472 364 374 c 0
 366.581054688 354.638671875 370.828125 325.282226562 370.828125 285.391601562 c 0
 370.828125 263.471679688 369.545898438 238.37109375 366 210 c 0
 362 178 358 156 352 138 c 0
 332 78 310 -26 224 -152 c 0
 206 -177 120 -290 90 -290 c 0
 76 -290 50 -272 50 -254 c 0
 50 -236 70 -216 86 -198 c 0
 106 -176 138 -146 148 -136 c 0
 192 -84 240 26 254 66 c 0
EndSplineSet
Validated: 1
Substitution2: "Single Substitution lookup 1-1" parenright.case
EndChar
StartChar: asterisk
Encoding: 42 42 13
Width: 460
GlyphClass: 1
Flags: W
LayerCount: 2
Fore
SplineSet
20 806 m 0
 20 828 46 848 70 848 c 0
 106 848 130 836 158 824 c 0
 172 816 202 804 214 802 c 1
 214 808 213.5 819.5 213.5 832.25 c 0
 213.5 845 214 859 216 870 c 0
 224 924 240 936 264 936 c 0
 286 936 300 912 302 886 c 0
 304 874 304 856 304 846 c 1
 326 856 360 872 376 872 c 0
 396 872 416 868 432 848 c 0
 442 838 446 828 446 820 c 0
 446 808 432 802 408 800 c 0
 384 798 336 780 308 764 c 1
 308 758 310 758 310 750 c 1
 342 744 368 732 378 728 c 0
 442 704 452 688 452 656 c 0
 452 644 440 640 428 640 c 0
 398 640 384 650 352 654 c 0
 342 656 330 658 314 660 c 1
 314 632 316 608 318 582 c 0
 326 464 342 494 342 462 c 0
 342 448 324 440 298 440 c 0
 270 440 256 446 246 480 c 0
 228 538 222 570 222 620 c 2
 222 674 l 2
 220 676 212 680 208 682 c 1
 190 664 150 626 140 598 c 0
 124 560 114 538 80 538 c 0
 56 538 44 554 44 586 c 0
 44 638 90 700 130 732 c 1
 120 736 96 744 82 748 c 0
 40 760 20 784 20 806 c 0
EndSplineSet
Validated: 1
EndChar
StartChar: plus
Encoding: 43 43 14
Width: 568
GlyphClass: 1
Flags: W
LayerCount: 2
Fore
SplineSet
360 200 m 1
 362 76 378 66 378 38 c 0
 378 16 364 -14 338 -14 c 0
 322 -14 306 0 292 30 c 0
 282 54 278 118 276 194 c 1
 225 192 178 191 141 191 c 0
 104 191 76 192 64 194 c 0
 40 198 20 218 20 246 c 0
 20 272 42 284 78 284 c 0
 100 284 162 282 196 282 c 0
 228 282 248 284 270 288 c 1
 272 298 272 330 276 374 c 0
 284 478 286 512 290 522 c 0
 292 526 300 528 316 528 c 0
 334 528 344 522 350 512 c 0
 356 502 360 476 360 436 c 0
 360 386 358 338 358 290 c 1
 436 290 462 302 538 302 c 0
 560 302 562 290 562 272 c 0
 562 240 552 236 538 230 c 0
 492 212 402 208 360 200 c 1
EndSplineSet
Validated: 1
EndChar
StartChar: comma
Encoding: 44 44 15
Width: 182
GlyphClass: 1
Flags: W
LayerCount: 2
Fore
SplineSet
116 108 m 0
 144 108 148 86 148 48 c 0
 148 -16 139 -69 130 -120 c 0
 124 -152 120 -178 116 -194 c 0
 112 -211 89 -280 68 -280 c 0
 54 -280 46 -250 46 -194 c 0
 46 -113 52 -29 62 52 c 0
 68 99 86 108 116 108 c 0
EndSplineSet
Validated: 1
EndChar
StartChar: hyphen
Encoding: 16 45 16
GlifName: hyphen
Width: 410
VWidth: 0
Flags: W
LayerCount: 2
Fore
SplineSet
404 270 m 256
 404 242 358 216 328 216 c 256
 250 216 192 218 124 222 c 256
 72 226 42 236 32 246 c 256
 22 256 16 264 16 272 c 256
 16 288 44 314 60 320 c 256
 70 322 84 324 112 324 c 256
 154 324 188 320 212 310 c 256
 234 302 272 296 326 294 c 256
 372 292 404 298 404 270 c 256
EndSplineSet
Validated: 1
EndChar
StartChar: period
Encoding: 46 46 17
GlifName: period
Width: 236
VWidth: 0
Flags: W
LayerCount: 2
Fore
SplineSet
82 138 m 256
 88 144 98 146 112 146 c 256
 128 146 138 140 142 136 c 256
 156 118 164 96 170 84 c 256
 176 74 182 66 182 54 c 256
 182 42 176 26 166 14 c 256
 154 2 140 -4 128 -4 c 256
 108 -4 96 4 84 26 c 256
 72 48 64 62 64 82 c 256
 64 104 72 128 82 138 c 256
EndSplineSet
Validated: 1
EndChar
StartChar: slash
Encoding: 18 47 18
GlifName: slash
Width: 534
VWidth: 0
Flags: W
LayerCount: 2
Fore
SplineSet
182 256 m 256
 160 214 150 196 130 158 c 256
 118 134 92 60 88 32 c 256
 84 10 80 2 62 2 c 256
 40 2 20 22 20 48 c 256
 20 68 32 86 42 110 c 256
 62 162 54 160 106 260 c 256
 134 314 158 350 168 370 c 256
 202 436 216 482 248 528 c 256
 290 584 268 568 310 648 c 256
 360 744 332 704 386 798 c 256
 408 836 432 864 448 884 c 256
 456 894 468 898 492 898 c 256
 514 898 524 894 524 880 c 256
 524 870 522 854 514 838 c 256
 504 810 496 802 474 768 c 256
 442 718 424 682 384 608 c 256
 358 564 350 544 320 492 c 256
 316 486 280 434 252 374 c 256
 234 334 208 302 182 256 c 256
EndSplineSet
Validated: 1
EndChar
StartChar: zero
Encoding: 48 48 19
Width: 516
GlyphClass: 1
Flags: W
LayerCount: 2
Fore
SplineSet
186 432 m 1
 182 416 168 394 152 376 c 0
 144 366 130 332 130 304 c 0
 130 244 140 168 202 104 c 0
 218 88 248 80 282 80 c 0
 372 80 402 195 402 266 c 0
 402 352 384 410 344 450 c 0
 334 460 316 468 286 468 c 0
 256 468 238 460 228 450 c 0
 216 440 198 434 186 432 c 1
196 524 m 0
 228 540 252 544 288 544 c 0
 338 544 382 526 404 510 c 0
 432 488 468 406 476 354 c 0
 478 338 480 308 480 266 c 0
 480 194 467 111 416 56 c 0
 394 32 346 0 304 0 c 0
 266 0 204 2 164 30 c 0
 106 69 42 188 42 256 c 0
 42 344 68 412 98 458 c 0
 102 464 106 492 132 492 c 0
 144 492 150 490 156 490 c 1
 160 500 174 514 196 524 c 0
210 158 m 0
 188 158 170 174 170 192 c 0
 170 218 286 360 300 374 c 0
 314 388 330 394 340 394 c 0
 358 394 366 380 366 354 c 0
 366 340 278 218 268 212 c 0
 264 210 260 202 258 188 c 0
 254 170 232 158 210 158 c 0
EndSplineSet
Validated: 1
Substitution2: "'lnum' Lining Figures lookup 8-1" zero.lnum
EndChar
StartChar: one
Encoding: 49 49 20
Width: 343
GlyphClass: 1
Flags: W
LayerCount: 2
Fore
SplineSet
230 560 m 0
 254 560 264 550.000976562 276 536.000976562 c 0
 284 526.000976562 288 488.000976562 288 404.000976562 c 0
 288 380.000976562 288 342.000976562 286 290.000976562 c 0
 284 238.000976562 284 202.000976562 284 180.000976562 c 0
 284 110.000976562 288 74.0009765625 296 66.0009765625 c 0
 304 58.0009765625 306 46.0009765625 306 24.0009765625 c 0
 306 10.0009765625 306 4.0009765625 302 2.0009765625 c 0
 296 -3.9990234375 256 -15.9990234375 246 -15.9990234375 c 0
 222 -15.9990234375 202 -1.9990234375 202 20.0009765625 c 0
 202 65.333984375 198.444335938 93.7783203125 198.444335938 144.4453125 c 0
 198.444335938 169.778320312 199.333007812 200.666992188 202 242 c 0
 206 316 210 350 210 370 c 0
 210 386 208 400 206 410 c 1
 196 404 178 390 136 350 c 0
 96 310 74 288 64 288 c 0
 56 288 42 302 36 316 c 0
 32 324 30 332 30 340 c 0
 30 348 32 350 36 358 c 0
 70 410 112 440 144 470 c 0
 174 500 190 514 196 528 c 0
 206 552 210 560 230 560 c 0
EndSplineSet
Validated: 1
Substitution2: "'lnum' Lining Figures lookup 8-1" one.lnum
EndChar
StartChar: two
Encoding: 50 50 21
Width: 478
GlyphClass: 1
Flags: W
LayerCount: 2
Fore
SplineSet
306 404 m 0
 306 442 298 458 254 458 c 0
 186 458 174 452 122 406 c 0
 98 384 82 374 72 374 c 0
 62 374 52 382 52 394 c 0
 52 446 92 470 124 502 c 0
 160 538 206 550 256 550 c 0
 328 550 384 506 384 438 c 0
 384 320 342 258 302 204 c 0
 264 152 244 124 208 80 c 1
 234 80 240 82 250 82 c 0
 268 82 292 88 348 88 c 0
 406 88 444 74 456 42 c 0
 460 34 462 28 462 22 c 0
 462 12 452 4 436 0 c 0
 386 -10 338 -4 276 -10 c 0
 176 -20 184 -18 84 -32 c 0
 72 -34 62 -34 56 -34 c 0
 50 -34 46 -34 46 -28 c 0
 46 4 26 6 26 30 c 0
 26 58 62 74 88 86 c 0
 132 108 174 172 204 214 c 0
 254 286 306 344 306 404 c 0
EndSplineSet
Validated: 1
Substitution2: "'lnum' Lining Figures lookup 8-1" two.lnum
EndChar
StartChar: three
Encoding: 22 51 22
GlifName: three
Width: 510
VWidth: 0
Flags: W
LayerCount: 2
Fore
SplineSet
250 544 m 256
 332 544 356 518 388 472 c 256
 402 454 412 390 412 338 c 256
 412 292 394 206 328 156 c 257
 368 140 386 122 418 100 c 256
 462 68 474 40 474 -14 c 256
 474 -46 468 -76 446 -106 c 256
 426 -134 376 -188 340 -224 c 256
 286 -276 238 -310 192 -310 c 256
 158 -310 114 -288 114 -256 c 256
 114 -246 122 -240 136 -236 c 256
 176 -226 236 -200 284 -168 c 256
 322 -142 390 -70 390 -30 c 256
 390 28 312 70 248 70 c 256
 224 70 198 64 184 64 c 256
 154 64 140 74 140 96 c 256
 140 136 168 156 192 162 c 256
 246 172 336 260 336 338 c 256
 336 398 308 454 248 454 c 256
 214 454 184 442 160 420 c 256
 136 396 120 398 98 356 c 256
 86 330 74 318 64 318 c 256
 52 318 42 338 42 376 c 256
 42 436 56 460 90 478 c 256
 136 504 176 544 250 544 c 256
EndSplineSet
Validated: 1
Substitution2: "lnumLiningFigureslookup8 subtable" three.lnum
EndChar
StartChar: four
Encoding: 52 52 23
Width: 554
GlyphClass: 1
Flags: W
LayerCount: 2
Fore
SplineSet
464 10 m 0
 452 8 434 8 426 8 c 1
 426 -106 456 -206 464 -216 c 0
 474 -228 478 -242 478 -254 c 0
 478 -268 464 -302 448 -302 c 0
 442 -302 436 -300 426 -298 c 0
 378 -288 364 -232 340 -118 c 0
 336 -100 330 -42 328 4 c 1
 288 4 l 1
 277 4 l 2
 238 4 187 -2 141 -2 c 0
 112 -2 85 1 64 8 c 0
 36 18 30 50 30 92 c 0
 30 132 50 166 58 182 c 0
 84 236 94 272 120 330 c 0
 128 346 148 378 200 510 c 0
 212 538 224 574 240 574 c 0
 254 574 288 554 288 540 c 0
 288 481 226 348 198 288 c 0
 176 238 144 192 130 128 c 0
 129.049804688 123.926757812 128.596679688 120.314453125 128.596679688 117.11328125 c 0
 128.596679688 96.734375 146.9375 93 172 93 c 0
 182 93 193 93 204 94 c 0
 233 97 257 98 278 98 c 0
 299 98 317 97 336 96 c 1
 338 136 360 220 362 246 c 0
 364 276 384 304 416 304 c 0
 428 304 440 300 440 292 c 0
 440 284 440 250 434 190 c 2
 424 98 l 1
 435 95 446 94 456 94 c 0
 476 94 493 98 512 98 c 0
 520 98 544 72 544 62 c 0
 544 36 518 16 464 10 c 0
EndSplineSet
Validated: 1
Substitution2: "'lnum' Lining Figures lookup 8-1" four.lnum
EndChar
StartChar: five
Encoding: 53 53 24
Width: 528
GlyphClass: 1
Flags: W
LayerCount: 2
Fore
SplineSet
85 72 m 0
 51.3232421875 72 40.7919921875 85.7431640625 40.7919921875 133.237304688 c 0
 40.7919921875 164.719726562 45.4189453125 211.03125 51 278.000976562 c 0
 57 352.000976562 69 424.000976562 74 463.000976562 c 1
 59.4228515625 478.306640625 53.876953125 497.331054688 53.876953125 509.620117188 c 0
 53.876953125 514.19140625 54.64453125 517.831054688 56 520 c 0
 63 531 66 536 89 536 c 0
 109 536 144 532 211 525 c 0
 241 522 268 520 296 520 c 0
 317 520 339 521 362 523 c 0
 387 525 408 527 423 527 c 0
 470 527 480 515 480 484 c 0
 480 449 420 436 279 430 c 1
 249 430 l 2
 216 430 187 431 159 435 c 1
 153 388 141 346 134 274 c 0
 132 250 129 198 128 176 c 1
 156 187 242 214 303 214 c 0
 422 214 480 166 480 49 c 0
 480 -38 396 -151 283 -254 c 0
 249 -286 204 -311 182 -311 c 0
 131 -311 104 -250 104 -210 c 0
 104 -197 114 -187 130 -187 c 0
 157 -187 164 -202 185 -202 c 0
 200 -202 246 -165 274 -135 c 0
 343 -61 391 4 391 46 c 0
 391 90 366 124 302 124 c 0
 273 124 237 117 192 101 c 0
 145 85 97 72 85 72 c 0
EndSplineSet
Validated: 1
Substitution2: "'lnum' Lining Figures lookup 8-1" five.lnum
EndChar
StartChar: six
Encoding: 54 54 25
Width: 550
GlyphClass: 1
Flags: W
LayerCount: 2
Fore
SplineSet
434 254 m 0
 434 332 384 394 324 394 c 0
 248 394 167 322 144 252 c 1
 162 180 244 84 326 84 c 0
 348 84 366 100 378 118 c 0
 394 142 416 178 422 190 c 0
 430 204 434 222 434 254 c 0
328 484 m 0
 370 484 406 464 430 444 c 0
 494 390 522 318 522 238 c 0
 522 200 516 170 504 156 c 0
 488 138 486 124 478 110 c 0
 472 96 458 70 422 44 c 0
 384 16 354 -2 304 -2 c 0
 209 -2 155 37 102 116 c 0
 64 174 44 238 44 330 c 0
 44 396 58 452 62 484 c 0
 81 617 156 892 318 892 c 0
 348 892 372 876 372 852 c 0
 372 834 360 828 322 818 c 0
 300 812 276 802 240 752 c 0
 170 655 149 499 136 384 c 1
 190 454 274 484 328 484 c 0
EndSplineSet
Validated: 1
Substitution2: "'lnum' Lining Figures lookup 8-1" six.lnum
EndChar
StartChar: seven
Encoding: 55 55 26
GlifName: seven
Width: 560
VWidth: 0
Flags: W
LayerCount: 2
Fore
SplineSet
366 202 m 256
 376 242 380 266 396 316 c 256
 406 348 426 402 426 428 c 257
 400 431 353 431 303 431 c 256
 236 431 163 430 128 430 c 257
 130 418 132 404 134 394 c 256
 152 322 164 292 164 280 c 256
 164 268 139 212 128 212 c 256
 118 212 108 220 98 232 c 256
 88 244 86 262 84 278 c 256
 78 324 32 446 32 478 c 256
 32 488 36 498 42 506 c 256
 56 526 66 528 120 528 c 256
 152 528 176 526 184 524 c 256
 198 520 211 520 244 520 c 258
 344 520 l 258
 466 520 470 526 500 526 c 256
 526 526 538 506 538 488 c 256
 538 458 524 440 508 396 c 256
 502 384 502 372 500 362 c 256
 490 308 466 268 454 220 c 256
 432 142 414 60 384 -34 c 257
 372 -86 362 -136 362 -182 c 256
 362 -210 364 -232 370 -244 c 256
 372 -250 374 -254 374 -260 c 256
 374 -278 350 -324 338 -324 c 256
 334 -324 322 -314 304 -296 c 256
 288 -280 278 -256 278 -228 c 256
 278 -116 298 -20 312 26 c 256
 320 50 356 160 366 202 c 256
EndSplineSet
Validated: 1
Substitution2: "lnumLiningFigureslookup8 subtable" uniE07C
EndChar
StartChar: eight
Encoding: 56 56 27
GlifName: eight
Width: 522
VWidth: 0
Flags: W
LayerCount: 2
Fore
SplineSet
248 410 m 256
 230 424 232 432 218 446 c 257
 208 438 176 408 166 392 c 256
 136 352 124 310 124 240 c 256
 124 190 128 162 136 148 c 256
 158 112 190 90 226 90 c 256
 268 90 312 112 334 122 c 256
 366 140 394 160 394 202 c 256
 394 234 372 270 320 330 c 256
 292 362 266 394 248 410 c 256
384 562 m 256
 402 592 418 632 418 664 c 256
 418 694 410 726 388 758 c 256
 370 786 342 808 276 808 c 256
 242 808 210 792 192 782 c 256
 172 768 168 758 168 730 c 256
 168 698 178 670 186 650 c 256
 196 624 214 600 262 528 c 256
 290 484 296 484 322 456 c 257
 338 482 352 508 384 562 c 256
268 890 m 256
 366 890 378 874 428 830 c 256
 464 798 478 772 486 740 c 256
 490 726 491 713 491 702.25 c 256
 491 691.5 490 683 490 678 c 256
 490 616 486 598 464 544 c 256
 458 528 410 444 396 418 c 256
 390 408 380 400 370 394 c 257
 392 374 440 298 450 280 c 256
 472 246 480 208 480 176 c 256
 480 83 293 4 210 4 c 256
 156 4 154 8 120 36 c 256
 94 60 70 96 48 150 c 256
 44 160 42 186 42 222 c 256
 42 317 46 345 98 428 c 256
 128 476 154 488 170 508 c 257
 164 522 148 546 140 556 c 256
 86 635 78 656 78 752 c 256
 78 768 82 798 102 822 c 256
 150 879 193 890 268 890 c 256
EndSplineSet
Validated: 524289
Substitution2: "lnumLiningFigureslookup8 subtable" uniE07D
EndChar
StartChar: nine
Encoding: 57 57 28
Width: 544
GlyphClass: 1
Flags: W
LayerCount: 2
Fore
SplineSet
360 356 m 0
 348 414 300 450 268 450 c 0
 234 450 220 446 192 414 c 0
 142 360 130 306 130 190 c 0
 130 144 158 118 204 118 c 0
 214 118 228 122 242 128 c 0
 268 142 320 196 370 258 c 0
 378 268 382 278 392 292 c 1
 380 296 370 314 360 356 c 0
448 370 m 1
 464 384 478 394 494 394 c 0
 504 394 514 390 518 382 c 0
 520 376 524 362 524 346 c 0
 524 326 516 308 506 256 c 0
 498 224 486 104 484 74 c 0
 482 42 458 -36 454 -60 c 0
 450 -88 440 -150 440 -204 c 0
 440 -292 428 -336 404 -336 c 0
 386 -336 362 -306 358 -288 c 0
 356 -278 356 -252 356 -218 c 0
 356 -164 362 -100 366 -78 c 0
 370 -54 388 14 390 30 c 0
 400 92 410 130 420 192 c 1
 367 129 246 16 166 16 c 0
 122 16 64 84 54 118 c 0
 46 142 42 184 42 240 c 0
 42 342 68 384 106 448 c 0
 142 506 190 544 244 544 c 0
 278 544 304 542 320 532 c 0
 386 498 420 464 448 370 c 1
EndSplineSet
Validated: 1
Substitution2: "'lnum' Lining Figures lookup 8-1" nine.lnum
EndChar
StartChar: colon
Encoding: 58 58 29
Width: 194
GlyphClass: 1
Flags: W
LayerCount: 2
Fore
SplineSet
42 474 m 0
 42 486 42 504 46 522 c 0
 50 540 66 550 72 550 c 0
 82 550 112 554 126 554 c 0
 144 554 156 544 166 520 c 0
 170 512 170 506 170 498 c 0
 170 453 123 426 82 426 c 0
 76 426 70 428 62 430 c 0
 50 436 42 450 42 474 c 0
42 4 m 0
 42 10 40 18 36 28 c 0
 32 38 28 44 28 50 c 0
 28 56 30 62 36 72 c 0
 48 88 64 96 84 96 c 0
 104 96 126 88 140 72 c 0
 150 62 152 44 152 32 c 0
 152 20 142 20 130 8 c 0
 114 -12 96 -18 74 -18 c 0
 54 -18 42 -6 42 4 c 0
EndSplineSet
Validated: 1
EndChar
StartChar: semicolon
Encoding: 59 59 30
Width: 180
GlyphClass: 1
Flags: W
LayerCount: 2
Fore
SplineSet
106 538 m 0
 118 538 142 533 146 520 c 0
 150 512 152 496 152 484 c 0
 152 450 105 414 72 414 c 0
 48 414 38 436 38 478 c 0
 38 496 40 506 42 510 c 0
 46 526 72 538 106 538 c 0
66 112 m 0
 74 120 86 122 102 122 c 0
 126 122 140 116 148 106 c 0
 152 98 154 94 154 88 c 0
 154 78 150 80 146 6 c 0
 144 -20 140 -58 130 -86 c 0
 126 -100 122 -116 122 -128 c 0
 122 -150 100 -172 78 -172 c 0
 58 -172 48 -164 48 -130 c 0
 48 -114 48 -100 50 -88 c 0
 54 -12 56 32 56 42 c 0
 56 80 58 104 66 112 c 0
EndSplineSet
Validated: 1
EndChar
StartChar: less
Encoding: 60 60 31
Width: 572
GlyphClass: 1
Flags: W
LayerCount: 2
Fore
SplineSet
76 188 m 0
 48 212 40 232 40 252 c 0
 40 269 50 306 68 312 c 0
 78 316 86 320 114 334 c 0
 142 348 166 366 196 382 c 0
 226 398 244 412 276 434 c 0
 316 462 330 470 388 502 c 0
 414 514 428 522 430 526 c 0
 434 532 442 534 452 534 c 0
 464 534 512 506 512 496 c 0
 512 476 508 464 476 458 c 0
 438 453 317 383 280 360 c 0
 263 350 134 269 134 260 c 0
 134 252 172 234 208 210 c 0
 302 152 326 158 410 112 c 0
 464 82 512 52 536 32 c 0
 548 22 558 12 558 2 c 0
 558 -14 540 -22 504 -24 c 0
 472 -24 460 -16 442 -6 c 0
 398 22 358 38 202 112 c 0
 144 140 120 150 76 188 c 0
EndSplineSet
Validated: 1
EndChar
StartChar: equal
Encoding: 32 61 32
GlifName: equal
Width: 468
VWidth: 0
Flags: W
LayerCount: 2
Fore
SplineSet
376 430 m 256
 378 430 382 434 384 434 c 256
 403 434 456 401 456 380 c 256
 456 370 446 362 430 354 c 256
 424 352 398 350 346 348 c 256
 294 346 246 340 192 340 c 256
 138 340 80 344 76 344 c 256
 74 342 68 342 62 342 c 256
 54 342 20 360 20 384 c 256
 20 392 24 400 28 406 c 256
 32 414 44 418 64 420 c 256
 84 422 132 422 208 424 c 256
 320 424 370 428 376 430 c 256
28 224 m 256
 29 225 30 225 31 225 c 256
 33 225 37 224 42 224 c 256
 74 224 80 214 106 212 c 256
 156 206 184 204 234 204 c 258
 374 204 l 258
 384 204 386 208 396 208 c 256
 419 208 452 193 452 166 c 256
 452 146 415 136 400 136 c 256
 354 136 284 128 220 128 c 256
 164 128 94 140 58 154 c 256
 32 164 22 186 22 200 c 256
 22 210 24 216 28 224 c 256
EndSplineSet
Validated: 1
EndChar
StartChar: greater
Encoding: 62 62 33
GlifName: greater
Width: 570
VWidth: 0
Flags: W
LayerCount: 2
Fore
SplineSet
450 384 m 256
 510 358 490 366 538 340 c 256
 554 330 564 318 564 304 c 256
 564 282 556 254 524 244 c 256
 518 242 486 230 430 202 c 256
 356 166 300 148 230 74 c 256
 194 36 172 10 170 -2 c 256
 164 -24 146 -32 116 -32 c 256
 84 -32 68 -26 68 -10 c 256
 68 4 80 18 82 32 c 256
 84 42 106 70 150 118 c 256
 188 160 206 178 250 206 c 256
 288 230 314 240 358 266 c 256
 380 278 406 290 420 300 c 257
 376 318 318 332 172 382 c 256
 140 392 94 416 46 438 c 256
 38 442 22 452 22 466 c 256
 22 494 54 540 72 540 c 256
 102 540 100 520 112 512 c 256
 138 498 232 464 266 454 c 256
 374 426 364 420 450 384 c 256
EndSplineSet
Validated: 1
EndChar
StartChar: question
Encoding: 63 63 34
GlifName: question
Width: 474
VWidth: 0
Flags: W
LayerCount: 2
Fore
SplineSet
24 740 m 256
 24 836 84 872 161 908 c 256
 171 914 190 918 224 918 c 256
 301 918 329 908 373 874 c 256
 417 840 440 786 440 706 c 256
 440 653 411 548 377 485 c 256
 348 431 299 383 253 366 c 257
 253 347 255 320 257 315 c 256
 266 284 276 271 276 246 c 256
 276 223 257 202 234 202 c 256
 201 202 190 217 180 244 c 256
 171 259 167 294 163 313 c 256
 159 330 146 368 146 385 c 256
 146 404 161 416 188 425 c 256
 219 435 289 481 314 542 c 256
 331 584 362 645 362 695 c 256
 362 756 356 767 329 794 c 256
 303 819 261 828 234 828 c 256
 211 828 188 819 159 800 c 256
 135 786 112 771 106 733 c 256
 104 710 91 700 66 700 c 256
 41 700 24 714 24 740 c 256
337 47 m 256
 337 26 272 -8 249 -8 c 256
 236 -8 196 13 196 34 c 256
 196 47 211 70 211 76 c 256
 211 89 222 99 240 99 c 256
 262 99 337 78 337 47 c 256
EndSplineSet
Validated: 1
EndChar
StartChar: at
Encoding: 64 64 35
Width: 930
GlyphClass: 1
Flags: W
LayerCount: 2
Fore
SplineSet
220 812 m 0
 280 854 326 878 410 878 c 0
 514 878 663 846 746 778 c 1
 858 694 914 556 914 418 c 0
 914 314 890 258 810 186 c 0
 756 138 720 110 650 110 c 0
 618 110 582 124 552 144 c 0
 520 168 498 196 490 242 c 1
 442 210 432 200 372 200 c 0
 316 200 286 246 286 288 c 0
 286 384 288 418 364 538 c 0
 416 618 460 646 512 646 c 0
 565 646 618 637 618 574 c 0
 618 542 616 522 584 522 c 0
 564 522 548 530 536 542 c 0
 522 554 520 558 512 558 c 0
 490 558 446 518 420 464 c 0
 406 432 372 398 372 324 c 0
 372 302 378 292 398 292 c 0
 410 292 462 320 468 326 c 0
 478 336 488 344 508 374 c 0
 530 406 550 418 568 418 c 0
 596 418 606 392 606 362 c 0
 606 336 570 312 570 278 c 0
 570 256 574 242 576 240 c 0
 596 212 622 198 662 198 c 0
 682 198 716 206 726 214 c 0
 792 264 842 334 842 430 c 0
 842 484 834 518 828 536 c 0
 810 592 770 666 726 700 c 0
 672 740 654 744 618 760 c 0
 586 774 478 802 428 802 c 0
 292 802 224 722 176 600 c 0
 128 476 116 372 116 298 c 0
 116 128 122 84 206 0 c 0
 256 -50 326 -66 408 -66 c 0
 476 -66 540 -50 578 -20 c 0
 672 50 718 56 738 56 c 0
 748 56 750 54 750 48 c 0
 750 40 732 14 662 -44 c 0
 596 -97 512 -160 424 -160 c 0
 332 -160 212 -130 154 -66 c 0
 72 24 50 98 40 194 c 0
 36 226 34 260 34 292 c 0
 34 438 74 538 96 612 c 0
 110 664 176 782 220 812 c 0
EndSplineSet
Validated: 1
EndChar
StartChar: A
Encoding: 65 65 36
GlifName: A_
Width: 648
VWidth: 0
Flags: W
HStem: -8 21G<571 588> 264 88<181.656 459.161> 884 20G<349 369>
VStem: 549 72<2.5419 81.3109>
AnchorPoint: "bottom" 320 41 basechar 0
AnchorPoint: "top" 364 937 basechar 0
LayerCount: 2
Fore
SplineSet
249 544 m 260
 239 520 237 506 199 412 c 260
 189 390 181 372 181 368 c 260
 195 364 209 364 223 360 c 260
 231 358 265 352 335 352 c 260
 399 352 433 360 461 364 c 261
 455 420 455 440 431 566 c 260
 417 654 409 700 409 706 c 260
 407 720 403 738 395 760 c 260
 387 782 369 804 367 804 c 260
 365 804 355 782 347 766 c 260
 309 676 289 636 277 612 c 260
 263 586 261 576 249 544 c 260
133 442 m 260
 149 474 157 516 193 588 c 260
 209 628 215 654 233 696 c 260
 251 738 267 780 291 834 c 260
 303 864 319 900 321 900 c 260
 325 902 339 904 359 904 c 260
 379 904 385 902 395 898 c 260
 420 888 465 833 471 808 c 260
 475 792 481 774 493 728 c 260
 499 712 501 680 507 628 c 260
 519 510 535 402 553 304 c 260
 571 206 597 150 603 132 c 260
 609 110 621 70 621 48 c 260
 621 24 599 -8 577 -8 c 260
 565 -8 549 -2 549 16 c 260
 549 48 525 78 513 118 c 260
 497 166 481 242 471 282 c 261
 429 269 386 264 342 264 c 262
 297 264 l 262
 283 264 273 264 265 266 c 260
 245 272 225 272 207 274 c 260
 189 276 175 280 161 288 c 261
 134 234 121 176 115 116 c 260
 111 66 101 42 77 42 c 260
 65 42 51 52 41 70 c 260
 35 78 31 86 31 98 c 260
 31 112 33 134 39 160 c 260
 51 255 87 358 133 442 c 260
EndSplineSet
EndChar
StartChar: B
Encoding: 37 66 37
GlifName: B_
Width: 608
VWidth: 0
Flags: W
LayerCount: 2
Fore
SplineSet
290 370 m 256
 256 380 236 382 216 382 c 258
 164 382 l 257
 164 291 170 200 182 110 c 256
 184 94 184 84 184 76 c 257
 190 72 228 70 252 70 c 256
 324 70 348 92 380 108 c 256
 408 124 488 172 488 206 c 256
 488 240 438 282 414 302 c 256
 370 338 356 344 290 370 c 256
232 814 m 256
 207 815 192 818 173 818 c 258
 161 818 l 257
 160 786 156 718 156 642 c 256
 156 592 162 526 162 472 c 257
 204 472 242 476 252 480 c 256
 270 488 328 506 370 538 c 256
 412 570 432 596 432 624 c 256
 432 672 387 728 348 764 c 256
 312 798 272 812 232 814 c 256
128 928 m 256
 142 928 148 918 164 914 c 256
 174 910 186 914 228 906 c 256
 303 892 353 874 388 846 c 256
 399 837 414 817 436 788 c 256
 484 724 508 688 508 625 c 256
 508 556 472 530 426 488 c 256
 400 464 372 446 356 436 c 257
 392 422 426 398 444 386 c 256
 506 347 570 290 570 210 c 256
 570 142 504 81 424 46 c 256
 406 38 380 22 352 12 c 256
 324 2 274 -10 200 -10 c 256
 160 -10 84 -3 84 52 c 256
 84 58 89 68 101 76 c 257
 74 255 72 436 72 616 c 256
 72 630 74 688 74 700 c 256
 74 834 64 828 64 864 c 256
 64 910 98 928 128 928 c 256
EndSplineSet
Validated: 1
EndChar
StartChar: C
Encoding: 38 67 38
GlifName: C_
Width: 642
VWidth: 0
Flags: W
LayerCount: 2
Fore
SplineSet
138 726 m 256
 197 821 256 884 372 884 c 256
 443 884 493 851 542 802 c 256
 562 782 576 770 580 760 c 256
 584 750 586 734 586 714 c 256
 586 696 584 684 580 676 c 256
 564 645 505 642 476 642 c 256
 454 642 444 644 444 650 c 256
 444 654 452 662 470 676 c 256
 488 690 500 700 500 702 c 256
 500 708 488 724 464 752 c 256
 448 770 435 775 425 779 c 256
 415 785 380 791 357 791 c 256
 284 791 233 742 206 679 c 256
 174 614 170 628 155 562 c 256
 140 499 129 468 129 405 c 256
 129 309 131 223 202 148 c 256
 235 113 264 89 343 89 c 256
 382 89 415 95 443 107 c 256
 506 136 529 160 545 171 c 256
 558 181 574 182 590 182 c 256
 606 182 616 168 616 158 c 256
 616 148 612 140 592 118 c 256
 546 68 506 44 442 10 c 256
 420 -2 380 -8 326 -8 c 256
 240 -8 210 11 146 68 c 256
 49 154 42 287 42 408 c 256
 42 519 81 632 138 726 c 256
EndSplineSet
Validated: 1
EndChar
StartChar: D
Encoding: 39 68 39
GlifName: D_
Width: 682
VWidth: 0
Flags: W
LayerCount: 2
Fore
SplineSet
96 898 m 256
 108 904 113.997 908 117.997 908 c 256
 127.997 908 153.997 886 163.997 868 c 257
 175.997 869 186.997 869 197.997 869 c 256
 246.997 869 289.997 863 335.997 856 c 256
 343.997 856 359.997 850 391.997 846 c 256
 475.997 832 524.997 807 583.997 744 c 256
 620.263 705.826 640.134 627.577 640.134 559.668 c 256
 640.134 556.42 640.088 553.195 639.997 550 c 256
 635.997 448 619.997 402 555.997 298 c 256
 517.997 236 475.997 190 449.997 164 c 256
 371.997 90 317.997 40 293.997 24 c 256
 245.997 -8 211.997 -26 191.997 -26 c 256
 171.997 -26 155.997 -19 155.997 4 c 256
 155.997 12 159.997 24 167.997 32 c 256
 205.997 66 193.997 62 247.997 100 c 256
 329.997 160 357.997 182 407.997 240 c 256
 455.997 290 465.997 308 507.997 374 c 256
 537.997 422 555.997 480 557.997 548 c 256
 558.256 552.908 558.381 557.684 558.381 562.329 c 256
 558.381 593.649 552.706 619.1 543.998 639.999 c 256
 515.998 689.999 505.998 703.999 455.998 725.999 c 256
 385.998 762.999 279.998 774.999 201.998 774.999 c 256
 188.998 774.999 177.998 773.999 163.998 769.999 c 257
 161.998 749.999 157.998 699.999 153.998 621.999 c 256
 153.177 607.217 152.861 594.374 152.861 582.017 c 256
 152.861 541.067 156.324 505.444 156.324 422.253 c 256
 156.324 408.264 156.227 392.93 155.998 375.999 c 256
 155.779 367.449 155.681 358.731 155.681 349.979 c 256
 155.681 278.888 162.218 205.561 163.999 201.999 c 256
 175.999 165.999 191.999 159.999 191.999 143.999 c 256
 189.999 116.999 170.999 89.999 141.999 89.999 c 256
 133.999 89.999 127.999 101.999 117.999 117.999 c 256
 95.999 151.999 89.999 163.999 79.999 205.999 c 256
 73.999 235.999 71.999 307.999 71.999 425.999 c 256
 73.6895 470.8 74.3086 498.81 74.3086 520.598 c 256
 74.3086 550.36 73.1543 568.514 72 602 c 256
 68 716 74 810 64 842 c 256
 62.9688 843.805 62.5029 845.941 62.5029 848.312 c 256
 62.5029 864.332 83.8047 891.031 96 898 c 256
EndSplineSet
Validated: 524289
EndChar
StartChar: E
Encoding: 40 69 40
GlifName: E_
Width: 662
VWidth: 0
Flags: W
LayerCount: 2
Fore
SplineSet
177 250 m 256
 177 186 179 137.001 200 103.001 c 256
 214 80.001 231 79.001 269 79.001 c 258
 288 79.001 l 258
 330 79.001 360 83.001 373 87.001 c 256
 448 111.001 531 123.001 610 123.001 c 256
 622 123.001 629 122.001 629 110.001 c 256
 629 75.001 577 49.001 549 43.001 c 256
 533 40.001 513 39.001 499 35.001 c 256
 411 14.001 309 -2.99902 220 -2.99902 c 256
 167 -2.99902 113 49.001 101 113.001 c 256
 97.4785 131.783 96.4062 163.887 96.4062 204.759 c 256
 96.4062 268.337 99 353.131 99 442 c 256
 99 519 92 718 83 792 c 257
 78 792 l 258
 65 792 51 793 42 804 c 256
 33 817 31 829 31 838 c 256
 31 848 44 860 58 865 c 256
 70 871 75 877 82 881 c 257
 83 881 l 257
 111 887 129 889 224 889 c 256
 360 889 456 891 491 901 c 256
 500 903 508 909 518 909 c 256
 532 909 551 907 575 901 c 256
 585 899 589 896 589 882 c 256
 589 852 579 841 539 828 c 256
 486 812 358 806 298 802 c 256
 260 800 232 798 171 796 c 257
 173 767 177 741 177 710 c 258
 177 604 l 258
 177 568 179 529 179 495 c 257
 236 490 275 486 321 486 c 256
 368 486 422 490 511 501 c 256
 528 503 535 504 544 505 c 256
 554 505 569 486 569 468 c 256
 569 456 558 443 531 437 c 256
 484 432 410 407 330 407 c 256
 278 407 222 408 179 412 c 257
 179 368 177 306 177 250 c 256
EndSplineSet
Validated: 524289
EndChar
StartChar: F
Encoding: 70 70 41
Width: 668
GlyphClass: 1
Flags: W
LayerCount: 2
Fore
SplineSet
67 897 m 0
 67 915 93.9990234375 935.000976562 110.999023438 935.000976562 c 0
 122.999023438 935.000976562 137.999023438 928.000976562 147.999023438 902.000976562 c 0
 153.999023438 890.000976562 155.999023438 864.000976562 155.999023438 864.000976562 c 1
 241.999023438 870.000976562 279.999023438 870.000976562 381.999023438 876.000976562 c 0
 435.999023438 878.000976562 467.999023438 880.000976562 481.999023438 880.000976562 c 0
 499.999023438 882.000976562 519.999023438 882.000976562 541.999023438 882.000976562 c 0
 567.999023438 882.000976562 583.999023438 878.000976562 593.999023438 868.000976562 c 0
 607.999023438 848.000976562 615.999023438 834.000976562 615.999023438 824.000976562 c 0
 615.999023438 814.000976562 595.999023438 788.000976562 575.999023438 788.000976562 c 0
 549.999023438 788.000976562 533.999023438 796.000976562 503.999023438 796.000976562 c 0
 483.999023438 796.000976562 415.999023438 796.000976562 317.999023438 788.000976562 c 0
 298.999023438 786.000976562 222.999023438 783.000976562 165.999023438 779.000976562 c 1
 171.999023438 755.000976562 171.999023438 652.000976562 177.999023438 596.000976562 c 0
 181.463867188 565.684570312 182.302734375 534.618164062 182.302734375 502.963867188 c 0
 182.302734375 473.249023438 181.563476562 443.015625 181.563476562 412.399414062 c 0
 181.563476562 400.323242188 181.678710938 388.1875 181.999023438 376 c 2
 181.999023438 220 l 2
 181.999023438 172 197.999023438 138 197.999023438 64 c 0
 197.999023438 53.3330078125 198.7890625 45.8271484375 198.7890625 39.19921875 c 0
 198.7890625 30.9140625 197.5546875 24 191.999023438 14 c 0
 181.999023438 -4 165.999023438 -12 153.999023438 -12 c 0
 143.999023438 -12 135.999023438 -4 127.999023438 16 c 0
 111.999023438 70 109.999023438 92 99.9990234375 172 c 0
 95.939453125 191.486328125 94.8466796875 227.6171875 94.8466796875 277.047851562 c 0
 94.8466796875 334.739257812 96.3359375 410.547851562 96.3359375 499.155273438 c 0
 96.3359375 521.641601562 96.240234375 544.952148438 96 569 c 0
 95 653 85 735 77 817 c 0
 73 851 75 875 69 889 c 0
 69 891 67 895 67 897 c 0
211.999023438 462.000976562 m 0
 211.999023438 476.000976562 221.999023438 492.000976562 235.999023438 492.000976562 c 0
 361.999023438 492.000976562 529.999023438 486.000976562 559.999023438 482.000976562 c 0
 577.999023438 480.000976562 585.999023438 468.000976562 585.999023438 454.000976562 c 0
 585.999023438 448.000976562 583.999023438 442.000976562 581.999023438 436.000976562 c 0
 579.999023438 430.000976562 561.999023438 426.000976562 529.999023438 416.000976562 c 0
 497.999023438 406.000976562 475.999023438 400.000976562 445.999023438 400.000976562 c 0
 413.999023438 400.000976562 371.999023438 398.000976562 337.999023438 398.000976562 c 0
 289.999023438 398.000976562 255.999023438 402.000976562 235.999023438 414.000976562 c 0
 219.999023438 424.000976562 211.999023438 440.000976562 211.999023438 462.000976562 c 0
EndSplineSet
Validated: 1
EndChar
StartChar: G
Encoding: 71 71 42
GlifName: G_
Width: 700
VWidth: 0
Flags: HW
AnchorPoint: "bottom" 260 71 basechar 0
AnchorPoint: "top" 382 935 basechar 0
LayerCount: 2
Fore
SplineSet
580 398 m 256
 584 416 598 440 616 440 c 256
 644 440 656 418 656 376 c 256
 656 362 654 344 648 322 c 256
 642 300 626 180 622 156 c 256
 612 104 608 -44 606 -68 c 256
 596 -146 558 -186 494 -206 c 256
 482 -212 466 -214 454 -214 c 256
 422 -214 386 -196 350 -162 c 256
 340 -152 334 -132 334 -112 c 256
 334 -86 340 -76 358 -76 c 256
 372 -76 388 -84 402 -98 c 256
 428 -124 448 -136 460 -136 c 256
 484 -136 512 -110 518 -100 c 256
 520 -96 524 -24 530 62 c 256
 530 74 534 140 538 172 c 257
 478 104 348 16 260 16 c 256
 164 16 78 106 64 194 c 256
 60 216 58 244 58 278 c 256
 58 444 78 492 104 558 c 256
 122 610 184 726 244 784 c 256
 292 832 312 846 332 866 c 256
 350 884 376 894 408 894 c 256
 470 894 514 870 542 816 c 256
 552 800 556 772 556 730 c 256
 556 676 502 624 448 624 c 256
 436 624 430 626 430 632 c 256
 430 638 436 650 448 662 c 256
 468 682 480 704 480 730 c 256
 480 764 456 806 424 806 c 256
 370 806 274 710 254 672 c 256
 232 630 200 586 184 536 c 256
 170 484 138 430 138 280 c 256
 138 226 166 160 196 136 c 256
 212 124 234 116 266 116 c 256
 358 116 408 164 464 214 c 256
 521 264 564 323 580 398 c 256
EndSplineSet
Validated: 1
EndChar
StartChar: H
Encoding: 72 72 43
GlifName: H_
Width: 740
VWidth: 0
Flags: HW
AnchorPoint: "bottom" 390 31 basechar 0
AnchorPoint: "top" 360 921 basechar 0
LayerCount: 2
Fore
SplineSet
560 854 m 256
 558 870 555.997 879.999 555.997 889.999 c 256
 555.997 899.999 557.997 907.999 563.997 911.999 c 256
 571.997 919.999 575.997 921.999 589.997 921.999 c 256
 628.997 921.999 634.997 884.999 637.997 853.999 c 256
 645.414 793.184 649.53 719.166 649.53 631.947 c 256
 649.53 601.566 649.031 569.584 647.998 535.999 c 256
 647.616 528.359 647.453 521.012 647.453 514.04 c 256
 647.453 484.506 650.38 461.707 651.998 451.999 c 257
 667.998 449.999 695.998 443.999 695.998 419.999 c 256
 695.998 395.999 687.998 387.999 657.998 373.999 c 256
 658.665 371.332 658.888 368.443 658.888 364.813 c 256
 658.888 357.555 657.999 347.332 657.999 329.999 c 256
 657.999 303.999 659.999 277.999 659.999 249.999 c 258
 659.999 199.999 l 258
 659.999 143.999 667.999 39.999 681.999 27.999 c 256
 695.999 15.999 703.999 -2.00098 703.999 -12.001 c 256
 703.999 -22.001 697.999 -30.001 687.999 -36.001 c 256
 679.999 -40.001 673.999 -42.001 667.999 -42.001 c 256
 659.999 -42.001 655.999 -38.001 647.999 -34.001 c 256
 617.999 -14.001 603.999 11.999 593.999 33.999 c 256
 579.486 71.0879 575.375 158.885 575.375 224.006 c 256
 575.375 239.651 575.612 253.988 576 265.998 c 256
 576.764 285.097 577.09 300.256 577.09 312.702 c 256
 577.09 332.84 576.235 345.874 574.999 356.999 c 257
 508.999 346.999 443.999 339.999 375.999 339.999 c 256
 257.999 339.999 209.999 345.999 161.999 349.999 c 257
 161.999 301.999 161.999 175.999 165.999 119.999 c 256
 167.999 97.999 173.999 87.999 181.999 79.999 c 256
 191.999 69.999 193.999 67.999 193.999 31.999 c 256
 193.999 -0.000976562 189.999 -22.001 169.999 -22.001 c 256
 153.999 -22.001 130.999 -11.001 123.999 -4.00098 c 256
 99.999 27.999 85.999 95.999 81.999 153.999 c 256
 77.999 199.999 79.999 275.999 77.999 329.999 c 256
 75.999 355.999 75.999 441.999 75.999 595.999 c 258
 75.999 817.999 l 258
 75.999 845.999 75.999 867.999 115.999 867.999 c 256
 127.999 867.999 135.999 867.999 139.999 863.999 c 256
 143.999 859.999 145.999 853.999 149.999 843.999 c 256
 155.855 829.358 159.568 808.286 159.568 778.43 c 256
 159.568 767.502 159.071 755.396 157.999 741.999 c 256
 157.576 730.165 157.422 714.937 157.422 697.201 c 256
 157.422 648.748 158.576 581.583 158.576 513.797 c 256
 158.576 488.985 158.422 464.091 157.999 440 c 256
 159.999 436 223.999 427 283.999 425 c 256
 319.999 424 353.999 424 381.999 424 c 256
 461.999 424 492.999 432 568.999 440 c 257
 566.999 478 563.999 508 563.999 540 c 258
 563.999 732 l 258
 563.999 760.8 564.319 777.12 564.319 789.92 c 256
 564.319 809.12 563.6 820.4 560 854 c 256
EndSplineSet
Validated: 524289
EndChar
StartChar: I
Encoding: 73 73 44
GlifName: I_
Width: 572
VWidth: 0
Flags: HW
AnchorPoint: "bottom" 300 42 basechar 0
AnchorPoint: "top" 286 921 basechar 0
LayerCount: 2
Fore
SplineSet
251 408 m 256
 251 476 255 597 255 666 c 256
 255 737 253 769 252 784 c 257
 210 776 165 773 152 773 c 256
 139 773 74 774 65 778 c 256
 60 781 51 789 51 820 c 256
 51 828 55 834 63 835 c 256
 116 844 211 856 248 866 c 257
 249 869 l 258
 252 880 262 889 280 889 c 256
 291 889 310 885 318 876 c 257
 320 875 l 257
 346 876 374 877 396 877 c 256
 417 877 434 876 441 875 c 256
 470 871 479 862 479 849 c 256
 479 832 467 809 450 803 c 256
 445 800 431 796 409 796 c 256
 396 796 380 797 364 797 c 256
 353 797 342 796 333 795 c 257
 336 769 337 736 337 678 c 256
 337 558 335 449 335 324 c 256
 335 288 341 211 341 176 c 256
 341 171 340 159 337 156 c 256
 333 154 329 149 323 144 c 256
 308 131 289 115 278 115 c 256
 276 116 275 117 273 118 c 256
 257 132 255 158 255 198 c 256
 255 255 251 329 251 408 c 256
500 101 m 256
 517 101 531 88 531 62 c 256
 531 47 491 1 475 1 c 256
 451 3 416 4 381 4 c 256
 304 4 210 9 155 17 c 256
 105 24 83 32 83 68 c 256
 83 103 98 125 126 125 c 256
 139 125 150 121 156 114 c 256
 179 96 297 87 327 87 c 256
 395 87 438 101 500 101 c 256
EndSplineSet
EndChar
StartChar: J
Encoding: 74 74 45
GlifName: J_
Width: 686
VWidth: 0
Flags: HW
AnchorPoint: "bottom" 332 41 basechar 0
AnchorPoint: "top" 364 899 basechar 0
LayerCount: 2
Fore
SplineSet
176 42 m 256
 114 83 52.001 130.001 52.001 212.001 c 256
 52.001 240.001 60.001 258.001 74.001 268.001 c 256
 84.001 274.001 90.001 276.001 94.001 276.001 c 256
 100.001 276.001 102.001 270.001 108.001 256.001 c 256
 150.001 154.001 217.001 84.001 334.001 84.001 c 256
 392.001 84.001 440.001 98.001 478.001 134.001 c 256
 508.001 162.001 522.001 186.001 526.001 206.001 c 256
 532.001 244.001 532.001 348.001 532.001 514.001 c 258
 532.001 514.001 531.681 532.561 531.681 559.568 c 256
 531.681 600.08 532.4 659.6 536 704 c 256
 538 742 542 780 544 798 c 257
 486 780 450 782 378 772 c 256
 368 770 324 766 298 764 c 256
 254 760 220 754 196 752 c 256
 186 750 178 750 166 750 c 256
 144 750 128 766 128 788 c 256
 128 812 152 832 162 838 c 256
 172 844 198 846 234 848 c 256
 274 850 328 848 398 862 c 256
 472 876 514 884 526 888 c 256
 538 894 580 906 594 906 c 256
 626 906 652 892 652 874 c 256
 652 842 634 826 628 768 c 256
 624 734 620 704 618 682 c 256
 618 674 614 606 614 478 c 256
 614 248 614 198 596 154 c 256
 557 54 434 6 334 6 c 256
 244 6 216 14 176 42 c 256
EndSplineSet
EndChar
StartChar: K
Encoding: 75 75 46
GlifName: K_
Width: 682
VWidth: 0
Flags: HW
AnchorPoint: "bottom" 340 41 basechar 0
AnchorPoint: "top" 330 927 basechar 0
LayerCount: 2
Fore
SplineSet
81 870 m 256
 85 902 108 912.002 132 912.002 c 256
 142 912.002 146 896.002 146 864.002 c 258
 146 786.002 l 258
 143.676 702.346 141.352 665.489 141.352 622.45 c 256
 141.352 609.926 141.548 596.878 141.999 582.001 c 256
 143.999 520.001 147.999 496.001 151.999 454.001 c 257
 175.999 478.001 189.999 498.001 207.999 518.001 c 256
 259.999 572.001 273.999 588.001 283.999 602.001 c 256
 311.999 638.001 341.999 672.001 379.999 710.001 c 256
 385.999 716.001 419.999 754.001 433.999 772.001 c 256
 473.999 822.001 485.999 844.001 499.999 864.001 c 256
 506.999 874.001 513.999 880.001 533.999 880.001 c 256
 547.999 880.001 579.999 876.001 579.999 856.001 c 256
 579.999 827.001 518.999 750.001 505.999 730.001 c 256
 489.999 708.001 453.999 660.001 371.999 578.001 c 256
 251.999 458.001 247.999 438.001 215.999 398.001 c 257
 249.999 362.001 271.999 344.001 315.999 306.001 c 256
 369.999 258.001 393.999 238.001 449.999 192.001 c 256
 479.999 166.001 537.999 126.001 573.999 112.001 c 256
 631.999 88.001 663.999 72.001 663.999 52.001 c 256
 663.999 22.001 645.999 10.001 607.999 10.001 c 256
 553.999 10.001 511.999 32.001 467.999 60.001 c 256
 391.999 109.001 321.999 164.001 257.999 228.001 c 256
 219.999 266.001 199.999 286.001 159.999 320.001 c 257
 159.999 274.001 160.999 260.001 165.999 224.001 c 256
 173.999 168.001 197.999 88.001 197.999 56.001 c 256
 197.999 30.001 191.999 20.001 161.999 20.001 c 256
 141.999 20.001 121.999 32.001 111.999 54.001 c 256
 79.999 126.001 73.999 248.001 69.999 344.001 c 256
 64.666 453.334 63.7773 481.334 63.7773 539.111 c 256
 63.7773 568 64 604.333 64 662 c 256
 64 712 76 829 81 870 c 256
EndSplineSet
Validated: 524289
EndChar
StartChar: L
Encoding: 76 76 47
Width: 612
GlyphClass: 1
Flags: W
LayerCount: 2
Fore
SplineSet
94 876 m 0
 104 888 112 894 118 894 c 0
 150 894 162 880 162 852 c 0
 162 822 160 814 160 670 c 0
 160 588 158 506 158 430 c 0
 158 400 164 342 174 168 c 0
 176 132 176 108 176 84 c 1
 228 88 272 94 322 104 c 0
 354 112 430 122 466 122 c 0
 544 122 584 114 584 94 c 0
 584 66 562 48 548 48 c 0
 542 48 538 50 534 50 c 0
 490 50 424 36 364 22 c 0
 290 6 200 -20 142 -20 c 0
 122 -20 98 6 88 48 c 0
 80.857421875 78 79.8369140625 135.55078125 79.8369140625 201.702148438 c 0
 79.8369140625 228.163085938 80 256 80 284 c 2
 80 660 l 2
 80 716 80 720 78 752 c 0
 76 784 76 800 76 828 c 0
 76 848 84 866 94 876 c 0
EndSplineSet
Validated: 1
EndChar
StartChar: N
Encoding: 49 78 49
GlifName: N_
Width: 772
VWidth: 0
Flags: W
LayerCount: 2
Fore
SplineSet
242 468 m 256
 232 478 167.997 612 149.997 656 c 257
 147.997 628 145.997 612 145.997 548 c 256
 145.997 400 147.997 478 147.997 340 c 256
 149.997 222 161.997 140 181.997 98 c 256
 191.997 78 197.997 60 197.997 48 c 256
 197.997 20 169.997 -6 141.997 -6 c 256
 121.997 -6 107.997 2 101.997 22 c 256
 95.9971 60 93.9971 94 89.9971 122 c 256
 87.9971 132 71.9971 312 69.9971 322 c 256
 65.9971 354 63.9971 454 63.9971 616 c 256
 63.9971 734 65.9971 808 67.9971 838 c 256
 69.9971 868 73.9971 886 79.9971 892 c 256
 87.9971 898 95.9971 900 105.997 900 c 256
 131.997 900 153.997 880 167.997 842 c 256
 167.997 840 185.997 798 225.997 716 c 256
 255.997 658 261.997 614 313.997 520 c 256
 353.997 448 399.997 392 429.997 318 c 256
 451.997 266 583.997 94 607.997 94 c 256
 619.997 94 625.997 96 625.997 148 c 256
 625.997 166 619.997 180 617.997 196 c 256
 613.31 225.689 611.979 254.464 611.979 280.892 c 256
 611.979 315.583 614.272 346.231 614.272 369.6 c 256
 614.272 373.999 614.191 378.14 613.998 382.001 c 256
 603.998 598.001 595.998 752.001 585.998 786.001 c 256
 583.998 794.001 581.998 798.001 581.998 804.001 c 256
 581.998 830.001 593.998 854.001 613.998 878.001 c 256
 625.998 890.001 645.998 898.001 673.998 898.001 c 256
 691.998 898.001 701.998 898.001 705.998 896.001 c 256
 709.998 894.001 713.998 888.001 713.998 878.001 c 256
 713.998 866.001 707.998 852.001 697.998 840.001 c 256
 683.998 824.001 669.998 816.001 669.998 806.001 c 256
 669.998 736.001 677.998 656.001 681.998 584.001 c 256
 682.665 576.668 682.888 570.224 682.888 564.52 c 256
 682.888 553.112 681.999 544.668 681.999 538.001 c 256
 687.999 464.001 687.999 430.001 693.999 362.001 c 256
 694.529 354.575 694.743 347.923 694.743 341.797 c 256
 694.743 316.252 691.023 299.863 691.023 274.708 c 256
 691.023 260.404 692.227 243.267 696 220 c 256
 700 194 704 186 704 132 c 256
 704 76 698 46 688 14 c 256
 678 -12 648 -12 636 -12 c 256
 550 -12 422 146 364 262 c 256
 360 270 292 398 242 468 c 256
EndSplineSet
Validated: 524289
EndChar
StartChar: P
Encoding: 80 80 51
GlifName: P_
Width: 622
VWidth: 0
Flags: HW
AnchorPoint: "bottom" 179 41 basechar 0
AnchorPoint: "top" 294 927 basechar 0
LayerCount: 2
Fore
SplineSet
176 790 m 257
 176 729 174 621 174 591 c 256
 174 456 180 416 182 374 c 257
 231 382 277 391 331 418 c 256
 357 431 396 451 419 469 c 256
 443 489 492 532 492 562 c 256
 492 578 473 618 464 630 c 256
 433 671 401 692 348 730 c 256
 295 767 252 790 176 790 c 257
314 319 m 256
 284 307 220 295 186 290 c 257
 186 280 187 258 188 248 c 256
 190 218 189 182 194 156 c 256
 204 108 224 100 224 70 c 256
 224 36 209 -2 170 -2 c 256
 152 -2 136 18 130 40 c 256
 126 56 125 88 122 102 c 256
 112 144 112 170 106 210 c 256
 100 250 96 320 94 428 c 256
 92 546 90 622 90 650 c 256
 90 700 93 732 94 744 c 256
 96 766 98 776 98 786 c 257
 90 782 66 768 64 762 c 256
 62 756 62 738 62 706 c 256
 62 686 56 672 46 672 c 256
 36 672 22 712 22 754 c 256
 22 812 44 857 104 874 c 257
 106 884 104 894 106 898 c 256
 110 906 116 912 136 912 c 256
 152 912 168 910 172 906 c 256
 174 904 176 882 176 878 c 256
 253 872 324 838 384 800 c 256
 459 753 484 735 524 684 c 256
 555 643 574 610 574 578 c 256
 574 518 546 489 524 461 c 256
 484 408 372 341 314 319 c 256
EndSplineSet
EndChar
StartChar: Q
Encoding: 81 81 52
Width: 762
GlyphClass: 1
Flags: W
LayerCount: 2
Fore
SplineSet
231 173 m 0
 247 155 262 141 278 131 c 0
 309 112 325 92 374 92 c 0
 401 92 446 133 472 169 c 1
 468 179 452 195 442 209 c 0
 430 229 428 231 414 253 c 0
 408 261 362 315 362 325 c 0
 362 337 397 373 429 373 c 0
 453 373 483 313 499 291 c 0
 519 265 525 255 535 245 c 1
 573 299 586 353 597 447 c 0
 613.666992188 566.166992188 615.055664062 639.5 615.055664062 669.314453125 c 0
 615.055664062 675.27734375 615 679.5 615 682 c 0
 615 702 613 727 594 753 c 0
 572 778 531 800 492 806 c 0
 482 807 468 808 450 808 c 0
 437 808 422 808 405 806 c 0
 290 794 229 780 180 702 c 0
 156 663 143 620 135 569 c 0
 132.657226562 554.94140625 131.686523438 540.5390625 131.686523438 525.391601562 c 0
 131.686523438 514.680664062 132.171875 503.59765625 133 492 c 0
 137 427 147 339 172 286 c 0
 194 241 200 210 231 173 c 0
360 891 m 0
 384 896 414 902 451 902 c 0
 470 902 490 900 512 897 c 0
 582 887 610 877 650 833 c 0
 686 795 704 755 704 687 c 0
 704 599 702 569 692 501 c 0
 668 333 643 260 611 206 c 0
 601 192 600 182 590 168 c 1
 606 140 613 131 635 105 c 0
 645 91 669 73 701 51 c 0
 733 27 749 7 749 -7 c 0
 749 -17 738 -33 732 -37 c 0
 722 -45 710 -49 694 -49 c 0
 688 -49 684 -47 678 -47 c 0
 652 -43 648 -23 630 -11 c 0
 616 -1 608 11 594 23 c 0
 572 43 554 65 530 99 c 1
 498 65 426 3 364 3 c 0
 312 3 252 37 212 63 c 0
 172 89 156 127 130 167 c 0
 118 185 110 203 90 259 c 0
 58 351 50 437 50 483 c 0
 50 497 50 529 56 573 c 0
 68 669 76 679 98 735 c 0
 108 759 126 781 160 807 c 0
 220 853 270 875 360 891 c 0
EndSplineSet
Validated: 1
EndChar
StartChar: R
Encoding: 82 82 53
Width: 708
GlyphClass: 1
Flags: W
LayerCount: 2
Fore
SplineSet
298 767 m 0
 280 769 248.000976562 777 214.000976562 777 c 0
 196.000976562 777 176.000976562 779 162.000976562 781 c 1
 162.000976562 772.764648438 152.505859375 651.948242188 152.505859375 503.4453125 c 0
 152.505859375 471.623046875 152.94140625 438.529296875 154 405 c 1
 154 405 192 403 218 403 c 0
 276 403 384 427 454 487 c 0
 492 519 514 573 514 597 c 0
 514 621 502 641 486 661 c 0
 442 714 367 756 298 767 c 0
160.000976562 321 m 1
 162.000976562 263 167.000976562 145 192.000976562 91 c 0
 200.000976562 77 202.000976562 65 202.000976562 59 c 0
 202.000976562 49 192.000976562 35 176.000976562 19 c 0
 160.000976562 1 154.000976562 -1 144.000976562 -1 c 0
 136.000976562 -1 122.000976562 11 112.000976562 27 c 0
 94.0009765625 55 88.0009765625 83 84.0009765625 147 c 0
 82.0009765625 187 82.0009765625 217 74.0009765625 293 c 0
 70.4013671875 330.200195312 69.681640625 364.520507812 69.681640625 396.82421875 c 0
 69.681640625 418.360351562 70.001953125 439 70.001953125 459 c 0
 70.001953125 583 70.890625 635.888671875 70.890625 700.629882812 c 0
 70.890625 733 70.66796875 768.333007812 70.0009765625 817 c 1
 58.0009765625 827 44.0009765625 847 44.0009765625 861 c 0
 44.0009765625 885 74.0009765625 921 102.000976562 921 c 0
 130.000976562 921 164.000976562 885 166.000976562 871 c 1
 198.000976562 869 270.000976562 865 306.000976562 857 c 0
 342.000976562 849 376.000976562 835 394.000976562 829 c 0
 468.000976562 804 525.000976562 766 568.000976562 701 c 0
 580.000976562 677 602.000976562 623 602.000976562 601 c 0
 602.000976562 531 542.000976562 469 498.000976562 429 c 0
 460.000976562 395 402.000976562 369 370.000976562 357 c 1
 408.000976562 341 452.000976562 299 472.000976562 277 c 0
 504.000976562 241 562.000976562 161 588.000976562 133 c 0
 624.000976562 95 646.000976562 75 656.000976562 71 c 0
 666.000976562 67 670.000976562 57 670.000976562 45 c 0
 670.000976562 21 654.000976562 -5 628.000976562 -5 c 0
 589.000976562 -5 535.000976562 55 510.000976562 83 c 0
 498.000976562 95 468.000976562 131 448.000976562 157 c 0
 426.000976562 187 388.000976562 221 362.000976562 249 c 0
 320.000976562 293 270.000976562 311 160.000976562 321 c 1
EndSplineSet
Validated: 1
EndChar
StartChar: S
Encoding: 83 83 54
GlifName: S_
Width: 609
VWidth: 0
Flags: HW
AnchorPoint: "bottom" 310 41 basechar 0
AnchorPoint: "top" 334 937 basechar 0
LayerCount: 2
Fore
SplineSet
233 342 m 256
 211 350 121 388 101 420 c 256
 73 466 61 484 61 550 c 256
 61 636 119 726 143 760 c 256
 153 772 163 790 183 810 c 256
 214 841 295 896 337 896 c 256
 393 896 423 886 441 874 c 256
 447 870 455 864 467 858 c 256
 493 844 505 826 505 806 c 256
 505 786 489 768 465 768 c 256
 459 768 455 768 449 770 c 256
 403 794 387 798 343 798 c 256
 288 798 237 753 207 710 c 256
 173 662 151 628 151 554 c 256
 151 514 155 482 171 466 c 256
 193 442 243 424 277 414 c 256
 373 382 459 324 529 258 c 256
 559 230 563 204 563 192 c 256
 563 168 547 138 515 106 c 256
 461 52 290 -6 217 -6 c 256
 157 -6 81 26 81 66 c 256
 81 95 103 114 131 114 c 256
 137 114 153 114 163 108 c 256
 183 98 191 84 237 84 c 256
 275 84 337 98 363 108 c 256
 413 130 433 146 459 162 c 256
 465 166 467 168 467 176 c 256
 467 186 461 194 451 204 c 256
 333 320 293 324 233 342 c 256
EndSplineSet
EndChar
StartChar: T
Encoding: 84 84 55
Width: 730
GlyphClass: 1
Flags: W
LayerCount: 2
Fore
SplineSet
602 896 m 0
 608 900 618 904 634 904 c 0
 658 904 678 900 692 892 c 0
 704 884 712 874 712 862 c 0
 712 838 698 835 682 827 c 0
 668 819 640 815 602 813 c 0
 570 813 538 813 504 807 c 0
 446 799 440 797 396 793 c 1
 396 793 398 728 398 694 c 0
 402 520 412 334 418 250 c 0
 422 204 420 128 424 118 c 0
 428 108 432 100 438 96 c 0
 452 84 460 66 460 54 c 0
 460 38 448 22 420 10 c 0
 404 0 408 -2 400 -2 c 0
 394 -2 390 0 380 6 c 0
 346 22 343 68 339 118 c 0
 335 170 335 246 333 270 c 0
 329 318 318 438 318 630 c 0
 318 672.5 319.953125 708.359375 319.953125 737.578125 c 0
 319.953125 755.109375 319.25 770.25 317 783 c 1
 291 781 250 779 200 779 c 0
 76 779 28 780 28 830 c 0
 28 834 30 838 36 844 c 0
 42 854 46 862 54 864 c 0
 62 866 78 868 106 868 c 0
 138 868 148 858 182 858 c 0
 206 858 240 858 286 864 c 0
 296 866 310 866 328 868 c 0
 346 870 374 870 410 874 c 0
 446 878 484 880 520 882 c 0
 574 888 596 892 602 896 c 0
EndSplineSet
Validated: 1
EndChar
StartChar: U
Encoding: 85 85 56
GlifName: U_
Width: 670
VWidth: 0
Flags: HW
AnchorPoint: "bottom" 337 41 basechar 0
AnchorPoint: "top" 336 947 basechar 0
LayerCount: 2
Fore
SplineSet
62 792 m 256
 62 848 65.9990234375 882 70.9990234375 893 c 256
 78.9990234375 904 91.9990234375 911 110.999023438 911 c 256
 120.999023438 911 129.999023438 907 132.999023438 903 c 256
 141.999023438 892 144.999023438 864 144.999023438 820 c 256
 144.999023438 744 142.999023438 650 142.999023438 576 c 256
 142.999023438 475 153.999023438 320 188.999023438 228 c 256
 200.999023438 197 213.999023438 170 241.999023438 141 c 256
 281.999023438 99 313.999023438 74 339.999023438 74 c 256
 387.999023438 74 435.999023438 115 481.999023438 189 c 256
 512.999023438 240 521.999023438 268 527.999023438 330 c 256
 534.999023438 406 535.999023438 410 535.999023438 534 c 256
 535.999023438 768 519.999023438 812 492.999023438 842 c 256
 489.999023438 847 483.999023438 851 483.999023438 859 c 256
 483.999023438 870 494.999023438 882 505.999023438 894 c 256
 514.999023438 905 527.999023438 911 541.999023438 911 c 256
 553.999023438 911 590.999023438 876 601.999023438 798 c 256
 611.999023438 699 613.999023438 662 613.999023438 538 c 256
 613.999023438 520.909179688 614.032226562 505.537109375 614.032226562 491.361328125 c 256
 614.032226562 427.5703125 613.36328125 388 606 325 c 256
 597 252 591 219 548 142 c 256
 499 55 413 -7 334 -7 c 256
 274 -7 239 28 197 68 c 256
 161 103 135 144 112 200 c 256
 70 297 60 512 60 624 c 256
 60 675 62 742 62 792 c 256
EndSplineSet
EndChar
StartChar: V
Encoding: 86 86 57
Width: 692
GlyphClass: 1
Flags: W
LayerCount: 2
Fore
SplineSet
248 398 m 0
 280 322 272 340 310 264 c 0
 316 254 322 240 332 220 c 0
 346 188 346 188 352 178 c 0
 356 170 376 130 384 120 c 1
 394 138 394 152 404 176 c 0
 410 188 408 208 418 234 c 0
 442 298 458 352 468 396 c 0
 470 406 472 424 482 448 c 0
 498 492 508 536 514 554 c 0
 533 631 543 709 550 788 c 0
 554 836 550 846 556 876 c 0
 562 904 594 922 610 922 c 0
 633 922 650 875 650 856 c 0
 650 844 646 840 640 830 c 0
 634 820 628 800 622 768 c 0
 610 642 586 530 554 430 c 0
 540 384 536 336 510 264 c 0
 504 246 500 224 492 192 c 0
 480 140 462 84 444 30 c 0
 434 -1 423 -28 386 -28 c 0
 374 -28 364 -24 354 -16 c 0
 340 -6 334 16 318 50 c 0
 296 96 290 126 266 162 c 0
 258 172 242 202 208 274 c 0
 194 304 186 328 164 384 c 0
 144 438 118 510 98 608 c 0
 80 702 76 736 42 800 c 0
 32 816 28 832 28 846 c 0
 28 864 56 894 74 894 c 0
 127 894 149 786 156 750 c 0
 188 618 204 546 208 530 c 0
 224 456 220 464 248 398 c 0
EndSplineSet
Validated: 1
EndChar
StartChar: W
Encoding: 87 87 58
Width: 878
GlyphClass: 1
Flags: W
LayerCount: 2
Fore
SplineSet
576 126 m 0
 552 168 542 220 532 242 c 0
 518 274 484 324 474 378 c 0
 464 428 440 474 426 540 c 1
 412 502 404 470 398 436 c 0
 390 394 382 360 372 328 c 0
 366 308 362 286 356 260 c 0
 350 234 344 212 338 194 c 0
 332 174 326 148 320 116 c 0
 310 62 300 44 268 12 c 0
 262 6 258 6 250 6 c 0
 240 6 234 8 230 16 c 0
 192 76 178 106 160 184 c 0
 150 232 126 354 116 424 c 0
 106 484 102 522 98 536 c 0
 84 630 78 714 62 776 c 0
 52 812 34 830 34 862 c 0
 34 888 58 914 76 914 c 0
 111 914 128 871 132 842 c 0
 136 810 156 750 162 688 c 0
 172 584 180 538 212 370 c 0
 226 296 232 252 234 246 c 0
 240 222 246 198 252 188 c 1
 258 202 260 220 264 242 c 0
 268 262 270 282 278 300 c 0
 286 318 290 332 296 354 c 0
 306 390 310 412 320 448 c 0
 328 474 330 488 338 514 c 0
 346 540 348 552 358 578 c 0
 368 610 374 636 388 658 c 0
 402 679 418 691 443 691 c 0
 444 691 445 691 446 690 c 0
 460 684 484 628 516 528 c 0
 532 474 546 440 552 428 c 0
 566 394 582 336 594 300 c 0
 604 274 628 232 636 214 c 0
 650 176 670 142 680 136 c 1
 688 190 680 218 690 318 c 0
 696 372 710 478 718 564 c 0
 726 644 722 688 724 764 c 0
 728 868 724 874 768 896 c 0
 782 904 798 906 808 906 c 0
 814 906 816 906 818 904 c 0
 830 884 838 868 838 862 c 0
 838 856 836 844 826 828 c 0
 801 779 784 581 782 528 c 0
 780 472 768 418 762 284 c 0
 760 242 758 204 758 172 c 0
 758 156 760 138 762 124 c 0
 764 118 764 112 764 102 c 0
 764 90 760 74 750 58 c 0
 742 46 724 -14 714 -14 c 0
 706 -14 694 -6 674 8 c 0
 632 40 600 82 576 126 c 0
EndSplineSet
Validated: 33
EndChar
StartChar: X
Encoding: 59 88 59
GlifName: X_
Width: 738
VWidth: 0
Flags: W
LayerCount: 2
Fore
SplineSet
606 854 m 256
 626 886 642 908 666 908 c 256
 682 908 692 892 692 880 c 256
 692 875.556 692.79 869.136 692.79 861.794 c 256
 692.79 852.617 691.556 842 686 832 c 256
 676 814 668 812 662 808 c 256
 658 806 502 504 488 476 c 256
 478 458 462 428 458 420 c 257
 468 410 466 412 502 366 c 256
 504 364 506 364 510 358 c 256
 516 350 524 336 536 318 c 256
 576 258 586 240 606 218 c 256
 670 148 664 168 690 140 c 256
 700 130 704 114 704 92 c 256
 704 63 693 28 658 28 c 256
 636 28 614 52 580 106 c 256
 540 166 526 186 488 240 c 256
 468 268 440 310 412 342 c 257
 348 250 272 134 216 30 c 256
 208 18 208 10 208 6 c 256
 208 2 214 -4 224 -10 c 256
 236 -20 234 -22 234 -32 c 256
 234 -46 202 -78 188 -78 c 256
 178 -78 128 -55 128 -48 c 256
 128 -42 126 -32 124 -22 c 256
 122 -12 120 -4 120 2 c 256
 120 12 122 20 128 30 c 256
 146 62 144 62 166 106 c 256
 210 198 230 232 296 328 c 256
 313 349 336 392 346 416 c 257
 336 430 324 446 312 468 c 256
 266 542 234 568 188 642 c 256
 142 718 110 752 70 796 c 256
 52 816 26 830 26 852 c 256
 26 860 30 866 38 874 c 256
 48 888 60 906 72 906 c 256
 84 906 104 896 128 870 c 256
 216 774 332 562 398 488 c 257
 412 512 416 522 428 544 c 256
 468 618 516 710 554 776 c 256
 564 790 584 818 606 854 c 256
EndSplineSet
Validated: 524289
EndChar
StartChar: Y
Encoding: 60 89 60
GlifName: Y_
Width: 660
VWidth: 0
Flags: W
LayerCount: 2
Fore
SplineSet
490 800 m 256
 514 854 520 880 554 914 c 256
 578 938 600 950 620 950 c 256
 642 948 654 940 654 928 c 256
 654 916 646 902 632 888 c 256
 620 874 604 854 590 830 c 256
 554 768 554 746 526 678 c 256
 516 654 510 630 484 574 c 256
 474 548 464 524 456 496 c 256
 452 480 450 460 444 442 c 256
 438 424 432 408 428 392 c 256
 424 376 422 352 418 322 c 256
 412 266 400 188 400 118 c 256
 400 80 406 54 416 44 c 256
 426 34 432 24 432 14 c 256
 432 -8 393 -38 372 -38 c 256
 362 -38 356 -36 350 -30 c 256
 344 -24 340 -12 332 4 c 256
 322 28 316 56 316 88 c 256
 316 106 318 150 324 220 c 256
 328 264 330 296 330 316 c 256
 330 344 334 354 338 380 c 257
 331 378 325 378 319 378 c 256
 298 378 282 389 266 406 c 256
 232 446 222 470 192 510 c 256
 162 548 152 582 128 626 c 256
 122 636 114 662 90 708 c 256
 52 782 18 816 18 864 c 256
 18 890 32 902 62 902 c 256
 82 902 88 898 90 890 c 256
 92 884 96 878 106 862 c 256
 114 852 134 818 144 792 c 256
 154 768 184 720 202 684 c 256
 234 624 236 624 276 550 c 256
 288 528 304 510 320 496 c 256
 336 480 352 460 354 450 c 257
 372 508 390 550 414 608 c 256
 440 670 468 752 490 800 c 256
EndSplineSet
Validated: 1
EndChar
StartChar: Z
Encoding: 90 90 61
Width: 786
GlyphClass: 1
Flags: W
LayerCount: 2
Fore
SplineSet
695 874 m 0
 695 859 693 846 686 834 c 0
 668 804 659 789 639 751 c 0
 569 638 504 555 424 445 c 0
 366 365 346 333 287 252 c 0
 262 217 201 123 185 96 c 1
 201 88 229 82 255 82 c 0
 354 82 397 87 435 91 c 0
 506 99 579 110 641 110 c 0
 657 110 681 104 698 101 c 0
 748 95 764 83 764 66 c 0
 764 36 720 19 696 17 c 0
 536 7 376 0 208 0 c 0
 157 2 125 4 113 6 c 0
 91 10 61 37 61 59 c 0
 61 78 79 112 115 154 c 0
 180 227 216 280 235 311 c 0
 273 365 306 417 348 479 c 0
 434 606 543 728 582 826 c 1
 543 824 501 819 463 812 c 0
 396 801 327 796 263 796 c 0
 152 796 83 807 55 831 c 0
 43 841 38 853 38 862 c 0
 38 870 53 892 60 896 c 0
 66 897 76 899 93 899 c 0
 121 899 128 892 145 889 c 0
 175 882 201 880 293 880 c 0
 387 880 426 885 446 889 c 0
 483 895 518 904 558 906 c 0
 568 906 578 907 587 907 c 0
 644 907 674 899 683 896 c 0
 690 893 695 882 695 874 c 0
EndSplineSet
Validated: 1
EndChar
StartChar: bracketleft
Encoding: 62 91 62
GlifName: bracketleft
Width: 456
VWidth: 0
Flags: W
LayerCount: 2
Fore
SplineSet
167 402 m 256
 173 340 179 31.999 179 -84.001 c 256
 179 -138.001 177 -192.001 175 -230.001 c 257
 205 -228.001 252 -222.001 296 -222.001 c 256
 322 -222.001 382 -222.001 396 -226.001 c 256
 404 -228.001 408 -230.001 410 -238.001 c 256
 414 -248.001 416 -256.001 416 -262.001 c 256
 416 -272.001 412 -283.001 402 -287.001 c 256
 392 -291.001 374 -299.001 344 -303.001 c 256
 292 -309.001 238 -311.001 192 -315.001 c 256
 159 -318.001 140 -324.001 130 -324.001 c 256
 112 -324.001 78 -291.001 78 -272.001 c 256
 78 -270.001 78 -268.001 80 -266.001 c 256
 94 -232.001 100 -164.001 100 -66.001 c 256
 100 47.999 96 307.999 90 383.999 c 256
 86 439.999 76 689.999 76 753.999 c 256
 76 769.999 75 786.499 75 803.499 c 256
 75 820.499 76 837.999 80 855.999 c 256
 88 891.999 94 915.999 104 925.999 c 256
 109 930.999 115 932.999 123 932.999 c 256
 129 932.999 136 931.999 144 929.999 c 256
 166 923.999 210 923.999 280 923.999 c 256
 338 923.999 378 921.999 394 915.999 c 256
 410 909.999 418 899.999 418 881.999 c 256
 418 865.999 410 859.999 394 853.999 c 256
 378 847.999 340 845.999 284 845.999 c 258
 210 845.999 l 258
 181 845.999 164 845.999 163 841.999 c 256
 161 838.666 160.333 832.666 160.333 824.962 c 256
 160.333 809.555 163 787.332 163 765.999 c 256
 163 712.545 161.215 640.049 161.215 568.311 c 256
 161.215 508.528 162.454 449.272 167 402 c 256
EndSplineSet
Validated: 524289
Substitution2: "Casesensitiveforms subtable" bracketleft.case
EndChar
StartChar: backslash
Encoding: 92 92 63
GlifName: backslash
Width: 616
VWidth: 0
Flags: W
LayerCount: 2
Fore
SplineSet
410 324 m 256
 442 274 468 220 518 172 c 256
 574 118 604 84 604 68 c 256
 604 52 586 36 576 36 c 256
 548 36 546 38 536 48 c 256
 526 58 524 70 496 92 c 256
 422 152 388 220 360 266 c 256
 344 294 268 396 248 424 c 256
 222 458 186 528 152 602 c 256
 146 614 132 654 100 716 c 256
 68 778 44 820 32 834 c 256
 26 840 24 844 24 852 c 256
 24 871 49 902 68 902 c 256
 89 902 132 841 144 824 c 256
 156 798 174 764 192 722 c 256
 242 600 248 586 310 478 c 256
 344 424 378 374 410 324 c 256
EndSplineSet
Validated: 1
EndChar
StartChar: bracketright
Encoding: 93 93 64
Width: 502
GlyphClass: 1
Flags: W
LayerCount: 2
Fore
SplineSet
44 902 m 0
 48 912 54 914 64 914 c 0
 80 914 96 898 126 896 c 0
 148 894 252 894 270 894 c 0
 272 894 288 896 318 898 c 0
 346 900 360 902 366 902 c 0
 386 902 400 894 406 882 c 0
 412 870 414 838 414 792 c 0
 414 778 412 724 410 628 c 0
 406 474 406 376 406 336 c 0
 406 262 412 63 412 -43 c 0
 412 -151 414 -183 422 -217 c 0
 426 -231 432 -241 432 -259 c 0
 432 -279 432 -291 422 -303 c 0
 406 -325 360 -325 320 -325 c 2
 172 -325 l 2
 116 -325 76 -315 58 -299 c 0
 42 -285 32 -279 32 -265 c 0
 32 -245 46 -231 58 -231 c 0
 60 -231 62 -231 66 -233 c 0
 78 -239 118 -243 244 -243 c 0
 278 -243 328 -243 334 -241 c 1
 334 -225 332 -215 332 -167 c 0
 332 -23 331 -33 325 145 c 0
 325 241 327 452 327 558 c 0
 327 624 333 681 335 753 c 2
 335 817 l 1
 286 817 l 2
 236 814 191 808 151 808 c 0
 130 808 110 809 92 815 c 0
 58 825 40 846 40 856 c 0
 40 864 40 894 44 902 c 0
EndSplineSet
Validated: 1
Substitution2: "Single Substitution lookup 1-1" bracketright.case
EndChar
StartChar: asciicircum
Encoding: 94 94 65
Width: 470
GlyphClass: 1
Flags: W
LayerCount: 2
Fore
SplineSet
198 842 m 0
 214 866 224 880 224 886 c 0
 224 896 230 904 242 914 c 0
 258 924 268 928 278 928 c 0
 298 928 300 910 308 892 c 0
 312 880 324 854 336 820 c 0
 348 786 356 762 360 746 c 0
 365 727 394 639 404 624 c 0
 416 602 428 586 438 574 c 0
 454 550 462 540 462 516 c 0
 462 496 454 484 428 484 c 0
 414 484 404 484 398 488 c 0
 392 492 386 502 376 514 c 0
 360 540 348 552 346 556 c 0
 336 580 328 600 310 648 c 0
 284 712 280 730 258 778 c 1
 252 772 248 762 238 750 c 0
 206 704 182 670 164 638 c 0
 148 610 134 568 124 520 c 0
 122 510 120 494 116 488 c 0
 112 482 86 476 70 476 c 0
 36 476 18 490 18 524 c 0
 18 548 48 604 68 636 c 0
 102 690 90 688 130 746 c 0
 170 806 156 784 198 842 c 0
EndSplineSet
Validated: 1
EndChar
StartChar: underscore
Encoding: 95 95 66
Width: 624
GlyphClass: 1
Flags: W
LayerCount: 2
Fore
SplineSet
347 79 m 0
 369 79 447 75 471 75 c 0
 509 75 529 85 549 85 c 0
 567 85 595 79 595 57 c 0
 595 23 589 22 573 12 c 0
 553 0 537 -2 527 -2 c 0
 497 -2 427 -1 331 -1 c 0
 271 -1 167 -8 66 -8 c 0
 50 -8 34 -6 28 -2 c 0
 18 6 12 29 12 43 c 0
 12 75 26 81 54 81 c 0
 62 81 66 81 72 79 c 0
 92 75 116 73 142 73 c 0
 210 73 288 79 347 79 c 0
EndSplineSet
Validated: 1
EndChar
StartChar: grave
Encoding: 96 96 67
Width: 326
GlyphClass: 1
Flags: W
LayerCount: 2
Fore
SplineSet
38 910 m 0
 48 916 54 920 64 920 c 0
 80 920 92 914 100 902 c 0
 102 900 108 892 120 878 c 0
 132 864 146 850 156 838 c 0
 182 806 198 796 230 774 c 0
 246 764 282 738 296 728 c 0
 314 714 320 700 320 694 c 0
 320 675 285 658 268 658 c 0
 256 658 238 664 222 676 c 0
 168 712 124 744 98 772 c 0
 46 826 18 860 18 880 c 0
 18 890 26 900 38 910 c 0
EndSplineSet
Validated: 1
EndChar
StartChar: a
Encoding: 68 97 68
GlifName: a
Width: 533
VWidth: 0
Flags: W
LayerCount: 2
Fore
SplineSet
274 230 m 256
 246 230 208 196 186 170 c 256
 168 148 150 110 150 98 c 256
 150 76 176 74 236 74 c 256
 287 74 340 93 380 124 c 257
 380 140 376 162 366 182 c 256
 356 206 308 230 274 230 c 256
224 548 m 256
 242 550 258 552 274 552 c 256
 306 552 322 550 356 538 c 256
 396 520 406 518 428 498 c 256
 480 446 484 367 484 298 c 256
 484 216 468 116 468 52 c 256
 468 38 464 18 460 12 c 256
 456 6 432 -6 416 -6 c 256
 400 -6 392 10 388 28 c 257
 340 2 266 -12 200 -12 c 256
 162 -12 116 -8 102 0 c 256
 84 10 56 74 56 96 c 256
 56 152 86 192 120 228 c 256
 158 268 200 314 296 314 c 256
 338 314 380 290 402 264 c 257
 402 282 404 290 404 308 c 256
 404 356 402 386 392 404 c 256
 378 438 324 462 274 462 c 256
 202 462 162 448 126 416 c 256
 100 394 102 368 62 368 c 256
 52 368 42 376 42 404 c 256
 42 422 44 434 50 444 c 256
 92 508 138 538 224 548 c 256
EndSplineSet
Validated: 1
Substitution2: "cv01CharacterVariants01lookup5 subtable" a.cv01
EndChar
StartChar: b
Encoding: 98 98 69
GlifName: b
Width: 600
VWidth: 0
Flags: HW
AnchorPoint: "bottom" 300 41 basechar 0
AnchorPoint: "top" 310 585 basechar 0
LayerCount: 2
Fore
SplineSet
478 314 m 256
 478 398 472 416 440 438 c 256
 434 442 424 442 412 442 c 256
 366 442 326 418 298 392 c 256
 278 374 268 360 258 350 c 256
 193 282 178 220 178 130 c 256
 178 114 184 84 188 72 c 257
 196 68 212 66 240 66 c 256
 272 66 296 82 326 96 c 256
 408 133 478 222 478 314 c 256
48 892 m 256
 58 902 72 908 82 908 c 256
 114 908 130 869 130 842 c 256
 130 832 136 778 136 684 c 256
 136 665.333 135.777 628 135.777 584.148 c 256
 135.777 496.444 136.666 382.667 141.999 340 c 257
 161.999 368 163.999 372 213.999 424 c 256
 267.999 480 295.999 508 351.999 526 c 256
 375.999 534 397.999 538 413.999 538 c 256
 470.999 538 529.999 482 551.999 432 c 256
 559.999 414 559.999 380 559.999 336 c 256
 559.999 286 557.999 254 551.999 236 c 256
 505.999 131 467.999 75 369.999 18 c 256
 303.999 -20 281.999 -22 199.999 -22 c 256
 143.999 -22 113.999 -18 107.999 -10 c 256
 101.999 -2 93.999 54 81.999 158 c 256
 65.999 284 49.999 286 49.999 692 c 256
 49.999 788 47.999 846 39.999 862 c 256
 38.0762 865.205 37.1807 868.41 37.1807 871.615 c 256
 37.1807 878.41 41.2051 885.205 48 892 c 256
EndSplineSet
EndChar
StartChar: c
Encoding: 99 99 70
Width: 504
GlyphClass: 1
Flags: W
LayerCount: 2
Fore
SplineSet
100 80 m 0
 68 130 50 186 50 234 c 0
 50 240 52 260 52 270 c 0
 62 398 96 470 128 504 c 0
 156 534 208 546 256 546 c 0
 294 546 334 522 350 506 c 0
 386 470 404 458 404 426 c 0
 404 402 392 384 364 372 c 0
 348 364 336 360 326 360 c 0
 316 360 310 366 310 376 c 0
 310 386 322 394 322 402 c 0
 322 436 277 458 248 458 c 0
 212 458 170 426 158 378 c 0
 146 324 140 276 140 240 c 0
 140 179 196 78 264 78 c 0
 302 78 342 92 368 106 c 0
 426 138 442 148 464 148 c 0
 478 148 490 140 490 126 c 0
 490 116 486 102 468 84 c 0
 454 68 434 52 416 42 c 0
 380 20 330 -16 256 -16 c 0
 182 -16 136 24 100 80 c 0
EndSplineSet
Validated: 1
EndChar
StartChar: d
Encoding: 71 100 71
GlifName: d
Width: 586
VWidth: 0
Flags: W
LayerCount: 2
Fore
SplineSet
252 432 m 256
 178 432 128 328 128 222 c 256
 128 144 136 102 192 102 c 256
 246 102 324 248 380 354 c 257
 360 374 310 432 252 432 c 256
42 182 m 256
 42 346 98 520 264 520 c 256
 316 520 356 496 388 460 c 257
 378 602 370 680 370 794 c 256
 370 842 390 898 424 898 c 256
 474 898 478 834 478 784 c 256
 478 762 482 708 482 618 c 256
 482 436 494 350 518 178 c 256
 524 136 530 60 542 28 c 256
 546 20 552 16 552 6 c 256
 552 -32 520 -36 506 -36 c 256
 436 -36 448 92 418 246 c 257
 322 84 280 2 176 2 c 256
 102 2 42 92 42 182 c 256
EndSplineSet
Validated: 1
EndChar
StartChar: e
Encoding: 101 101 72
GlifName: e
Width: 509
VWidth: 0
Flags: HW
AnchorPoint: "bottom" 280 24 basechar 0
AnchorPoint: "top" 250 633 basechar 0
LayerCount: 2
Fore
SplineSet
134 312 m 257
 206 327 304 353 366 388 c 257
 335 423 294 468 244 468 c 256
 228 468 212 462 200 452 c 256
 170 432 134 358 134 312 c 257
154 533 m 256
 172 548 202 560 230 560 c 256
 288 560 350 524 394 484 c 256
 432 448 458 422 458 380 c 256
 458 356 424 330 394 312 c 256
 380 302 326 276 302 266 c 256
 248 248 188 228 136 212 c 257
 140 160 158 114 182 90 c 256
 198 74 228 62 288 62 c 256
 316 62 354 86 370 100 c 256
 380 110 416 126 436 126 c 256
 452 126 470 112 470 98 c 256
 470 76 418 44 404 32 c 256
 362 -4 336 -18 284 -18 c 256
 198 -18 151 -11 120 22 c 256
 62 84 41 146 41 250 c 256
 41 403 78 469 154 533 c 256
EndSplineSet
Validated: 1
EndChar
StartChar: f
Encoding: 73 102 73
GlifName: f
Width: 548
VWidth: 0
Flags: W
LayerCount: 2
Fore
SplineSet
106 386 m 256
 94 384 76 382 64 382 c 256
 38 382 22 398 22 422 c 256
 22 438 34 466 44 474 c 256
 52 480 78 480 96 480 c 256
 148 480 179 482 206 482 c 257
 201 533 200 584 200 688 c 256
 200 760 202 814 226 862 c 256
 262 936 296 946 328 946 c 256
 364 946 454 900 472 868 c 256
 486 844 516 790 516 746 c 256
 516 704 504 672 472 672 c 256
 460 672 452 678 448 694 c 256
 432 778 386 842 330 842 c 256
 281 842 278 676 278 640 c 256
 278 612 282 542 286 492 c 257
 374 508 425 522 474 522 c 256
 494 522 512 492 512 476 c 256
 512 456 474 438 454 438 c 256
 442 438 416 428 396 424 c 256
 374 420 329 414 295 410 c 257
 313 288 322 184 322 60 c 256
 322 26 322 -20 310 -30 c 256
 302 -38 302 -40 298 -40 c 256
 278 -40 232 4 232 20 c 256
 232 26 232 34 234 42 c 256
 236 50 240 70 240 102 c 256
 240 144 236 192 234 246 c 256
 232 300 226 326 224 338 c 256
 220 362 218 379 216 398 c 257
 174 393 141 391 106 386 c 256
EndSplineSet
Validated: 1
EndChar
StartChar: g
Encoding: 103 103 74
Width: 521
GlyphClass: 1
Flags: W
LayerCount: 2
Fore
SplineSet
324 194 m 0
 324 184 348 164 371 136 c 0
 427 71 461 -3 461 -98 c 0
 461 -194 399 -267 323 -267 c 0
 258 -267 212 -246 157 -201 c 0
 81 -139 63 -112 63 -53 c 0
 63 -15 182 70 241 70 c 0
 268 70 286 54 286 33 c 0
 286 17 275 2 257 -8 c 0
 238 -17 167 -53 159 -68 c 1
 172 -116 272 -174 318 -174 c 0
 346 -174 376 -155 376 -96 c 0
 376 -60 363 0 311 70 c 0
 260 138 229 157 229 187 c 0
 229 194 230 201 231 209 c 1
 207 199 181 194 150 194 c 0
 71 194 46 243 46 298 c 0
 46 337 57 379 106 443 c 0
 184 546 217 563 261 563 c 0
 306 563 350 530 396 495 c 0
 442 461 477 409 477 343 c 0
 477 329 467 326 454 326 c 0
 446 326 438 327 430 327 c 0
 425 327 420 329 416 333 c 1
 409 322 400 311 388 300 c 0
 337 250 324 216 324 194 c 0
356 421 m 1
 328 449 274 475 261 475 c 0
 246 475 220 457 178 400 c 0
 140 348 133 324 133 303 c 0
 133 291 137 284 151 284 c 0
 224 284 269 326 356 421 c 1
EndSplineSet
Validated: 1
Substitution2: "'cv02' Character Variants 02 lookup 6-1" g.cv02
EndChar
StartChar: h
Encoding: 104 104 75
GlifName: h
Width: 562
VWidth: 0
Flags: HW
AnchorPoint: "bottom" 290 41 basechar 0
AnchorPoint: "top" 288 919 basechar 0
LayerCount: 2
Fore
SplineSet
534 52 m 256
 534 32 505.998 -1.99707 485.998 -1.99707 c 256
 429.998 -1.99707 407.998 40.0029 407.998 122.003 c 256
 407.998 232.003 403.998 190.003 403.998 330.003 c 256
 403.998 345.432 404.161 359.064 404.161 370.668 c 256
 404.161 399.677 403.141 416.003 395.998 416.003 c 256
 340.998 416.003 234.998 256.003 211.998 214.003 c 256
 177.998 150.003 171.998 130.003 161.998 48.0029 c 256
 157.998 18.0029 147.998 -43.9971 123.998 -43.9971 c 256
 117.998 -43.9971 103.998 -41.9971 85.998 -31.9971 c 256
 67.998 -21.9971 63.998 106.003 63.998 170.003 c 256
 63.998 334.003 66.665 466.003 66.665 567.78 c 256
 66.665 618.669 65.998 662.002 63.998 698.002 c 256
 59.998 766.002 53.998 808.002 43.998 826.002 c 256
 39.998 836.002 37.998 842.002 37.998 852.002 c 256
 37.998 874.002 53.998 892.002 77.998 892.002 c 256
 125.998 892.002 123.998 846.002 133.998 792.002 c 256
 151.998 680.002 157.998 626.002 157.998 486.002 c 256
 157.998 411.335 157.109 371.335 157.109 338.149 c 256
 157.109 321.557 157.332 306.668 157.999 290.001 c 256
 161.999 290.001 171.999 308.001 191.999 340.001 c 256
 227.999 408.001 338.999 520.001 425.999 520.001 c 256
 447.999 520.001 463.999 508.001 469.999 494.001 c 256
 473.999 484.001 485.999 410.001 487.999 378.001 c 256
 488.666 365.334 488.889 348.89 488.889 330.89 c 256
 488.889 294.89 488 252.667 488 222 c 256
 488 164 488 100 498 92 c 256
 502 88 534 76 534 52 c 256
EndSplineSet
EndChar
StartChar: i
Encoding: 105 105 76
GlifName: i
Width: 252
VWidth: 0
Flags: HW
AnchorPoint: "bottom" 143 41 basechar 0
AnchorPoint: "top" 118 859 basechar 0
LayerCount: 2
Fore
SplineSet
46 792 m 256
 46 808 66 826 84 826 c 256
 108 826 124 818 130 810 c 256
 138 800 154 788 168 778 c 256
 186 766 192 752 192 722 c 256
 192 700 158 686 136 686 c 256
 106 686 88 706 74 724 c 256
 58 742 46 760 46 792 c 256
97 33 m 256
 94 57 94 86 93 114 c 256
 87 275 82 428 75 464 c 256
 73 473 71 485 71 498 c 256
 71 529 91 547 116 547 c 256
 145 547 157 507 161 462 c 256
 170 372 175 239 175 174 c 256
 175 136 183 80 187 67 c 256
 189 62 197 46 197 32 c 256
 197 14 192 -3 147 -3 c 256
 118 -3 100 12 97 33 c 256
EndSplineSet
Validated: 1
EndChar
StartChar: j
Encoding: 106 106 77
GlifName: j
Width: 251
VWidth: 0
Flags: HW
AnchorPoint: "bottom" 110 -229 basechar 0
AnchorPoint: "top" 132 871 basechar 0
LayerCount: 2
Fore
SplineSet
141 656 m 256
 119 656 81 714 57 742 c 256
 41 762 33 782 33 794 c 256
 33 816 63 836 95 836 c 256
 123 836 177 748 189 740 c 256
 199 734 205 722 205 700 c 256
 205 660 177 656 141 656 c 256
85 464 m 256
 85 496 85 542 107 542 c 256
 119 542 143 534 153 524 c 256
 161 516 167 484 169 416 c 256
 169 302 171 176 185 74 c 256
 193 20 207 -30 207 -80 c 256
 207 -160 189 -220 155 -254 c 256
 145 -264 125 -268 107 -268 c 256
 53 -268 -5 -238 -37 -228 c 256
 -69 -218 -83 -198 -83 -174 c 256
 -83 -152 -61 -142 -41 -142 c 256
 -13 -142 47 -178 79 -178 c 256
 117 -178 121 -142 121 -96 c 256
 121 -42 113 -20 103 74 c 256
 93 192 85 370 85 464 c 256
EndSplineSet
Validated: 1
EndChar
StartChar: k
Encoding: 107 107 78
GlifName: k
Width: 567
VWidth: 0
Flags: HW
AnchorPoint: "bottom" 310 41 basechar 0
AnchorPoint: "top" 268 907 basechar 0
LayerCount: 2
Fore
SplineSet
99 884 m 256
 135 884 139 862 139 804 c 256
 139 758 141 724 147 692 c 256
 157 636 161 454 167 388 c 256
 173 334 171 316 173 298 c 257
 208 319 304 390 325 422 c 256
 335 434 427 500 441 500 c 256
 459 500 465 492 465 470 c 256
 465 438 457 446 425 410 c 256
 405 386 349 328 311 292 c 256
 285 268 245 238 229 224 c 257
 247 206 289 162 335 130 c 256
 359 118 413 84 437 78 c 256
 447 74 463 74 485 74 c 258
 525 74 l 258
 539 74 553 62 553 48 c 256
 553 34 539 16 527 10 c 256
 511 4 475 -10 455 -10 c 256
 451 -10 441 -10 421 -8 c 256
 353 4 287 34 225 86 c 256
 205 102 187 112 181 116 c 257
 181 106 181 92 183 80 c 256
 185 62 197 44 197 34 c 256
 197 4 159 -10 137 -10 c 256
 111 -10 97 2 95 32 c 256
 93 68 93 82 93 100 c 256
 93 110 89 162 87 260 c 256
 85 410 71 472 71 632 c 256
 71 642 53 784 53 826 c 256
 53 850 67 884 99 884 c 256
EndSplineSet
EndChar
StartChar: l
Encoding: 108 108 79
GlifName: l
Width: 290
VWidth: 0
Flags: HW
AnchorPoint: "bottom" 170 41 basechar 0
AnchorPoint: "top" 128 983 basechar 0
LayerCount: 2
Fore
SplineSet
235.005 86 m 256
 255.005 86 283.006 81.999 283.006 61.999 c 256
 283.006 31.999 222.006 -4.00098 197.006 -12.001 c 256
 187.006 -16.001 181.006 -16.001 179.006 -16.001 c 256
 169.006 -16.001 155.006 -14.001 139.006 -4.00098 c 256
 91.0059 19.999 73.0059 63.999 65.0059 115.999 c 256
 61.0059 147.999 61.0059 297.984 61.0059 437.999 c 256
 61.0059 622.01 63.0059 727.999 63.0059 889.999 c 256
 63.0059 915.999 73.0059 925.999 103.006 925.999 c 256
 119.006 925.999 139.006 915.999 145.006 897.999 c 256
 146.483 894.305 146.869 870.961 146.869 836.84 c 256
 146.869 799.517 146.407 749.298 146.407 697.794 c 256
 146.407 668.918 146.553 639.638 147.006 612 c 256
 147.189 600.623 147.271 589.431 147.271 578.455 c 256
 147.271 480.78 140.739 400.22 140.739 358.545 c 256
 140.739 353.862 140.821 349.67 141.005 346 c 256
 145.005 200 139.005 118 171.005 80 c 256
 177.005 72 187.005 70 197.005 70 c 256
 203.005 70 219.005 86 235.005 86 c 256
EndSplineSet
EndChar
StartChar: m
Encoding: 109 109 80
Width: 886
GlyphClass: 1
Flags: W
LayerCount: 2
Fore
SplineSet
745 562 m 0
 764 561 781.001953125 548.004882812 788.001953125 537.004882812 c 0
 796.001953125 526.004882812 798.001953125 517.004882812 801.001953125 507.004882812 c 0
 805.001953125 488.004882812 807.001953125 467.004882812 808.001953125 443.004882812 c 0
 808.622070312 427.809570312 808.857421875 411.4609375 808.857421875 394.315429688 c 0
 808.857421875 356.171875 807.69140625 314.087890625 807.001953125 272.00390625 c 0
 806.77734375 258.51953125 806.653320312 245.084960938 806.653320312 231.916992188 c 0
 806.653320312 186.494140625 808.125976562 144.239257812 812.001953125 114.00390625 c 0
 814.001953125 99.00390625 821.001953125 77.00390625 828.001953125 76.00390625 c 0
 844.001953125 72.00390625 856.001953125 67.00390625 856.001953125 45.00390625 c 0
 856.001953125 21.00390625 837.001953125 -2.99609375 813.001953125 -2.99609375 c 0
 749.001953125 -2.99609375 736.001953125 51.00390625 728.001953125 102.00390625 c 0
 722.921875 137.563476562 721.528320312 179.443359375 721.528320312 223.438476562 c 0
 721.528320312 240.067382812 721.727539062 256.998046875 722.001953125 274.00390625 c 0
 722.416015625 299.270507812 722.658203125 324.537109375 722.658203125 348.595703125 c 0
 722.658203125 382.620117188 722.172851562 414.228515625 721.000976562 440.002929688 c 2
 721.000976562 450.002929688 l 1
 688.000976562 417.002929688 636.000976562 338.002929688 613.000976562 299.002929688 c 0
 584.000976562 248.002929688 557.000976562 193.002929688 531.000976562 154.002929688 c 0
 518.000976562 134.002929688 505.000976562 116.002929688 492.000976562 102.002929688 c 0
 479.000976562 89.0029296875 465.000976562 73.0029296875 437.000976562 73.0029296875 c 0
 380.000976562 73.0029296875 361.000976562 117.002929688 356.000976562 167.002929688 c 0
 354.829101562 179.01171875 354.34375 191.44921875 354.34375 204.165039062 c 0
 354.34375 234.86328125 357.171875 267.182617188 360 299.001953125 c 0
 364 340.001953125 368 381.001953125 369 410.001953125 c 1
 366 405.001953125 362 400.001953125 358 394.001953125 c 0
 336 363.001953125 311 317.001953125 287 267.001953125 c 0
 262 218.001953125 238 166.001953125 216 120.001953125 c 0
 193 74.001953125 173 35.001953125 151 8.001953125 c 0
 143 -1.998046875 132 -7.998046875 120 -7.998046875 c 0
 96 -7.998046875 77 10.001953125 76 34.001953125 c 0
 69 252.001953125 59 375.001953125 43 468.001953125 c 0
 42 480.001953125 39 489.001953125 39 503.001953125 c 0
 39 519.001953125 51 538.001953125 78 538.001953125 c 0
 101 538.001953125 122 522.001953125 125 499.001953125 c 0
 134 436.001953125 150 319.001953125 155 179.001953125 c 1
 173 217.001953125 193 259.001953125 213 299.001953125 c 0
 246 367.001953125 305 476.001953125 334 505.001953125 c 0
 349 519.001953125 369 531.001953125 395 531.001953125 c 0
 409 531.001953125 425 524.001953125 434 515.001953125 c 0
 444 506.001953125 449 496.001953125 452 486.001953125 c 0
 454.571289062 478.288085938 455.305664062 465.797851562 455.305664062 453.727539062 c 0
 455.305664062 437.633789062 454 422.287109375 454 420.000976562 c 0
 454 381.000976562 449 336.000976562 445 291.000976562 c 0
 441.876953125 256.646484375 439.36328125 222.291992188 439.36328125 195.553710938 c 0
 439.36328125 188.045898438 439.561523438 181.138671875 440 175 c 2
 440 173 l 1
 446 181 453 190 460 201 c 0
 484 236 518 294 548 345 c 0
 577 396 606 448 637 489 c 0
 663 525 700 562 745 562 c 0
EndSplineSet
Validated: 1
EndChar
StartChar: n
Encoding: 110 110 81
Width: 578
GlyphClass: 1
Flags: W
LayerCount: 2
Fore
SplineSet
182 32 m 0
 174 6 157.998046875 -14 125.998046875 -14 c 0
 81.998046875 -14 67.998046875 325 67.998046875 370 c 0
 67.998046875 391.142578125 68.1611328125 408.530273438 68.1611328125 422.76953125 c 0
 68.1611328125 458.3671875 67.140625 474.28515625 59.998046875 479.999023438 c 0
 53.998046875 483.999023438 47.998046875 487.999023438 47.998046875 495.999023438 c 0
 49.9521484375 525.306640625 84.35546875 566.067382812 112.048828125 566.067382812 c 0
 112.703125 566.067382812 113.353515625 566.044921875 113.999023438 565.999023438 c 0
 121.999023438 565.999023438 125.999023438 559.999023438 133.999023438 553.999023438 c 0
 149.999023438 535.999023438 147.999023438 513.999023438 149.999023438 439.999023438 c 0
 149.999023438 421.999023438 157.999023438 265.999023438 159.999023438 243.999023438 c 1
 183.999023438 317.999023438 217.999023438 383.999023438 257.999023438 455.999023438 c 0
 291.999023438 517.999023438 311.999023438 543.999023438 403.999023438 543.999023438 c 0
 483.999023438 543.999023438 509.999023438 505.999023438 509.999023438 301.999023438 c 0
 509.999023438 255.33203125 509.110351562 185.5546875 509.110351562 140.666015625 c 0
 509.110351562 118.221679688 509.333007812 101.999023438 510 97.9990234375 c 0
 514 73.9990234375 530 57.9990234375 530 35.9990234375 c 0
 530 -4.0009765625 503 -8.0009765625 470 -8.0009765625 c 0
 436 -6.0009765625 426 15.9990234375 422 41.9990234375 c 0
 420.381835938 56.5615234375 417.455078125 92.068359375 417.455078125 112.512695312 c 0
 417.455078125 117.338867188 417.618164062 121.326171875 418 124 c 0
 422 180 422 300 422 324 c 0
 422 418 420 452 380 452 c 0
 360 452 338 418 320 382 c 0
 280 302 224 184 182 32 c 0
EndSplineSet
Validated: 1
EndChar
StartChar: o
Encoding: 111 111 82
GlifName: o
Width: 536
VWidth: 0
Flags: HW
AnchorPoint: "bottom" 276 29 basechar 0
AnchorPoint: "top" 280 593 basechar 0
LayerCount: 2
Fore
SplineSet
394 417 m 256
 362 453 354 463 302 463 c 256
 220 463 180 439 148 367 c 256
 138 347 134 307 134 271 c 256
 134 193 152 147 188 105 c 256
 208 81 222 71 238 71 c 256
 260 71 286 91 322 123 c 256
 362 157 388 189 400 217 c 256
 410 235 412 281 412 319 c 256
 412 365 404 405 394 417 c 256
286 544 m 256
 446 544 490 484 490 324 c 256
 490 276 489 221 471 182 c 256
 457 152 419 98 372 57 c 256
 327 18 292 -10 239 -10 c 256
 178 -10 121 33 87 97 c 256
 69 129 46 212 46 322 c 256
 46 376 62 416 90 448 c 256
 142 508 184 544 286 544 c 256
EndSplineSet
EndChar
StartChar: q
Encoding: 113 113 84
GlifName: q
Width: 570
VWidth: 0
Flags: HW
AnchorPoint: "bottom" 490 -245 basechar 0
AnchorPoint: "top" 280 595 basechar 0
LayerCount: 2
Fore
SplineSet
372 226 m 256
 403 282 414 331 414 394 c 257
 410 402 406 406 390 420 c 256
 364 444 334 454 298 454 c 256
 186 454 136 380 136 246 c 256
 136 178 160 102 208 102 c 256
 282 102 338 162 372 226 c 256
286 540 m 256
 350 540 398 512 434 494 c 256
 462 482 480 474 486 472 c 256
 498 464 506 438 506 388 c 256
 506 378 504 348 502 304 c 256
 498 226 494 164 494 118 c 256
 494 20 486 -42 486 -74 c 256
 486 -148 492 -204 530 -204 c 256
 560 -204 568 -160 600 -160 c 256
 622 -160 630 -184 630 -200 c 256
 630 -244 570 -288 524 -288 c 256
 424 -288 404 -196 404 -96 c 256
 404 -66 416 132 416 156 c 257
 388 106 306 8 234 8 c 256
 110 8 56 102 56 232 c 256
 56 362 76 434 116 472 c 256
 166 518 208 540 286 540 c 256
EndSplineSet
EndChar
StartChar: r
Encoding: 114 114 85
Width: 472
GlyphClass: 1
Flags: W
LayerCount: 2
Fore
SplineSet
84 554 m 0
 121.181640625 554 140.41796875 539.79296875 140.41796875 515.260742188 c 0
 140.41796875 511.421875 139.947265625 507.330078125 139 503 c 0
 133.224609375 476.221679688 130.481445312 437.864257812 130.481445312 392.705078125 c 0
 130.481445312 351.856445312 132.725585938 305.443359375 137 257 c 1
 158 334 184 412 209 482 c 0
 225 524 243 556 292 556 c 0
 342 556 413 532 438 532 c 0
 462 532 478 522 478 499 c 0
 478 471 463 449 432 449 c 0
 389 450 330 470 293 471 c 1
 245 340 199 197 168 46 c 0
 163 24 149 -6 128 -6 c 0
 102 -6 89 20 84 42 c 0
 56.9951171875 156.770507812 45.03125 289.31640625 45.03125 390.404296875 c 0
 45.03125 439.049804688 47.8017578125 480.41015625 53 509 c 0
 57 526 60 554 84 554 c 0
EndSplineSet
Validated: 1
EndChar
StartChar: s
Encoding: 115 115 86
Width: 428
GlyphClass: 1
Flags: W
LayerCount: 2
Fore
SplineSet
258 554 m 0
 296 554 344 536 365 514 c 0
 373 506 379 494 379 470 c 0
 379 442 355 398 325 398 c 0
 303 398 285 418 285 428 c 0
 285 436 295 448 295 460 c 0
 295 470 283 476 253 476 c 0
 225 476 207 466 172 440 c 0
 139 416 133 404 133 392 c 0
 133 346 184 311 212 290 c 0
 259 255 382 146 382 77 c 0
 382 -1 255 -10 198 -10 c 0
 162 -10 64 -1 64 48 c 0
 64 76 78 90 106 90 c 0
 138 90 146 74 218 74 c 0
 256 74 280 83 290 90 c 1
 262 152 208 187 139 246 c 0
 100 279 46 318 46 396 c 0
 46 427 61 464 128 509 c 0
 173 539 202 554 258 554 c 0
EndSplineSet
Validated: 1
EndChar
StartChar: t
Encoding: 116 116 87
Width: 550
GlyphClass: 1
Flags: W
LayerCount: 2
Fore
SplineSet
96 540 m 0
 102 540 146.000976562 542.000976562 174.000976562 548.000976562 c 1
 174.000976562 566.000976562 176.000976562 562.000976562 176.000976562 594.000976562 c 0
 176.000976562 644.000976562 180.000976562 700.000976562 184.000976562 764.000976562 c 0
 188.000976562 838.000976562 184.000976562 866.000976562 210.000976562 866.000976562 c 0
 246.000976562 866.000976562 268.000976562 860.000976562 268.000976562 810.000976562 c 0
 268.000976562 768.000976562 262.000976562 730.000976562 256.000976562 642.000976562 c 0
 255.333984375 633.333984375 255.111328125 624.666992188 255.111328125 615.92578125 c 0
 255.111328125 598.444335938 256 580.666992188 256 562 c 1
 258 562 354 576 380 584 c 0
 406 592 424 596 456 596 c 0
 476 596 502 586 502 568 c 0
 502 558 492 540 476 530 c 0
 438 506 303 486 256 480 c 1
 256 386 l 2
 256 232 260 140 286 104 c 0
 308 72 346 72 370 72 c 0
 408 72 452 116 456 122 c 0
 460 128 460 134 470 134 c 0
 492 134 524 108 524 86 c 0
 524 74 498 46 488 38 c 0
 440 0 430 -14 346 -14 c 0
 218 -14 180 104 178 246 c 0
 178 288 172 382 172 460 c 1
 118 450 86 444 66 444 c 0
 46 444 24 458 24 490 c 0
 24 522 40 542 72 542 c 0
 82 542 90 540 96 540 c 0
EndSplineSet
Validated: 1
EndChar
StartChar: v
Encoding: 118 118 89
GlifName: v
Width: 484
VWidth: 0
Flags: HW
AnchorPoint: "bottom" 260 41 basechar 0
AnchorPoint: "top" 244 613 basechar 0
LayerCount: 2
Fore
SplineSet
434 574 m 256
 462 574 466 558 466 530 c 256
 466 498 454 472 442 446 c 256
 384 323 356 221 336 86 c 256
 328 46 302 -18 262 -18 c 256
 234 -18 198 18 166 68 c 256
 126 130 94 200 74 272 c 256
 58 326 46 368 46 480 c 256
 46 544 48 558 84 558 c 256
 104 558 118 548 124 532 c 256
 132 512 132 470 142 374 c 256
 150 272 198 170 252 108 c 257
 270 176 288 264 308 338 c 256
 330 420 356 462 380 532 c 256
 392 560 410 574 434 574 c 256
EndSplineSet
EndChar
StartChar: w
Encoding: 119 119 90
Width: 682
GlyphClass: 1
Flags: W
LayerCount: 2
Fore
SplineSet
91 28 m 0
 64 60 47 168 47 298 c 0
 47 498 57 533 69 545 c 0
 74 550 88 554 94 554 c 0
 128 554 141 528 141 519 c 0
 141 498 129 440 129 301 c 0
 129 153 149 94 163 94 c 0
 179 94 210 116 243 188 c 0
 262 230 278 286 287 343 c 0
 294 391 305 434 309 441 c 0
 315 451 323 458 335 458 c 0
 370 458 384 438 384 412 c 0
 384 400 368 326 368 283 c 0
 368 169 390 91 434 91 c 0
 453 91 479 112 500 152 c 0
 551 244 566 302 566 365 c 0
 566 410 555 449 525 449 c 0
 522 449 519 449 515 448 c 0
 513 447 511 447 509 447 c 0
 490 447 470 469 470 486 c 0
 470 525 498 550 542 550 c 0
 565 550 599 528 621 489 c 0
 637 462 648 426 648 368 c 0
 648 273 621 195 566 101 c 0
 520 21 475 -2 435 -2 c 0
 369 -2 328 59 302 125 c 1
 281 74 222 -8 161 -8 c 0
 138 -8 115 -1 91 28 c 0
EndSplineSet
Validated: 1
EndChar
StartChar: x
Encoding: 120 120 91
Width: 554
GlyphClass: 1
Flags: W
LayerCount: 2
Fore
SplineSet
468 422 m 0
 416 368 381 311 337 255 c 1
 365 225 407 169 435 145 c 0
 457 125 477 113 485 103 c 0
 493 93 498 80 498 64 c 0
 498 45 468 8 448 8 c 0
 420 8 382 57 356 89 c 0
 330 121 316 157 284 187 c 1
 246 135 212 78 192 32 c 0
 180 9 176 2 148 2 c 0
 124 4 110 10 102 22 c 0
 98 30 96 36 96 44 c 0
 96 58 130 116 148 148 c 0
 168 182 204 222 224 250 c 1
 212 264 198 280 150 340 c 0
 102 400 70 432 60 434 c 0
 42 434 24 485 24 498 c 0
 28 518 47 530 66 530 c 0
 82 530 100 520 114 508 c 0
 128 496 154 464 194 414 c 0
 240 356 266 338 276 324 c 1
 308 360 335 397 376 446 c 0
 413 490 426 513 436 523 c 0
 448 534 458 538 466 538 c 0
 489 538 530 515 530 498 c 0
 530 490 526 484 518 478 c 0
 486 446 486 442 468 422 c 0
EndSplineSet
Validated: 1
EndChar
StartChar: y
Encoding: 121 121 92
GlifName: y
Width: 582
VWidth: 0
Flags: HW
AnchorPoint: "bottom" 320 -279 basechar 0
AnchorPoint: "top" 300 605 basechar 0
LayerCount: 2
Fore
SplineSet
224 -10 m 256
 186 -10 152 0 128 16 c 256
 92 42 58 122 58 240 c 256
 58 326 64 438 66 452 c 256
 76 522 78 536 98 536 c 256
 124 536 160 518 160 490 c 256
 160 482 158 468 154 446 c 256
 148 409 146.5 370.5 146.5 334.5 c 256
 146.5 298.5 148 265 148 238 c 256
 148 132 168 92 222 92 c 256
 268 92 278 108 310 144 c 256
 334 172 356 218 370 250 c 256
 398 310 436 414 436 508 c 256
 438 536 442 554 450 562 c 256
 456 568 462 570 466 570 c 256
 472 570 486 562 492 560 c 256
 512 552 518 528 518 490 c 256
 518 470 516 450 514 438 c 256
 512 413 511.5 373.5 511.5 321.75 c 256
 511.5 270 512 206 512 132 c 256
 512 2 508 -100 492 -182 c 256
 478 -254 398 -336 324 -336 c 256
 260 -336 196 -296 196 -246 c 256
 196 -218 206 -196 222 -196 c 256
 256 -196 262 -244 300 -244 c 256
 348 -244 378 -212 388 -198 c 256
 429 -145 430 30 430 100 c 256
 430 142 432 156 432 188 c 257
 408 132 376 86 350 60 c 256
 334 42 290 -10 224 -10 c 256
EndSplineSet
EndChar
StartChar: z
Encoding: 93 122 93
GlifName: z
Width: 522
VWidth: 0
Flags: W
LayerCount: 2
Fore
SplineSet
114 356 m 256
 114 378 134 392 152 392 c 256
 162 392 180 382 202 364 c 256
 222 348 238 342 254 334 c 257
 264 344 268 358 276 368 c 256
 296 398 336 464 336 476 c 257
 282 476 210 446 170 438 c 256
 128 428 98 426 86 426 c 256
 62 426 38 458 38 482 c 256
 38 508 64 510 114 516 c 256
 188 526 246 540 270 546 c 256
 300 554 334 558 372 558 c 256
 396 558 438 552 438 522 c 256
 438 486 378 379 358 348 c 256
 340 320 332 308 326 294 c 257
 362 274 386 270 426 266 c 256
 468 262 496 250 496 230 c 256
 496 208 428 172 408 172 c 256
 378 172 356 196 276 224 c 257
 216 148 170 92 170 80 c 256
 170 68 184 60 214 60 c 256
 242 60 298 68 338 76 c 256
 368 82 398 106 420 106 c 256
 438 106 464 82 464 56 c 256
 464 38 436 32 414 22 c 256
 343 -10 290 -30 212 -30 c 256
 136 -30 84 0 84 72 c 256
 84 90 92 108 102 124 c 256
 134 176 170 216 204 262 c 257
 182 274 164 286 148 294 c 256
 122 304 114 332 114 356 c 256
EndSplineSet
Validated: 1
EndChar
StartChar: braceleft
Encoding: 123 123 94
Width: 458
GlyphClass: 1
Flags: W
LayerCount: 2
Fore
SplineSet
192 332 m 1
 258 291 297 285 297 172 c 0
 297 130 289 105 287 94 c 0
 284 78 268 11 268 -57 c 0
 268 -89 274 -174 323 -174 c 0
 347 -174 349 -154 377 -154 c 0
 391 -154 403 -156 413 -162 c 0
 425.388671875 -172.32421875 433.010742188 -175.720703125 433.010742188 -182.624023438 c 0
 433.010742188 -210.70703125 366.689453125 -258 325 -258 c 0
 283 -258 248 -235 232 -219 c 0
 205 -192 190 -142 190 -80 c 0
 190 -48 192 -8 200 34 c 0
 212 116 217 164 217 176 c 0
 217 188 215 198 209 204 c 0
 199 214 197 222 147 247 c 0
 111 265 75 278 62 284 c 0
 30 299 20 315 20 332 c 0
 20 366 112 394 138 400 c 0
 163 406 181 420 188 432 c 1
 186 454 159 484 146 510 c 0
 136 529 122 577 122 607 c 0
 122 655 146 711 164 738 c 0
 198 789 267 886 332 886 c 0
 371 886 432 834 432 796 c 0
 432 771 429 760 406 760 c 0
 388 760 370 768 352 780 c 0
 347 785 343 787 337 787 c 0
 326 787 283 754 276 746 c 0
 250 714 204 643 204 604 c 0
 204 590 210 568 222 544 c 0
 256 480 276 455 276 435 c 0
 276 391 233 352 192 332 c 1
EndSplineSet
Validated: 1
Substitution2: "Single Substitution lookup 1-1" braceleft.case
EndChar
StartChar: bar
Encoding: 124 124 95
Width: 221
GlyphClass: 1
Flags: W
LayerCount: 2
Fore
SplineSet
112 870 m 0
 120 870 128 860 138 844 c 0
 154 819 168 778 168 748 c 0
 168 738 164 720 158 696 c 0
 148 658 142 630 140 610 c 0
 138 596 136 536 136 430 c 0
 136 322 138 258 140 236 c 0
 154 85 160 20 168 -58 c 0
 173 -104 176 -146 188 -180 c 0
 198 -212 204 -228 204 -236 c 0
 204 -255 171 -288 152 -288 c 0
 136 -288 115 -277 106 -246 c 0
 99 -221 83 -127 76 -50 c 0
 71 1 66 90 62 210 c 0
 57 310 54 365 54 466 c 0
 54 609 61 696 62 778 c 0
 63 820 66 844 68 852 c 0
 71 863 98 870 112 870 c 0
EndSplineSet
Validated: 1
EndChar
StartChar: braceright
Encoding: 96 125 96
GlifName: braceright
Width: 476
VWidth: 0
Flags: W
LayerCount: 2
Fore
SplineSet
60 858 m 256
 80 867 98 872 110 872 c 256
 181 872 236 839 278 808 c 256
 317 779 334 690 334 648 c 256
 334 575 321 544 306 490 c 256
 300 468 294 444 294 416 c 256
 294 392 296 376 304 366 c 256
 324 342 350 330 380 330 c 256
 394 330 403 332 416 332 c 256
 450 332 468 324 468 310 c 256
 468 290 445 255 426 240 c 256
 397 218 329 123 329 80 c 256
 329 18 362 -24 362 -107 c 256
 362 -162 335 -198 314 -219 c 256
 280 -253 204 -292 138 -292 c 256
 122 -292 102 -290 86 -282 c 256
 66 -274 56 -262 56 -246 c 256
 56 -225 69 -192 94 -192 c 256
 109 -192 107 -202 150 -202 c 256
 195 -202 282 -153 282 -118 c 256
 282 -57 246 21 246 80 c 256
 246 148 301 217 331 256 c 257
 316 261 290 260 268 282 c 256
 234 316 216 346 216 378 c 256
 216 398 220 434 225 458 c 256
 245 548 257 591 257 647 c 256
 257 721 234 746 182 772 c 256
 166 780 137 791 123 791 c 256
 107 791 95 789 85 779 c 256
 75 769 69 767 63 767 c 256
 37 767 22 787 22 812 c 256
 22 835 25 842 60 858 c 256
EndSplineSet
Validated: 1
Substitution2: "Casesensitiveforms subtable" braceright.case
EndChar
StartChar: asciitilde
Encoding: 97 126 97
GlifName: asciitilde
Width: 490
VWidth: 0
Flags: W
LayerCount: 2
Fore
SplineSet
32 278 m 256
 32 309 139 410 176 410 c 256
 192 410 212 404 230 386 c 256
 254 362 280 316 314 278 c 256
 330 260 344 250 354 250 c 256
 370 250 391 297 400 306 c 256
 408 315 417 320 427 320 c 256
 431 320 436 319 440 316 c 256
 452 308 460 296 460 276 c 256
 460 262 442 234 416 202 c 256
 392 172 372 164 342 164 c 256
 326 164 304 178 292 190 c 256
 240 237 201 316 186 316 c 256
 180 316 168 308 148 288 c 256
 109 249 104 238 86 230 c 256
 79 227 73 226 67 226 c 256
 57 226 49 230 44 236 c 256
 34 246 32 262 32 278 c 256
EndSplineSet
Validated: 1
EndChar
StartChar: exclamdown
Encoding: 161 161 99
Width: 222
GlyphClass: 1
Flags: W
LayerCount: 2
Fore
SplineSet
46 440 m 0
 46 464 75 480 97 480 c 0
 127 480 150 456 150 426 c 0
 150 402 131 378 106 378 c 0
 82 378 66 392 54 416 c 0
 48 426 46 430 46 440 c 0
104 202 m 0
 124 202 138 198 144 188 c 0
 151 176 188 -241 188 -274 c 0
 188 -306 168 -336 136 -336 c 0
 91 -336 80 -279 80 -244 c 0
 80 -186 78 -80 72 24 c 0
 70 76 68 100 68 154 c 0
 68 190 82 202 104 202 c 0
EndSplineSet
Validated: 1
EndChar
StartChar: cent
Encoding: 162 162 100
GlifName: cent
Width: 528
VWidth: 0
Flags: W
LayerCount: 2
Fore
SplineSet
300 110 m 257
 302 158 302 240 302 322 c 256
 302 396 304 514 304 514 c 257
 286 522 264 522 240 522 c 256
 206 522 178 508 162 470 c 257
 150 430 136 396 136 336 c 256
 136 282 144 244 160 212 c 256
 187 159 241 120 300 110 c 257
332 792 m 256
 338 798 346 800 362 800 c 256
 376 800 388 800 398 794 c 256
 404 790 404 784 404 774 c 256
 404 770 404 758 402 736 c 256
 400 718 394 628 394 576 c 257
 404 572 416 556 426 546 c 256
 444 524 452 520 452 500 c 256
 452 480 448 468 422 468 c 256
 410 468 398 474 390 482 c 257
 390 468 388 448 388 428 c 256
 384 290 384 202 384 168 c 258
 384 118 l 257
 398 124 408 132 418 142 c 256
 430 152 446 158 470 158 c 256
 500 158 510 146 510 136 c 256
 510 128 494 110 464 78 c 256
 442 54 416 38 386 24 c 257
 386 -40 l 258
 386 -76 388 -134 388 -134 c 258
 388 -162 380 -174 364 -174 c 256
 312 -174 302 -19 302 16 c 257
 280 22 260 30 214 44 c 256
 188 54 164 70 136 98 c 256
 69 165 46 233 46 328 c 256
 46 414 66 486 88 524 c 256
 124 586 187 602 254 602 c 256
 272 602 294 600 306 596 c 257
 306 660 306 672 316 736 c 256
 322 768 326 786 332 792 c 256
EndSplineSet
Validated: 1
EndChar
StartChar: sterling
Encoding: 163 163 101
GlifName: sterling
Width: 696
VWidth: 0
Flags: W
LayerCount: 2
Fore
SplineSet
210 138 m 257
 209 138 207 139 205 139 c 256
 188 139 150 122 150 98 c 256
 150 86 156 76 170 76 c 256
 186 76 210 118 210 138 c 257
398 896 m 256
 463 896 566 853.999 566 777.999 c 256
 566 751.999 562 737.999 554 737.999 c 256
 544 737.999 532 751.999 508 777.999 c 256
 476 811.999 442 827.999 410 827.999 c 256
 380 827.999 352 813.999 322 783.999 c 256
 284 745.999 258 655.999 258 593.999 c 256
 258 547.999 280 487.999 298 459.999 c 257
 308 459.999 422 461.999 460 461.999 c 256
 524 461.999 538 449.999 538 405.999 c 256
 538 395.999 532 389.999 522 387.999 c 256
 512 385.999 488 383.999 456 383.999 c 258
 318 381.999 l 257
 319.876 364.65 320.762 349.061 320.762 334.405 c 256
 320.762 286.547 311.312 248.65 296 191.999 c 257
 296 191.999 338 177.999 362 159.999 c 256
 392 139.999 418 101.999 426 95.999 c 256
 458 63.999 480 53.999 534 53.999 c 256
 572 53.999 600 57.999 614 67.999 c 256
 638 85.999 652 93.999 668 93.999 c 256
 681 93.999 682 79.999 682 69.999 c 256
 682 41.999 678 21.999 668 9.99902 c 256
 650 -16.001 588 -26.001 550 -26.001 c 256
 476 -26.001 390 13.999 354 53.999 c 256
 328 83.999 314 95.999 274 117.999 c 257
 270 97.999 246 41.999 222 23.999 c 256
 212 15.999 196 11.999 172 11.999 c 256
 140 11.999 122 17.999 112 27.999 c 256
 102 37.999 84 57.999 84 89.999 c 256
 84 131.999 112 163.999 128 177.999 c 256
 157 203.999 191 205.999 228 205.999 c 257
 236.198 234.693 242.529 281.124 242.529 326.158 c 256
 242.529 347.042 241.168 367.625 238 386 c 257
 214 385 200 385 191 385 c 256
 172 385 171 386 136 386 c 256
 90 386 60 388 48 394 c 256
 36 400 30 412 30 428 c 256
 30 442 32 450 38 450 c 256
 54 454 84 456 144 458 c 258
 216 458 l 257
 191 508 190 545 190 600 c 256
 190 666 204 710 216 738 c 256
 238 790 252 816 268 832 c 256
 306 870 334 896 398 896 c 256
EndSplineSet
Validated: 524289
EndChar
StartChar: yen
Encoding: 165 165 102
Width: 778
GlyphClass: 1
Flags: W
LayerCount: 2
Fore
SplineSet
288 318 m 0
 312 318 358 326 370 330 c 0
 414 340 440 346 470 352 c 0
 470 356 470 382 468 384 c 0
 434 376 424 378 354 362 c 0
 286 346 238 330 228 324 c 1
 238 322 262 318 288 318 c 0
534 120 m 0
 516 24 459.000976562 0 372.000976562 0 c 0
 358.000976562 0 348.000976562 0 340.000976562 2 c 0
 300.000976562 8 270.000976562 18 256.000976562 30 c 0
 242.000976562 42 230.000976562 80 230.000976562 118 c 0
 230.000976562 138 238.000976562 166 250.000976562 166 c 0
 270.000976562 166 284.000976562 156 312.000976562 98 c 0
 322.000976562 78 346.000976562 72 370.000976562 72 c 0
 404.000976562 72 416.000976562 84 430.000976562 96 c 0
 470.000976562 136 472.000976562 169 472.000976562 224 c 2
 472.000976562 270 l 1
 430.000976562 264 430.000976562 258 354.000976562 246 c 0
 320.000976562 240 288.000976562 238 256.000976562 238 c 0
 200.000976562 238 166.000976562 250 160.000976562 276 c 0
 156.000976562 290 160.000976562 300 162.000976562 304 c 1
 152.000976562 301 143.000976562 300 135.000976562 300 c 0
 115.000976562 300 104.000976562 309 104.000976562 324 c 0
 104.000976562 357 161.000976562 382 188.000976562 392 c 0
 228.000976562 402 284.000976562 420 358.000976562 444 c 0
 388.000976562 454 410.000976562 458 430.000976562 458 c 0
 440.000976562 458 458.000976562 464 468.000976562 466 c 1
 466.310546875 481.215820312 465.69140625 496.07421875 465.69140625 510.122070312 c 0
 465.69140625 529.311523438 466.845703125 546.989257812 468 562 c 0
 472 604 470 624 478 656 c 1
 441 608 327 481 276 456 c 0
 244 442 222 434 208 434 c 0
 188 434 168 450 150 484 c 0
 118 544 116 590 92 680 c 0
 78 734 52 828 34 842 c 0
 26 848 24 854 24 862 c 0
 24 885 53 896 72 896 c 0
 110 896 112 864 128 810 c 0
 152 736 162 704 168 682 c 0
 174 662 176 642 186 622 c 0
 196 602 210 510 228 510 c 0
 266 510 407 675 428 712 c 0
 460 764 490 840 490 902 c 0
 490 934 496 952 516 952 c 0
 554 952 574 910 574 870 c 0
 574 838 570 830 560 728 c 0
 552 648 546 594 544 574 c 0
 542 544 542 500 542 480 c 1
 586 486 620 486 646 486 c 0
 694 486 724 482 734 472 c 0
 744 462 748 456 748 448 c 0
 748 422 704 380 678 380 c 0
 670 380 666 384 666 390 c 0
 666 400 632 410 614 410 c 0
 580 410 568 408 542 398 c 1
 542 388 544 364 544 360 c 1
 572 363 596 365 619 365 c 0
 650 365 678 362 706 356 c 0
 728 352 740 342 740 310 c 0
 740 284 736 268 722 268 c 0
 682 268 670 282 618 282 c 0
 594 282 572 282 548 280 c 1
 542 224 544 172 534 120 c 0
EndSplineSet
Validated: 1
EndChar
StartChar: section
Encoding: 167 167 103
Width: 558
GlyphClass: 1
Flags: W
LayerCount: 2
Fore
SplineSet
392 452 m 0
 364 470 324 486 276 508 c 1
 231 478 162 384 148 328 c 0
 144 316 142 300 142 286 c 0
 142 236 161 204 208 184 c 0
 232 174 300 160 316 160 c 1
 383 205 450 249 450 340 c 0
 450 364 448 384 438 400 c 0
 434 408 424 430 392 452 c 0
262 864 m 0
 278 874 298 876 318 876 c 0
 338 876 390 860 402 850 c 0
 414 840 422 828 422 812 c 0
 422 802 422 796 418 794 c 0
 414 792 398 790 388 790 c 0
 372 790 374 800 328 800 c 0
 284 800 234 730 234 678 c 0
 234 658 240 638 250 622 c 0
 266 598 302 586 354 564 c 0
 391 545 431 509 460 480 c 0
 476 464 488 448 498 436 c 0
 520 404 522 386 522 348 c 0
 522 298 510 254 500 236 c 0
 482 204 442 158 402 134 c 1
 418 130 442 118 454 104 c 0
 470 82 488 62 498 42 c 0
 510 14 512 4 512 -26 c 0
 512 -54 496 -92 486 -108 c 0
 461 -153 378 -170 330 -170 c 0
 292 -170 250 -160 250 -130 c 0
 250 -106 252 -88 280 -88 c 0
 300 -88 294 -94 364 -94 c 0
 400 -94 420 -62 420 -16 c 0
 420 20 412 38 380 54 c 0
 358 64 338 70 324 72 c 0
 248 78 232 86 208 96 c 0
 118 128 68 170 58 222 c 0
 50 258 46 286 46 306 c 0
 46 376 139 505 192 552 c 1
 158 586 144 612 144 662 c 0
 144 738 166 746 192 792 c 0
 212 824 234 850 262 864 c 0
EndSplineSet
Validated: 1
EndChar
StartChar: dieresis
Encoding: 168 168 104
Width: 422
GlyphClass: 1
Flags: W
LayerCount: 2
Fore
SplineSet
16 894 m 0
 22 902 35.9990234375 909.999023438 39.9990234375 909.999023438 c 0
 43.9990234375 909.999023438 57.9990234375 909.999023438 71.9990234375 899.999023438 c 0
 83.9990234375 891.999023438 95.9990234375 861.999023438 121.999023438 841.999023438 c 0
 135.999023438 831.999023438 141.999023438 813.999023438 141.999023438 791.999023438 c 0
 141.999023438 785.999023438 139.999023438 781.999023438 137.999023438 775.999023438 c 0
 135.999023438 771.999023438 129.999023438 769.999023438 123.999023438 769.999023438 c 0
 75.9990234375 769.999023438 46.9990234375 798.999023438 19.9990234375 833.999023438 c 0
 12.3544921875 844.509765625 9.732421875 856.390625 9.732421875 867.0234375 c 0
 9.732421875 878.645507812 12.8662109375 888.77734375 16 894 c 0
303.999023438 907.999023438 m 0
 337.999023438 907.999023438 343.999023438 899.999023438 371.999023438 863.999023438 c 0
 387.999023438 843.999023438 401.999023438 839.999023438 401.999023438 815.999023438 c 0
 401.999023438 783.999023438 393.999023438 771.999023438 369.999023438 771.999023438 c 0
 355.999023438 771.999023438 319.999023438 803.999023438 299.999023438 823.999023438 c 0
 281.999023438 843.999023438 269.999023438 859.999023438 269.999023438 879.999023438 c 0
 269.999023438 899.999023438 283.999023438 907.999023438 303.999023438 907.999023438 c 0
EndSplineSet
Validated: 1
EndChar
StartChar: copyright
Encoding: 169 169 105
Width: 980
GlyphClass: 1
Flags: W
LayerCount: 2
Fore
SplineSet
340 -44 m 0
 372 -58 408 -66 452 -66 c 0
 552 -66 598 -26 704 54 c 0
 734 76 762 118 800 158 c 0
 830 190 846 212 852 232 c 0
 862 254 864 288 864 330 c 0
 864 404 846 446 836 468 c 0
 834 470 830 482 820 506 c 0
 798 560 696 660 640 678 c 0
 564 700 576 704 486 730 c 0
 458 738 430 740 404 740 c 0
 338 740 278 712 224 656 c 0
 184 614 160 592 154 582 c 0
 130 534 116 468 116 360 c 0
 116 268 134 190 170 118 c 1
 210 24 236 10 340 -44 c 0
320 806 m 0
 362 816 398 822 424 822 c 0
 487 822 601 783 660 760 c 0
 728 732 730 726 762 702 c 0
 802 672 806 658 838 622 c 0
 850 608 860 592 870 578 c 0
 880 558 892 522 902 506 c 0
 908 496 918 472 930 438 c 0
 942 394 944 372 944 340 c 0
 944 254 922 178 848 104 c 0
 796 52 756 16 724 -12 c 0
 670 -60 660 -64 590 -106 c 1
 531 -133 521 -136 454 -136 c 0
 412 -136 384 -134 370 -130 c 0
 356 -126 328 -114 286 -94 c 0
 196 -50 136 -12 108 48 c 0
 76 126 60 132 52 248 c 0
 48 304 46 354 46 396 c 0
 46 462 68 554 84 600 c 0
 98 638 140 696 170 726 c 0
 216 772 246 786 320 806 c 0
494 604 m 0
 552 604 596 590 628 558 c 0
 636 550 640 540 640 530 c 0
 640 510 630 500 618 500 c 0
 578 500 566 510 548 520 c 0
 544 524 522 524 512 524 c 0
 496 524 474 518 448 506 c 0
 372 471 330 407 330 322 c 0
 330 270 350 256 394 226 c 0
 412 214 436 212 458 212 c 0
 494 212 542 226 570 248 c 0
 582 258 596 266 606 266 c 0
 634 266 662 256 662 242 c 0
 662 232 654 220 638 210 c 0
 612 190 592 178 576 170 c 2
 520 142 l 2
 494 130 460 124 418 124 c 0
 376 124 360 134 320 174 c 0
 264 230 250 246 250 326 c 0
 250 410 270 446 304 486 c 0
 322 508 336 518 340 524 c 0
 346 532 358 544 384 560 c 0
 432 592 460 604 494 604 c 0
EndSplineSet
Validated: 1
EndChar
StartChar: ordfeminine
Encoding: 170 170 106
Width: 564
GlyphClass: 1
Flags: W
LayerCount: 2
Fore
SplineSet
350 552 m 0
 340 568 302 576 282 576 c 0
 252 576 200 556 190 532 c 0
 182 512 180 504 180 494 c 0
 180 478 184 470 204 470 c 0
 236 470 256 478 270 486 c 0
 292 496 316 512 338 512 c 0
 344 512 356 510 362 508 c 1
 362 522 360 538 350 552 c 0
204 842 m 0
 225 861 249 872 278 872 c 0
 314 872 344 864 366 848 c 0
 436 798 478 756 478 666 c 0
 478 634 478 606 476 588 c 0
 474 562 466 544 464 532 c 0
 460 512 446 492 434 466 c 0
 424 446 407 437 392 437 c 0
 389 437 387 437 384 438 c 0
 357 416 222 380 186 380 c 0
 172 380 158 382 148 386 c 0
 138 388 126 398 112 418 c 0
 92 446 88 464 88 494 c 0
 88 556 138 617 192 644 c 0
 220 654 248 660 280 660 c 0
 310 660 330 658 358 646 c 0
 374 638 394 622 400 614 c 1
 400 638 402 642 402 656 c 0
 402 720 351 780 284 780 c 0
 268 780 250 774 238 764 c 0
 228 754 216 748 204 748 c 0
 186 748 152 766 152 788 c 0
 152 802 162 814 168 816 c 0
 174 818 184 826 204 842 c 0
412 144 m 0
 468 144 502 144 512 138 c 0
 522 132 530 124 530 114 c 0
 530 97 506 64 488 60 c 0
 478 58 454 56 416 56 c 0
 372 56 258 48 212 40 c 0
 132 28 100 10 90 10 c 0
 74 10 46 59 46 74 c 0
 46 86 50 94 60 98 c 0
 130 126 340 144 412 144 c 0
EndSplineSet
Validated: 1
Substitution2: "'cv01' Character Variants 01 lookup 5-1" ordfeminine.cv01
EndChar
StartChar: guillemotleft
Encoding: 171 171 107
Width: 546
GlyphClass: 1
Flags: W
LayerCount: 2
Fore
SplineSet
70 350 m 0
 106 394 124 414 166 450 c 0
 190 472 206 494 236 494 c 0
 256 494 266 480 266 452 c 0
 266 426 208 394 168 358 c 0
 132 324 100 282 92 268 c 1
 102 254 146 206 160 196 c 0
 186 180 220 150 246 144 c 0
 258 140 276 126 276 98 c 0
 276 76 240 60 230 60 c 0
 213 60 113 120 100 136 c 0
 68 168 62 164 48 190 c 0
 34 216 28 242 28 266 c 0
 28 298 36 308 70 350 c 0
408 418 m 0
 418 430 432 438 446 438 c 0
 460 438 470 430 476 414 c 0
 482 404 482 396 482 392 c 0
 482 388 476 384 468 378 c 0
 462 372 448 360 420 336 c 0
 401 321 379 305 362 288 c 2
 336 262 l 1
 340 258 348 248 362 234 c 0
 386 210 398 204 404 200 c 0
 432 184 456 168 486 168 c 0
 518 168 532 158 532 138 c 0
 532 106 504 96 472 96 c 0
 407 96 275 176 252 240 c 0
 248 248 246 254 246 262 c 0
 246 298 284 322 338 360 c 0
 374 388 398 408 408 418 c 0
EndSplineSet
Validated: 1
Substitution2: "Single Substitution lookup 1-1" guillemotleft.case
EndChar
StartChar: logicalnot
Encoding: 172 172 108
GlifName: logicalnot
Width: 619
VWidth: 0
Flags: W
LayerCount: 2
Fore
SplineSet
112 344 m 256
 200 346 266.001 353 354.001 356 c 256
 405.001 358 461.001 368 507.001 368 c 256
 527.001 368 539.001 341 546.001 322 c 256
 552.231 304.692 553.19 258.148 553.19 208.913 c 256
 553.19 187.03 553.001 164.616 553.001 144.001 c 256
 553.001 128.534 554.139 107.379 554.139 89.4854 c 256
 554.139 73.8281 553.268 60.668 550.001 56.001 c 256
 541.001 44.001 531.001 35.001 518.001 35.001 c 256
 497.001 35.001 490.001 57.001 481.001 72.001 c 256
 465.717 95.4365 462.372 131.851 462.372 169.474 c 256
 462.372 198.749 464.396 228.756 464.396 253.949 c 256
 464.396 259.929 464.282 265.637 464 271 c 257
 449 275 410 276 391 276 c 256
 333 276 268 273 215 270 c 256
 188 269 126 266 98 266 c 256
 64 266 37 275 37 305 c 256
 37 335 66 343 112 344 c 256
EndSplineSet
Validated: 1
EndChar
StartChar: uni00AD
Encoding: 109 173 109
GlifName: uni00A_D_
Width: 410
VWidth: 0
Flags: W
LayerCount: 2
Fore
SplineSet
404 270 m 256
 404 242 358 216 328 216 c 256
 250 216 192 218 124 222 c 256
 72 226 42 236 32 246 c 256
 22 256 16 264 16 272 c 256
 16 288 44 314 60 320 c 256
 70 322 84 324 112 324 c 256
 154 324 188 320 212 310 c 256
 234 302 272 296 326 294 c 256
 372 292 404 298 404 270 c 256
EndSplineSet
Validated: 1
EndChar
StartChar: registered
Encoding: 174 174 110
Width: 944
GlyphClass: 1
Flags: W
LayerCount: 2
Fore
SplineSet
660 736 m 0
 627 769 610 771 566 774 c 0
 538 774 518 776 502 776 c 0
 494 776 487 775 480 774 c 0
 460 768 408 762 368 746 c 0
 276 708 252 686 202 636 c 0
 190 624 172 610 160 584 c 0
 148 558 126 512 126 448 c 0
 126 320 140 266 146 252 c 0
 180 172 200 106 214 74 c 0
 238 22 272 -20 308 -62 c 0
 338 -94 356 -106 396 -118 c 0
 412 -124 470 -126 482 -126 c 0
 502 -126 524 -120 536 -116 c 1
 538 -98 552 -82 564 -72 c 0
 596 -48 636 -32 656 -20 c 0
 688 2 712 20 724 32 c 0
 795 103 834 182 834 284 c 0
 834 358 830 408 822 438 c 0
 802 535 771 627 700 698 c 0
 690 708 676 720 660 736 c 0
144 692 m 0
 198 746 234 780 314 814 c 0
 346 830 507 856 556 856 c 0
 594 856 628 852 654 842 c 0
 666 836 690 820 722 790 c 0
 754 760 788 710 800 694 c 0
 854 622 870 580 896 496 c 0
 906 470 908 410 908 316 c 0
 908 220 898 150 872 90 c 0
 856 52 844 32 782 -18 c 0
 750 -42 714 -66 668 -96 c 0
 636 -116 600 -126 582 -134 c 1
 584 -140 584 -142 584 -154 c 0
 584 -198 514 -208 482 -208 c 0
 428 -208 378 -196 330 -170 c 0
 283 -148 173 -18 152 26 c 0
 102 122 90 190 62 260 c 0
 52 288 46 346 46 440 c 0
 46 480 48 510 50 522 c 0
 66 591 94 642 144 692 c 0
542 412 m 0
 542 444 542 472 528 508 c 0
 514 544 496 564 476 564 c 0
 468 564 462 562 456 556 c 0
 433 541 383 436 372 406 c 1
 374 386 378 354 380 324 c 1
 416 324 l 2
 452 324 496 320 512 312 c 1
 528 328 542 384 542 412 c 0
268 618 m 0
 268 650 282 663.999023438 306 663.999023438 c 0
 338 663.999023438 344 591.999023438 348 539.999023438 c 1
 368 583.999023438 390 621.999023438 434 645.999023438 c 0
 444 651.999023438 458 651.999023438 468 651.999023438 c 0
 523 651.999023438 569 608.999023438 590 559.999023438 c 0
 609 524.999023438 616 474.999023438 616 435.999023438 c 0
 616 345.999023438 602 295.999023438 568 253.999023438 c 1
 594 207.999023438 646 157.999023438 660 153.999023438 c 0
 670 151.999023438 680 151.999023438 688 151.999023438 c 0
 711 151.999023438 722 150.999023438 722 123.999023438 c 0
 722 91.9990234375 696 73.9990234375 658 73.9990234375 c 0
 574 73.9990234375 526 169.999023438 494 201.999023438 c 1
 468 195.999023438 420 189.999023438 396 189.999023438 c 1
 402 157.999023438 406 115.999023438 406 71.9990234375 c 0
 406 39.9990234375 392 25.9990234375 348 25.9990234375 c 0
 316 25.9990234375 296 95.9990234375 282 221.999023438 c 0
 277.495117188 257.137695312 275.42578125 291.870117188 275.42578125 323.454101562 c 0
 275.42578125 361.98046875 278.504882812 395.821289062 284 420 c 1
 284 420 268 570 268 618 c 0
EndSplineSet
Validated: 1
EndChar
StartChar: macron
Encoding: 175 175 111
GlifName: macron
Width: 396
VWidth: 0
Flags: W
LayerCount: 2
Fore
SplineSet
34 804 m 256
 42 804 48.001 801.999 56.001 799.999 c 256
 64.001 797.999 74.001 793.999 82.001 793.999 c 256
 86.001 792.999 90.001 792.999 94.001 792.999 c 256
 102.001 792.999 110.001 793.999 118.001 793.999 c 258
 222.001 793.999 l 258
 242.001 793.999 263.001 795.999 283.001 795.999 c 256
 290.001 795.999 297.001 795.999 303.001 794.999 c 256
 320.001 794.999 373.001 784.999 374.001 775.999 c 256
 374.289 773.549 374.432 771.187 374.432 768.907 c 256
 374.432 739.56 350.757 723.919 309 710 c 256
 287 703 213 702 155 702 c 258
 120 702 l 258
 105 702 90 700 75 700 c 256
 45.04 700 -4.25781 717.59 -4.25781 754.18 c 256
 -4.25781 768.758 4.87109 783.046 14 794 c 256
 20 800 26 804 34 804 c 256
EndSplineSet
Validated: 524289
EndChar
StartChar: degree
Encoding: 176 176 112
Width: 336
GlyphClass: 1
Flags: W
LayerCount: 2
Fore
SplineSet
192 810 m 0
 190 810 178 800 166 790 c 0
 162 786 156 780 154 774 c 0
 156 764 156 758 156 750 c 0
 156 740 160 734 170 734 c 0
 181 734 218 775 218 786 c 0
 218 802 200 810 192 810 c 0
46 772 m 0
 46 829 107 879 156 894 c 0
 184 900 202 904 214 904 c 0
 234 904 250 898 262 886 c 0
 288 864 300 834 300 802 c 0
 300 778 290 772 274 734 c 0
 263 705 205 626 170 626 c 0
 107 626 73 678 68 736 c 1
 62 738 46 756 46 772 c 0
EndSplineSet
Validated: 1
EndChar
StartChar: plusminus
Encoding: 177 177 113
Width: 606
GlyphClass: 1
Flags: W
LayerCount: 2
Fore
SplineSet
296 182 m 0
 326 188 370 188 430 188 c 0
 476 188 506 186 516 184 c 0
 526 182 538 178 548 168 c 0
 562 156 570 144 570 132 c 0
 570 104 535 90 512 90 c 0
 506 90 500 90 498 92 c 0
 464 98 438 100 418 100 c 0
 388 100 346 98 292 88 c 0
 166 72 132 68 100 68 c 0
 88 68 78 68 74 70 c 0
 56 74 46 90 46 118 c 0
 46 130 48 142 52 152 c 0
 60 168 72 178 88 178 c 0
 102 178 118 176 134 170 c 0
 144 168 158 166 170 166 c 0
 208 166 220 170 296 182 c 0
170 536 m 0
 122 538 56.0009765625 542.000976562 56.0009765625 578.000976562 c 0
 56.0009765625 611.000976562 68.0009765625 636.000976562 106.000976562 636.000976562 c 0
 118.000976562 636.000976562 128.000976562 632.000976562 138.000976562 630.000976562 c 0
 152.000976562 626.000976562 172.000976562 624.000976562 194.000976562 624.000976562 c 0
 197.000976562 624.000976562 219.000976562 626.000976562 246.000976562 629.000976562 c 1
 246.000976562 672.000976562 244.000976562 711.000976562 242.000976562 754.000976562 c 0
 241.7421875 756.583984375 241.6171875 759.067382812 241.6171875 761.455078125 c 0
 241.6171875 777.55078125 247.291992188 789.291992188 256 798 c 0
 267 806 277 809 286 809 c 0
 294 809 301 807 306 802 c 0
 316 796 320 782 328 760 c 0
 331.200195312 751.200195312 332.16015625 735.680664062 332.16015625 718.688476562 c 0
 332.16015625 693.200195312 330 664.400390625 330 650 c 2
 330 639 l 1
 364 644 394 648 404 650 c 0
 434 656 468 660 506 660 c 0
 544 660 554 656 554 638 c 0
 554 628 550 620 548 600 c 0
 542 570 538 566 506 566 c 0
 496 566 484 564 474 564 c 0
 446 564 391 552 326 544 c 1
 326 501 328 436 342 396 c 0
 344 390 346 388 346 382 c 0
 346 369 340 330 322 330 c 0
 292 330 244 366 244 398 c 0
 245 453 246 499 246 536 c 1
 232 535 217 535 202 535 c 0
 191 535 181 535 170 536 c 0
EndSplineSet
Validated: 1
EndChar
StartChar: twosuperior
Encoding: 178 178 114
Width: 432
GlyphClass: 1
Flags: W
LayerCount: 2
Fore
SplineSet
214 992 m 0
 246 992 290 956 304 936 c 0
 318 916 332 880 332 832 c 0
 332 766 320 758 302 718 c 0
 264 634 238 602 206 566 c 1
 206 566 252 578 346 578 c 0
 386 578 396 562 396 538 c 0
 396 516 386 506 352 506 c 0
 300 506 208 490 144 464 c 0
 132 458 106 454 88 454 c 0
 58 454 46 468 46 492 c 0
 46 506 70 528 102 566 c 0
 148 616 195 672 228 732 c 0
 244 766 256 802 256 830 c 0
 256 850 232 910 210 910 c 0
 198 910 180 904 162 894 c 0
 142 882 130 874 126 874 c 0
 122 874 109 865 99 865 c 0
 87 865 84 883 84 892 c 0
 84 957 157 992 214 992 c 0
EndSplineSet
Validated: 1
EndChar
StartChar: uni00B2
Encoding: 178 178 114
GlifName: twosuperior
Width: 432
VWidth: 0
Flags: W
LayerCount: 2
Fore
SplineSet
214 992 m 256
 246 992 290 956 304 936 c 256
 318 916 332 880 332 832 c 256
 332 766 320 758 302 718 c 256
 264 634 238 602 206 566 c 257
 206 566 252 578 346 578 c 256
 386 578 396 562 396 538 c 256
 396 516 386 506 352 506 c 256
 300 506 208 490 144 464 c 256
 132 458 106 454 88 454 c 256
 58 454 46 468 46 492 c 256
 46 506 70 528 102 566 c 256
 148 616 195 672 228 732 c 256
 244 766 256 802 256 830 c 256
 256 850 232 910 210 910 c 256
 198 910 180 904 162 894 c 256
 142 882 130 874 126 874 c 256
 122 874 109 865 99 865 c 256
 87 865 84 883 84 892 c 256
 84 957 157 992 214 992 c 256
EndSplineSet
Validated: 1
EndChar
StartChar: threesuperior
Encoding: 179 179 115
Width: 486
GlyphClass: 1
Flags: W
LayerCount: 2
Fore
SplineSet
46 896 m 0
 46 939 192 1002 224 1002 c 0
 238 1002 262 1000 294 992 c 0
 318 984 336 970 346 950 c 0
 356 932 364 914 364 898 c 0
 364 846 299 769 262 732 c 1
 338 732 432 668 432 588 c 0
 432 556 418 522 386 484 c 0
 354 446 306 428 244 428 c 0
 210 428 178 438 154 454 c 0
 146 460 144 472 144 494 c 0
 144 514 146 526 154 530 c 0
 156 532 162 532 170 532 c 0
 198 532 210 530 216 520 c 0
 220 514 228 512 240 512 c 0
 270 512 324 527 340 554 c 0
 342 562 344 566 344 572 c 0
 344 582 340 590 334 600 c 0
 307 644 251 652 204 652 c 0
 178 652 168 644 150 644 c 0
 126 644 108 678 108 694 c 0
 108 704 114 710 122 720 c 0
 132 734 158 748 172 758 c 0
 200 777 278 846 278 882 c 0
 278 907 243 909 224 909 c 0
 216 909 207 906 176 890 c 0
 126 864 100 854 90 854 c 0
 62 854 46 888 46 896 c 0
EndSplineSet
Validated: 1
EndChar
StartChar: uni00B3
Encoding: 179 179 115
GlifName: threesuperior
Width: 486
VWidth: 0
Flags: W
LayerCount: 2
Fore
SplineSet
46 896 m 256
 46 939 192 1002 224 1002 c 256
 238 1002 262 1000 294 992 c 256
 318 984 336 970 346 950 c 256
 356 932 364 914 364 898 c 256
 364 846 299 769 262 732 c 257
 338 732 432 668 432 588 c 256
 432 556 418 522 386 484 c 256
 354 446 306 428 244 428 c 256
 210 428 178 438 154 454 c 256
 146 460 144 472 144 494 c 256
 144 514 146 526 154 530 c 256
 156 532 162 532 170 532 c 256
 198 532 210 530 216 520 c 256
 220 514 228 512 240 512 c 256
 270 512 324 527 340 554 c 256
 342 562 344 566 344 572 c 256
 344 582 340 590 334 600 c 256
 307 644 251 652 204 652 c 256
 178 652 168 644 150 644 c 256
 126 644 108 678 108 694 c 256
 108 704 114 710 122 720 c 256
 132 734 158 748 172 758 c 256
 200 777 278 846 278 882 c 256
 278 907 243 909 224 909 c 256
 216 909 207 906 176 890 c 256
 126 864 100 854 90 854 c 256
 62 854 46 888 46 896 c 256
EndSplineSet
Validated: 1
EndChar
StartChar: acute
Encoding: 180 180 116
Width: 374
GlyphClass: 1
Flags: W
LayerCount: 2
Fore
SplineSet
232 878 m 0
 250 892 268 898 284 898 c 0
 309 898 324 885 324 860 c 0
 324 817 130 679 82 658 c 0
 76 655 68 654 61 654 c 0
 48 654 20 663 20 680 c 0
 20 686 18 698 36 716 c 0
 50 730 91 765 131 797 c 0
 169 828 206 860 232 878 c 0
EndSplineSet
Validated: 33
EndChar
StartChar: mu
Encoding: 181 181 117
Width: 536
GlyphClass: 1
Flags: W
LayerCount: 2
Fore
SplineSet
340 472 m 0
 340 482.545898438 339.801757812 491.571289062 339.801757812 499.279296875 c 0
 339.801757812 533.967773438 343.818359375 542.000976562 388 542.000976562 c 0
 412 542.000976562 412 534.000976562 420 514.000976562 c 0
 428 494.000976562 432 454.000976562 432 394.000976562 c 0
 432 335.000976562 438 89.0009765625 464 52.0009765625 c 0
 474 40.0009765625 514 22.0009765625 514 12.0009765625 c 0
 514 -1.9990234375 512 -31.9990234375 506 -37.9990234375 c 0
 502 -41.9990234375 488 -43.9990234375 468 -43.9990234375 c 0
 438 -43.9990234375 432 -33.9990234375 422 -21.9990234375 c 0
 392 10.0009765625 368 46.0009765625 364 106.000976562 c 1
 346 88.0009765625 348 74.0009765625 310 42.0009765625 c 0
 256 -1.9990234375 228 -23.9990234375 182 -23.9990234375 c 0
 164 -23.9990234375 140 -15.9990234375 136 -13.9990234375 c 1
 136 -13.9990234375 136 -67.9990234375 138 -99.9990234375 c 0
 138 -131.999023438 142 -159.999023438 142 -179.999023438 c 0
 142 -203.271484375 143.057617188 -220.197265625 143.057617188 -234.045898438 c 0
 143.057617188 -258.280273438 139.818359375 -273.08984375 122 -295.999023438 c 0
 116 -302.999023438 111 -305.999023438 106 -305.999023438 c 0
 96 -305.999023438 87 -296.999023438 74 -287.999023438 c 0
 56 -273.999023438 54 -255.999023438 54 -227.999023438 c 0
 54 -137.999023438 46 -23.9990234375 46 86.0009765625 c 0
 46 106.000976562 48 168.000976562 50 200.000976562 c 0
 52 268.000976562 54 278.000976562 56 344.000976562 c 0
 58 418.000976562 58 464.000976562 66 478.000976562 c 0
 74 492.000976562 66 500.000976562 96 500.000976562 c 0
 126 500.000976562 122 492.000976562 130 472.000976562 c 0
 137.155273438 454.112304688 144.310546875 413.82421875 144.310546875 351.135742188 c 0
 144.310546875 343.736328125 144.2109375 336.024414062 144 328.000976562 c 0
 142.6875 285.57421875 141.853515625 250.225585938 141.853515625 220.888671875 c 0
 141.853515625 116.080078125 152.497070312 88 190 88 c 0
 234 88 254 96 290 140 c 0
 320 172 350 218 350 332 c 0
 350 386 340 450 340 472 c 0
EndSplineSet
Validated: 1
EndChar
StartChar: paragraph
Encoding: 182 182 118
GlifName: paragraph
Width: 778
VWidth: 0
Flags: W
LayerCount: 2
Fore
SplineSet
624 916 m 256
 626 926 630 934 634 936 c 256
 635 937 637 937 639 937 c 256
 644 937 651 936 660 936 c 256
 676 936 690 928 690 906 c 258
 692 746 l 258
 692 682 696 598 700 544 c 256
 704 488 702 452 704 404 c 256
 710 266 710 252 712 228 c 256
 722 120 732 114 732 68 c 256
 732 36 722 -10 698 -10 c 256
 672 -10 638 34 638 66 c 256
 638 112 636 162 634 194 c 256
 624 326 620 380 620 518 c 256
 620 628 618 636 618 772 c 256
 618 856 618 860 624 916 c 256
368 804 m 256
 358 804 340 803.999 316 797.999 c 256
 198 767.999 140 713.999 140 639.999 c 256
 140 605.999 158 571.999 190 537.999 c 256
 210 517.999 250 499.999 310 483.999 c 256
 372 469.999 410 461.999 426 461.999 c 256
 440 461.999 448 463.999 456 467.999 c 257
 458 499.999 462 523.999 462 611.999 c 256
 462 689.142 457.592 742.774 457.592 780.454 c 256
 457.592 786.734 457.714 792.571 458 798 c 257
 426 800 400 804 368 804 c 256
472 185.999 m 256
 466 213.999 464 239.999 464 271.999 c 256
 462 337.999 460 355.999 458 373.999 c 257
 442 369.999 428 369.999 414 369.999 c 256
 342 369.999 200 403.999 146 445.999 c 256
 132 455.999 46 547.999 46 633.999 c 256
 46 677.999 60 731.999 88 763.999 c 256
 120 795.999 140 819.999 192 843.999 c 256
 216 853.999 248 875.999 276 885.999 c 256
 308 895.999 350 901.999 400 901.999 c 256
 446 901.999 450 899.999 464 893.999 c 257
 474 907.999 486 919.999 496 919.999 c 256
 525 919.999 542 832.999 542 805.999 c 256
 542 803.999 542 791.999 540 763.999 c 256
 535 697.999 534 631.999 534 565.999 c 258
 534 477.999 l 257
 546 471.999 558 453.999 558 443.999 c 256
 558 421.999 540 399.999 534 397.999 c 257
 534 387.999 534 363.999 536 347.999 c 256
 546 273.999 548 227.999 558 153.999 c 256
 560 139.999 566 129.999 568 115.999 c 256
 574 79.999 576 63.999 576 21.999 c 256
 576 -10.001 562 -28.001 550 -28.001 c 256
 530 -28.001 484 -0.000976562 484 21.999 c 256
 484 61.999 484 123.999 472 185.999 c 256
EndSplineSet
Validated: 1
EndChar
StartChar: periodcentered
Encoding: 183 183 119
GlifName: periodcentered
Width: 192
VWidth: 0
Flags: W
LayerCount: 2
Fore
SplineSet
58 280 m 256
 58 306 72 318 102 318 c 256
 132 318 162 304 162 270 c 256
 162 254 156 240 144 224 c 256
 134 208 122 200 112 200 c 256
 94 200 42 221 42 242 c 256
 42 256 58 250 58 280 c 256
EndSplineSet
Validated: 1
Substitution2: "Casesensitiveforms subtable" uniE01A
EndChar
StartChar: cedilla
Encoding: 184 184 120
Width: 390
GlyphClass: 1
Flags: W
LayerCount: 2
Fore
SplineSet
264 24 m 0
 271 -8 288 -30 302 -52 c 0
 334 -106 344 -108 344 -176 c 0
 344 -246 240 -326 134 -326 c 0
 74 -326 8 -294 8 -268 c 0
 8 -250 26 -226 42 -226 c 0
 48 -226 56 -230 68 -234 c 0
 80 -240 96 -242 118 -242 c 0
 170 -242 208 -228 232 -200 c 0
 246 -182 254 -168 254 -160 c 0
 254 -142 232 -100 212 -80 c 0
 196 -64 186 -48 180 -30 c 0
 178.381835938 -25.1455078125 175.455078125 -12.4375 175.455078125 -0.34765625 c 0
 175.455078125 2.5068359375 175.618164062 5.326171875 176 8 c 0
 180 37 205 53 227 53 c 0
 244 53 260 43 264 24 c 0
EndSplineSet
Validated: 1
EndChar
StartChar: onesuperior
Encoding: 185 185 121
Width: 422
GlyphClass: 1
Flags: W
LayerCount: 2
Fore
SplineSet
148 946 m 0
 166 970 186 980 208 980 c 0
 230 980 242 970 246 950 c 0
 250 930 252 860 252 742 c 0
 252 646 256 574 258 534 c 1
 272 536 298 536 312 536 c 0
 332 536 350 526 366 510 c 0
 382 494 390 484 390 476 c 0
 390 470 384 460 374 450 c 0
 364 440 352 438 336 438 c 0
 266 438 230 432 154 432 c 0
 122 432 98 440 82 454 c 0
 72 464 64 474 64 480 c 0
 64 486 66 488 72 498 c 0
 80 512 96 518 120 520 c 0
 146 522 164 524 170 524 c 1
 168 538 168 604 168 722 c 2
 168 804 l 1
 159 798 134 763 130 752 c 0
 126 742 126 732 116 722 c 0
 106 712 98 708 90 708 c 0
 71 708 42 737 42 756 c 0
 42 784 66 806 94 858 c 0
 116 898 134 928 148 946 c 0
EndSplineSet
Validated: 1
EndChar
StartChar: uni00B9
Encoding: 185 185 121
GlifName: onesuperior
Width: 422
VWidth: 0
Flags: W
LayerCount: 2
Fore
SplineSet
148 946 m 256
 166 970 186 980 208 980 c 256
 230 980 242 970 246 950 c 256
 250 930 252 860 252 742 c 256
 252 646 256 574 258 534 c 257
 272 536 298 536 312 536 c 256
 332 536 350 526 366 510 c 256
 382 494 390 484 390 476 c 256
 390 470 384 460 374 450 c 256
 364 440 352 438 336 438 c 256
 266 438 230 432 154 432 c 256
 122 432 98 440 82 454 c 256
 72 464 64 474 64 480 c 256
 64 486 66 488 72 498 c 256
 80 512 96 518 120 520 c 256
 146 522 164 524 170 524 c 257
 168 538 168 604 168 722 c 258
 168 804 l 257
 159 798 134 763 130 752 c 256
 126 742 126 732 116 722 c 256
 106 712 98 708 90 708 c 256
 71 708 42 737 42 756 c 256
 42 784 66 806 94 858 c 256
 116 898 134 928 148 946 c 256
EndSplineSet
Validated: 1
EndChar
StartChar: ordmasculine
Encoding: 122 186 122
GlifName: ordmasculine
Width: 518
VWidth: 0
Flags: W
LayerCount: 2
Fore
SplineSet
342 586 m 256
 362 616 384 674 384 704 c 256
 384 722 376 772 368 786 c 256
 358 808 346 824 320 824 c 256
 302 824 266 820 238 804 c 256
 192 772 176 752 170 742 c 256
 156 718 136 674 136 622 c 256
 136 610 146 592 162 576 c 256
 176 560 188 550 196 546 c 256
 204 542 220 542 244 542 c 256
 306 542 318 550 342 586 c 256
298 886 m 256
 342 886 372 882 384 872 c 256
 398 862 404 856 406 850 c 256
 410 842 414 832 426 816 c 256
 438 796 446 758 446 702 c 256
 446 616 368 502 334 486 c 256
 302 470 248 460 222 460 c 256
 192 460 114 490 80 572 c 256
 70 592 64 614 64 638 c 256
 64 718 94 774 136 816 c 256
 186 866 220 886 298 886 c 256
416 130 m 256
 440 130 456 130 464 124 c 256
 476 116 488 76 488 62 c 256
 488 56 488 56 486 54 c 256
 480 48 460 44 426 42 c 256
 390 40 232 34 164 26 c 256
 144 24 126 18 106 18 c 256
 56 18 32 34 32 66 c 256
 32 78 34 90 44 102 c 256
 58 122 82 140 112 140 c 256
 124 140 132 138 138 134 c 256
 148 128 180 128 216 128 c 256
 314 128 362 130 416 130 c 256
EndSplineSet
Validated: 1
EndChar
StartChar: guillemotright
Encoding: 187 187 123
Width: 506
GlyphClass: 1
Flags: W
LayerCount: 2
Fore
SplineSet
248 426 m 0
 240 438 236 450 236 456 c 0
 236 466 260 482 270 482 c 0
 303 482 326 446 340 420 c 0
 350 402 360 392 368 384 c 0
 380 366 392 346 414 326 c 0
 442 300 460 282 470 272 c 0
 480 262 486 254 486 246 c 0
 484 226 468 224 456 212 c 0
 432 188 416 172 384 138 c 0
 366 116 352 102 346 92 c 0
 336 74 322 64 298 64 c 0
 284 64 270 72 270 90 c 0
 270 124 308 148 338 184 c 0
 356 208 376 234 394 252 c 1
 382 260 368 264 330 310 c 0
 296 350 264 398 248 426 c 0
110 314 m 0
 60 382 46 392 46 420 c 0
 46 446 52 468 78 468 c 0
 101 468 138 403 148 384 c 0
 168 350 168 350 202 310 c 0
 226 282 250 262 250 246 c 0
 250 228 224 208 212 198 c 0
 202 190 174 168 152 152 c 0
 130 136 114 126 106 118 c 0
 93 105 74 96 56 96 c 0
 50 96 42 114 42 122 c 0
 42 158 52 166 108 204 c 0
 128 216 158 242 158 250 c 1
 150 260 134 282 110 314 c 0
EndSplineSet
Validated: 1
Substitution2: "Single Substitution lookup 1-1" guillemotright.case
EndChar
StartChar: onequarter
Encoding: 188 188 124
Width: 1036
GlyphClass: 1
Flags: W
LayerCount: 2
Fore
SplineSet
791 847 m 0
 814 847 845 836 845 821 c 0
 845 809 833 795 821 790 c 0
 794 779 770 751 745 719 c 0
 674 626 613 534 550 433 c 0
 510 369 472 300 426 233 c 0
 401 193 389 176 366 140 c 0
 352 117 321 61 314 33 c 0
 314 31 312 24 312 19 c 0
 312 -4 340 9 340 -14 c 0
 340 -24 325 -30 308 -30 c 0
 277 -30 240 -8 240 25 c 0
 240 49 247 75 260 99 c 0
 284 149 276 148 336 243 c 0
 434 398 499 498 572 613 c 0
 630 704 598 667 660 756 c 0
 685 792 724 825 742 837 c 0
 750 842 775 847 791 847 c 0
860 548 m 0
 882 548 900 522 900 500 c 0
 900 494 894 487 885 479 c 1
 885 465 l 2
 885 434 877 377 877 314 c 2
 877 272 l 1
 924 278 961 284 974 284 c 0
 991 284 1005 280 1005 265 c 0
 1005 241 988 223 972 218 c 0
 943 209 911 201 881 195 c 1
 886 101 898 57 898 51 c 0
 898 25 894 -3 868 -3 c 0
 844 -3 815 25 807 55 c 0
 802 74 797 128 794 183 c 1
 772 181 751 180 733 180 c 0
 605 180 570 214 570 275 c 0
 570 326 646 406 692 448 c 0
 731 484 831 548 860 548 c 0
791 263 m 1
 790 280 790 295 790 307 c 0
 790 346 794 381 798 420 c 1
 765 397 652 308 652 282 c 0
 652 266 677 261 736 261 c 0
 754 261 773 262 791 263 c 1
148 946 m 0
 166 970 186 980 208 980 c 0
 230 980 242 970 246 950 c 0
 250 930 252 860 252 742 c 0
 252 646 256 574 258 534 c 1
 272 536 298 536 312 536 c 0
 332 536 350 526 366 510 c 0
 382 494 390 484 390 476 c 0
 390 470 384 460 374 450 c 0
 364 440 352 438 336 438 c 0
 266 438 230 432 154 432 c 0
 122 432 98 440 82 454 c 0
 72 464 64 474 64 480 c 0
 64 486 66 488 72 498 c 0
 80 512 96 518 120 520 c 0
 146 522 164 524 170 524 c 1
 168 538 168 604 168 722 c 2
 168 804 l 1
 159 798 134 763 130 752 c 0
 126 742 126 732 116 722 c 0
 106 712 98 708 90 708 c 0
 71 708 42 737 42 756 c 0
 42 784 66 806 94 858 c 0
 116 898 134 928 148 946 c 0
EndSplineSet
Validated: 1
EndChar
StartChar: onehalf
Encoding: 189 189 125
Width: 993
GlyphClass: 1
Flags: W
LayerCount: 2
Fore
SplineSet
791 847 m 0
 814 847 845 836 845 821 c 0
 845 809 833 795 821 790 c 0
 794 779 770 751 745 719 c 0
 674 626 613 534 550 433 c 0
 510 369 472 300 426 233 c 0
 401 193 389 176 366 140 c 0
 352 117 321 61 314 33 c 0
 314 31 312 24 312 19 c 0
 312 -4 340 9 340 -14 c 0
 340 -24 325 -30 308 -30 c 0
 277 -30 240 -8 240 25 c 0
 240 49 247 75 260 99 c 0
 284 149 276 148 336 243 c 0
 434 398 499 498 572 613 c 0
 630 704 598 667 660 756 c 0
 685 792 724 825 742 837 c 0
 750 842 775 847 791 847 c 0
775 512 m 0
 807 512 851 476 865 456 c 0
 879 436 893 400 893 352 c 0
 893 286 881 278 863 238 c 0
 825 154 799 122 767 86 c 1
 767 86 813 98 907 98 c 0
 947 98 957 82 957 58 c 0
 957 36 947 26 913 26 c 0
 861 26 769 10 705 -16 c 0
 693 -22 667 -26 649 -26 c 0
 619 -26 607 -12 607 12 c 0
 607 26 631 48 663 86 c 0
 709 136 756 192 789 252 c 0
 805 286 817 322 817 350 c 0
 817 370 793 430 771 430 c 0
 759 430 741 424 723 414 c 0
 703 402 691 394 687 394 c 0
 683 394 670 385 660 385 c 0
 648 385 645 403 645 412 c 0
 645 477 718 512 775 512 c 0
148 946 m 0
 166 970 186 980 208 980 c 0
 230 980 242 970 246 950 c 0
 250 930 252 860 252 742 c 0
 252 646 256 574 258 534 c 1
 272 536 298 536 312 536 c 0
 332 536 350 526 366 510 c 0
 382 494 390 484 390 476 c 0
 390 470 384 460 374 450 c 0
 364 440 352 438 336 438 c 0
 266 438 230 432 154 432 c 0
 122 432 98 440 82 454 c 0
 72 464 64 474 64 480 c 0
 64 486 66 488 72 498 c 0
 80 512 96 518 120 520 c 0
 146 522 164 524 170 524 c 1
 168 538 168 604 168 722 c 2
 168 804 l 1
 159 798 134 763 130 752 c 0
 126 742 126 732 116 722 c 0
 106 712 98 708 90 708 c 0
 71 708 42 737 42 756 c 0
 42 784 66 806 94 858 c 0
 116 898 134 928 148 946 c 0
EndSplineSet
Validated: 1
EndChar
StartChar: threequarters
Encoding: 126 190 126
GlifName: threequarters
Width: 1076
VWidth: 0
Flags: W
LayerCount: 2
Fore
SplineSet
831 847 m 256
 854 847 885 836 885 821 c 256
 885 809 873 795 861 790 c 256
 834 779 810 751 785 719 c 256
 714 626 653 534 590 433 c 256
 550 369 512 300 466 233 c 256
 441 193 429 176 406 140 c 256
 392 117 361 61 354 33 c 256
 354 31 352 24 352 19 c 256
 352 -4 380 9 380 -14 c 256
 380 -24 365 -30 348 -30 c 256
 317 -30 280 -8 280 25 c 256
 280 49 287 75 300 99 c 256
 324 149 316 148 376 243 c 256
 474 398 539 498 612 613 c 256
 670 704 638 667 700 756 c 256
 725 792 764 825 782 837 c 256
 790 842 815 847 831 847 c 256
900 548 m 256
 922 548 940 522 940 500 c 256
 940 494 934 487 925 479 c 257
 925 465 l 258
 925 434 917 377 917 314 c 258
 917 272 l 257
 964 278 1001 284 1014 284 c 256
 1031 284 1045 280 1045 265 c 256
 1045 241 1028 223 1012 218 c 256
 983 209 951 201 921 195 c 257
 926 101 938 57 938 51 c 256
 938 25 934 -3 908 -3 c 256
 884 -3 855 25 847 55 c 256
 842 74 837 128 834 183 c 257
 812 181 791 180 773 180 c 256
 645 180 610 214 610 275 c 256
 610 326 686 406 732 448 c 256
 771 484 871 548 900 548 c 256
831 263 m 257
 830 280 830 295 830 307 c 256
 830 346 834 381 838 420 c 257
 805 397 692 308 692 282 c 256
 692 266 717 261 776 261 c 256
 794 261 813 262 831 263 c 257
46 896 m 256
 46 939 192 1002 224 1002 c 256
 238 1002 262 1000 294 992 c 256
 318 984 336 970 346 950 c 256
 356 932 364 914 364 898 c 256
 364 846 299 769 262 732 c 257
 338 732 432 668 432 588 c 256
 432 556 418 522 386 484 c 256
 354 446 306 428 244 428 c 256
 210 428 178 438 154 454 c 256
 146 460 144 472 144 494 c 256
 144 514 146 526 154 530 c 256
 156 532 162 532 170 532 c 256
 198 532 210 530 216 520 c 256
 220 514 228 512 240 512 c 256
 270 512 324 527 340 554 c 256
 342 562 344 566 344 572 c 256
 344 582 340 590 334 600 c 256
 307 644 251 652 204 652 c 256
 178 652 168 644 150 644 c 256
 126 644 108 678 108 694 c 256
 108 704 114 710 122 720 c 256
 132 734 158 748 172 758 c 256
 200 777 278 846 278 882 c 256
 278 907 243 909 224 909 c 256
 216 909 207 906 176 890 c 256
 126 864 100 854 90 854 c 256
 62 854 46 888 46 896 c 256
EndSplineSet
Validated: 1
EndChar
StartChar: questiondown
Encoding: 191 191 127
GlifName: questiondown
Width: 504
VWidth: 0
Flags: W
LayerCount: 2
Fore
SplineSet
206 502 m 256
 206 534 224 552 260 552 c 256
 298 552 320 538 320 500 c 256
 320 474 298 436 278 436 c 256
 262 436 206 464 206 502 c 256
202 258 m 256
 202 282 214 330 238 330 c 256
 262 330 284 294 284 262 c 256
 284 160 262 112 246 78 c 256
 238 64 228 46 212 26 c 256
 158 -34 136 -80 136 -134 c 256
 136 -186 170 -206 220 -206 c 256
 250 -206 274 -200 300 -190 c 256
 354 -170 384 -124 432 -124 c 256
 454 -124 466 -132 466 -142 c 256
 466 -168 438 -198 382 -234 c 256
 370 -244 332 -260 292 -280 c 256
 272 -290 240 -292 200 -292 c 256
 130 -292 106 -274 76 -242 c 256
 58 -222 48 -200 48 -146 c 256
 48 -56 72 -24 114 28 c 256
 126 44 142 64 156 88 c 256
 166 104 172 114 176 118 c 256
 196 140 202 162 202 258 c 256
EndSplineSet
Validated: 1
EndChar
StartChar: Atilde
Encoding: 131 195 131
GlifName: A_tilde
Width: 624
VWidth: 0
Flags: W
LayerCount: 2
Fore
SplineSet
251 1131 m 256
 263 1138 277 1139 293 1139 c 256
 352 1139 424 1077 456 1077 c 256
 480 1077 502 1088 520 1102 c 256
 538 1116 554 1130 572 1130 c 256
 584 1130 604 1121 604 1099 c 256
 604 1030 511 994 453 994 c 256
 379 994 334 1045 295 1045 c 256
 283 1045 268 1034 258 1024 c 256
 233 999 190 953 159 953 c 256
 143 953 136 956 126 974 c 256
 122 982 120 988 120 992 c 256
 120 1007 232 1120 251 1131 c 256
238 544 m 256
 228 520 226 506 188 412 c 256
 178 390 170 372 170 368 c 256
 184 364 198 364 212 360 c 256
 220 358 254 352 324 352 c 256
 388 352 422 360 450 364 c 257
 444 420 444 440 420 566 c 256
 406 654 398 700 398 706 c 256
 396 720 392 738 384 760 c 256
 376 782 358 804 356 804 c 256
 354 804 344 782 336 766 c 256
 298 676 278 636 266 612 c 256
 252 586 250 576 238 544 c 256
122 442 m 256
 138 474 146 516 182 588 c 256
 198 628 204 654 222 696 c 256
 240 738 256 780 280 834 c 256
 292 864 308 900 310 900 c 256
 314 902 328 904 348 904 c 256
 368 904 374 902 384 898 c 256
 409 888 454 833 460 808 c 256
 464 792 470 774 482 728 c 256
 488 712 490 680 496 628 c 256
 508 510 524 402 542 304 c 256
 560 206 586 150 592 132 c 256
 598 110 610 70 610 48 c 256
 610 24 588 -8 566 -8 c 256
 554 -8 538 -2 538 16 c 256
 538 48 514 78 502 118 c 256
 486 166 470 242 460 282 c 257
 418 269 375 264 331 264 c 258
 286 264 l 258
 272 264 262 264 254 266 c 256
 234 272 214 272 196 274 c 256
 178 276 164 280 150 288 c 257
 123 234 110 176 104 116 c 256
 100 66 90 42 66 42 c 256
 54 42 40 52 30 70 c 256
 24 78 20 86 20 98 c 256
 20 112 22 134 28 160 c 256
 40 255 76 358 122 442 c 256
EndSplineSet
Validated: 1
EndChar
StartChar: Aring
Encoding: 133 197 133
GlifName: A_ring
Width: 566
VWidth: 0
Flags: W
LayerCount: 2
Fore
SplineSet
296 680 m 256
 290 692 286 708 274 708 c 256
 268 708 260 702 256 696 c 256
 232 658 216 610 196 556 c 256
 194 546 194 534 190 518 c 256
 180 464 170 384 156 340 c 257
 168 342 200 344 226 344 c 256
 242 344 252 344 262 346 c 256
 304 352 312 352 344 354 c 258
 384 354 l 257
 384 354 376 378 372 394 c 256
 368 410 368 440 364 450 c 256
 360 460 360 494 354 508 c 256
 348 522 346 538 340 556 c 256
 324 610 308 652 296 680 c 256
336 886 m 256
 336 910 286 984 260 984 c 256
 211 984 188 925 188 884 c 256
 188 878 188 878 190 876 c 256
 203 855 253 832 278 832 c 256
 306 832 336 856 336 886 c 256
44 0 m 256
 18 0 14 14 14 46 c 256
 14 60 14 70 20 76 c 256
 26 82 40 142 60 254 c 256
 64 270 82 344 82 368 c 256
 82 380 106 498 116 542 c 256
 130 616 154 654 176 712 c 256
 182 726 198 746 214 760 c 257
 204 766 180 768 166 782 c 256
 146 804 118 828 112 840 c 256
 102 862 98 904 98 940 c 256
 98 956 110 986 120 1004 c 256
 142 1038 178 1070 246 1070 c 256
 326 1070 368 1018 398 954 c 256
 412 922 420 896 420 882 c 256
 420 860 402 826 382 794 c 256
 370 774 360 772 354 768 c 257
 360 758 378 714 380 712 c 256
 393 701 418 616 422 594 c 256
 434 546 444 524 446 500 c 256
 450 456 472 332 486 258 c 256
 492 226 506 184 514 168 c 256
 522 152 546 94 546 68 c 256
 546 48 502 4 482 4 c 256
 470 4 462 42 456 58 c 256
 450 76 444 112 426 162 c 256
 410 208 392 264 386 298 c 257
 376 288 362 282 350 276 c 256
 332 268 274 262 212 262 c 256
 186 262 150 262 144 260 c 257
 138 208 100 120 100 60 c 256
 100 12 80 0 44 0 c 256
EndSplineSet
Validated: 1
EndChar
StartChar: Ccedilla
Encoding: 199 199 135
Width: 720
GlyphClass: 1
Flags: W
LayerCount: 2
Fore
SplineSet
56 315 m 0
 50 340 41 341.999023438 41 382.999023438 c 0
 41 459.999023438 79 668.999023438 117 732.999023438 c 0
 168 810.999023438 221 874.999023438 278 901.999023438 c 0
 295 909.999023438 316 911.999023438 341 911.999023438 c 0
 419 911.999023438 537 880.999023438 565 835.999023438 c 0
 578 817.999023438 584 798.999023438 584 779.999023438 c 0
 584 757.999023438 573 726.999023438 540 726.999023438 c 0
 525 726.999023438 512 741.999023438 512 755.999023438 c 0
 512 795.999023438 406 817.999023438 356 817.999023438 c 0
 324 817.999023438 305 810.999023438 293 802.999023438 c 0
 252 772.999023438 219 730.999023438 202 698.999023438 c 0
 168 635.999023438 130 470.999023438 130 418.999023438 c 0
 130 350.999023438 153 291.999023438 187 227.999023438 c 0
 229 151.999023438 246 149.999023438 269 126.999023438 c 0
 282 113.999023438 354 78.9990234375 388 78.9990234375 c 0
 421 78.9990234375 445 97.9990234375 483 111.999023438 c 0
 495 114.999023438 502 114.999023438 512 120.999023438 c 0
 531 130.999023438 544 139.999023438 559 151.999023438 c 0
 584 175.999023438 609 190.999023438 643 190.999023438 c 0
 668 190.999023438 675 187.999023438 675 171.999023438 c 0
 675 154.999023438 615 109.999023438 588 88.9990234375 c 0
 558 63.9990234375 548 57.9990234375 518 40.9990234375 c 0
 508 35.9990234375 483 10.9990234375 474 8.9990234375 c 1
 480 -29.0009765625 497 -42.0009765625 510 -63.0009765625 c 0
 540 -115.000976562 550 -116.000976562 550 -181.000976562 c 0
 550 -248.000976562 451 -324.000976562 350 -324.000976562 c 0
 293 -324.000976562 231 -293.000976562 231 -268.000976562 c 0
 231 -251.000976562 248 -229.000976562 263 -229.000976562 c 0
 269 -229.000976562 276 -232.000976562 288 -236.000976562 c 0
 299 -242.000976562 314 -244.000976562 335 -244.000976562 c 0
 385 -244.000976562 421 -230.000976562 444 -204.000976562 c 0
 457 -187.000976562 464 -173.000976562 464 -166.000976562 c 0
 464 -149.000976562 444 -109.000976562 425 -90.0009765625 c 0
 409 -75.0009765625 400 -59.0009765625 394 -42.0009765625 c 0
 392.381835938 -37.9560546875 389.455078125 -28.0205078125 389.455078125 -15.37109375 c 0
 389.455078125 -12.384765625 389.618164062 -9.2470703125 390 -6 c 1
 387 -6 371 -8 358 -8 c 0
 305 -8 235 34 185 81 c 0
 157 110 69 260 56 315 c 0
EndSplineSet
Validated: 1
EndChar
StartChar: Egrave
Encoding: 136 200 136
GlifName: E_grave
Width: 662
VWidth: 0
Flags: W
LayerCount: 2
Fore
SplineSet
162 1093 m 256
 162 1121 186 1133 212 1133 c 256
 234 1133 256 1123 278 1105 c 256
 324 1067 350 1049 366 1037 c 256
 424 995 438 981 438 971 c 256
 438 943 412 933 387 933 c 256
 371 933 357 939 345 947 c 256
 333 955 312 965 261 1007 c 256
 217 1043 196 1058 185 1064 c 256
 167 1074 162 1087 162 1093 c 256
177 250 m 256
 177 186 179 137 200 103 c 256
 214 80 231 79 269 79 c 258
 288 79 l 258
 330 79 360 83 373 87 c 256
 448 111 531 123 610 123 c 256
 622 123 629 122 629 110 c 256
 629 75 577 49 549 43 c 256
 533 40 513 39 499 35 c 256
 411 14 309 -3 220 -3 c 256
 167 -3 113 49 101 113 c 256
 97.4785 131.782 96.4062 163.887 96.4062 204.758 c 256
 96.4062 268.337 99 353.131 99 442 c 256
 99 519 92 718 83 792 c 257
 78 792 l 258
 65 792 51 793 42 804 c 256
 33 817 31 829 31 838 c 256
 31 848 44 860 58 865 c 256
 70 871 75 877 82 881 c 257
 83 881 l 257
 111 887 129 889 224 889 c 256
 360 889 456 891 491 901 c 256
 500 903 508 909 518 909 c 256
 532 909 551 907 575 901 c 256
 585 899 589 896 589 882 c 256
 589 852 579 841 539 828 c 256
 486 812 358 806 298 802 c 256
 260 800 232 798 171 796 c 257
 173 767 177 741 177 710 c 258
 177 604 l 258
 177 568 179 529 179 495 c 257
 236 490 275 486 321 486 c 256
 368 486 422 490 511 501 c 256
 528 503 535 504 544 505 c 256
 554 505 569 486 569 468 c 256
 569 456 558 443 531 437 c 256
 484 432 410 407 330 407 c 256
 278 407 222 408 179 412 c 257
 179 368 177 306 177 250 c 256
EndSplineSet
Validated: 524289
EndChar
StartChar: Ecircumflex
Encoding: 202 202 138
Width: 662
GlyphClass: 1
Flags: W
LayerCount: 2
Fore
SplineSet
194 970 m 0
 176 952 162 942 156 942 c 0
 153 942 152 941 149 941 c 0
 145 941 140 943 130 953 c 0
 120.470703125 962.529296875 118.228515625 970.376953125 118.228515625 976.54296875 c 0
 118.228515625 982.024414062 120 986.176757812 120 989 c 0
 120 1017 200 1092 224 1113 c 0
 247 1132 288 1173 331 1173 c 0
 377 1173 398 1147 432 1101 c 0
 454 1071 489 1035 504 1027 c 0
 520 1019 528 1009 528 995 c 0
 528 967 501 957 477 957 c 0
 440 957 405 993 373 1041 c 0
 361 1059 344 1085 331 1085 c 0
 306 1085 216 992 194 970 c 0
177 250 m 0
 177 186 179 137 200 103 c 0
 214 80 231 79 269 79 c 2
 288 79 l 2
 330 79 360 83 373 87 c 0
 448 111 531 123 610 123 c 0
 622 123 629 122 629 110 c 0
 629 75 577 49 549 43 c 0
 533 40 513 39 499 35 c 0
 411 14 309 -3 220 -3 c 0
 167 -3 113 49 101 113 c 0
 97.478515625 131.782226562 96.40625 163.88671875 96.40625 204.7578125 c 0
 96.40625 268.336914062 99 353.130859375 99 442 c 0
 99 519 92 718 83 792 c 1
 78 792 l 2
 65 792 51 793 42 804 c 0
 33 817 31 829 31 838 c 0
 31 848 44 860 58 865 c 0
 70 871 75 877 82 881 c 1
 83 881 l 1
 111 887 129 889 224 889 c 0
 360 889 456 891 491 901 c 0
 500 903 508 909 518 909 c 0
 532 909 551 907 575 901 c 0
 585 899 589 896 589 882 c 0
 589 852 579 841 539 828 c 0
 486 812 358 806 298 802 c 0
 260 800 232 798 171 796 c 1
 173 767 177 741 177 710 c 2
 177 604 l 2
 177 568 179 529 179 495 c 1
 236 490 275 486 321 486 c 0
 368 486 422 490 511 501 c 0
 528 503 535 504 544 505 c 0
 554 505 569 486 569 468 c 0
 569 456 558 443 531 437 c 0
 484 432 410 407 330 407 c 0
 278 407 222 408 179 412 c 1
 179 368 177 306 177 250 c 0
EndSplineSet
Validated: 1
EndChar
StartChar: Edieresis
Encoding: 139 203 139
GlifName: E_dieresis
Width: 662
VWidth: 0
Flags: W
LayerCount: 2
Fore
SplineSet
118 1101 m 256
 124 1109 138 1117 142 1117 c 256
 146 1117 160 1117 174 1107 c 256
 186 1099 198 1069 224 1049 c 256
 238 1039 244 1021 244 999 c 256
 244 993 242 989 240 983 c 256
 238 979 232 977 226 977 c 256
 178 977 149 1006 122 1041 c 256
 114.355 1051.51 111.733 1063.39 111.733 1074.02 c 256
 111.733 1085.65 114.866 1095.78 118 1101 c 256
406 1115 m 256
 440 1115 446 1107 474 1071 c 256
 490 1051 504 1047 504 1023 c 256
 504 991 496 979 472 979 c 256
 458 979 422 1011 402 1031 c 256
 384 1051 372 1067 372 1087 c 256
 372 1107 386 1115 406 1115 c 256
177 250 m 256
 177 186 179 137 200 103 c 256
 214 80 231 79 269 79 c 258
 288 79 l 258
 330 79 360 83 373 87 c 256
 448 111 531 123 610 123 c 256
 622 123 629 122 629 110 c 256
 629 75 577 49 549 43 c 256
 533 40 513 39 499 35 c 256
 411 14 309 -3 220 -3 c 256
 167 -3 113 49 101 113 c 256
 97.4785 131.782 96.4062 163.887 96.4062 204.758 c 256
 96.4062 268.337 99 353.131 99 442 c 256
 99 519 92 718 83 792 c 257
 78 792 l 258
 65 792 51 793 42 804 c 256
 33 817 31 829 31 838 c 256
 31 848 44 860 58 865 c 256
 70 871 75 877 82 881 c 257
 83 881 l 257
 111 887 129 889 224 889 c 256
 360 889 456 891 491 901 c 256
 500 903 508 909 518 909 c 256
 532 909 551 907 575 901 c 256
 585 899 589 896 589 882 c 256
 589 852 579 841 539 828 c 256
 486 812 358 806 298 802 c 256
 260 800 232 798 171 796 c 257
 173 767 177 741 177 710 c 258
 177 604 l 258
 177 568 179 529 179 495 c 257
 236 490 275 486 321 486 c 256
 368 486 422 490 511 501 c 256
 528 503 535 504 544 505 c 256
 554 505 569 486 569 468 c 256
 569 456 558 443 531 437 c 256
 484 432 410 407 330 407 c 256
 278 407 222 408 179 412 c 257
 179 368 177 306 177 250 c 256
EndSplineSet
Validated: 524289
EndChar
StartChar: Icircumflex
Encoding: 142 206 142
GlifName: I_circumflex
Width: 572
VWidth: 0
Flags: W
LayerCount: 2
Fore
SplineSet
172 1003 m 256
 154 985 140 975 134 975 c 256
 131 975 130 974 127 974 c 256
 123 974 118 976 108 986 c 256
 98.4707 995.529 96.2285 1003.38 96.2285 1009.54 c 256
 96.2285 1015.02 98 1019.18 98 1022 c 256
 98 1050 178 1125 202 1146 c 256
 225 1165 266 1206 309 1206 c 256
 355 1206 376 1180 410 1134 c 256
 432 1104 467 1068 482 1060 c 256
 498 1052 506 1042 506 1028 c 256
 506 1000 479 990 455 990 c 256
 418 990 383 1026 351 1074 c 256
 339 1092 322 1118 309 1118 c 256
 284 1118 194 1025 172 1003 c 256
251 408 m 256
 251 476 255 597 255 666 c 256
 255 737 253 769 252 784 c 257
 210 776 165 773 152 773 c 256
 139 773 74 774 65 778 c 256
 60 781 51 789 51 820 c 256
 51 828 55 834 63 835 c 256
 116 844 211 856 248 866 c 257
 249 869 l 258
 252 880 262 889 280 889 c 256
 291 889 310 885 318 876 c 257
 320 875 l 257
 346 876 374 877 396 877 c 256
 417 877 434 876 441 875 c 256
 470 871 479 862 479 849 c 256
 479 832 467 809 450 803 c 256
 445 800 431 796 409 796 c 256
 396 796 380 797 364 797 c 256
 353 797 342 796 333 795 c 257
 336 769 337 736 337 678 c 256
 337 558 335 449 335 324 c 256
 335 288 341 211 341 176 c 256
 341 171 340 159 337 156 c 256
 333 154 329 149 323 144 c 256
 308 131 289 115 278 115 c 256
 276 116 275 117 273 118 c 256
 257 132 255 158 255 198 c 256
 255 255 251 329 251 408 c 256
500 101 m 256
 517 101 531 88 531 62 c 256
 531 47 491 1 475 1 c 256
 451 3 416 4 381 4 c 256
 304 4 210 9 155 17 c 256
 105 24 83 32 83 68 c 256
 83 103 98 125 126 125 c 256
 139 125 150 121 156 114 c 256
 179 96 297 87 327 87 c 256
 395 87 438 101 500 101 c 256
EndSplineSet
Validated: 524289
EndChar
StartChar: Idieresis
Encoding: 207 207 143
Width: 572
GlyphClass: 1
Flags: W
LayerCount: 2
Fore
SplineSet
96 1134 m 0
 102 1142 116 1150 120 1150 c 0
 124 1150 138 1150 152 1140 c 0
 164 1132 176 1102 202 1082 c 0
 216 1072 222 1054 222 1032 c 0
 222 1026 220 1022 218 1016 c 0
 216 1012 210 1010 204 1010 c 0
 156 1010 127 1039 100 1074 c 0
 92.35546875 1084.51074219 89.7333984375 1096.39160156 89.7333984375 1107.02441406 c 0
 89.7333984375 1118.64648438 92.8662109375 1128.77734375 96 1134 c 0
384 1148 m 0
 418 1148 424 1140 452 1104 c 0
 468 1084 482 1080 482 1056 c 0
 482 1024 474 1012 450 1012 c 0
 436 1012 400 1044 380 1064 c 0
 362 1084 350 1100 350 1120 c 0
 350 1140 364 1148 384 1148 c 0
251 408 m 0
 251 476 255 597 255 666 c 0
 255 737 253 769 252 784 c 1
 210 776 165 773 152 773 c 0
 139 773 74 774 65 778 c 0
 60 781 51 789 51 820 c 0
 51 828 55 834 63 835 c 0
 116 844 211 856 248 866 c 1
 249 869 l 2
 252 880 262 889 280 889 c 0
 291 889 310 885 318 876 c 1
 320 875 l 1
 346 876 374 877 396 877 c 0
 417 877 434 876 441 875 c 0
 470 871 479 862 479 849 c 0
 479 832 467 809 450 803 c 0
 445 800 431 796 409 796 c 0
 396 796 380 797 364 797 c 0
 353 797 342 796 333 795 c 1
 336 769 337 736 337 678 c 0
 337 558 335 449 335 324 c 0
 335 288 341 211 341 176 c 0
 341 171 340 159 337 156 c 0
 333 154 329 149 323 144 c 0
 308 131 289 115 278 115 c 0
 276 116 275 117 273 118 c 0
 257 132 255 158 255 198 c 0
 255 255 251 329 251 408 c 0
500 101 m 0
 517 101 531 88 531 62 c 0
 531 47 491 1 475 1 c 0
 451 3 416 4 381 4 c 0
 304 4 210 9 155 17 c 0
 105 24 83 32 83 68 c 0
 83 103 98 125 126 125 c 0
 139 125 150 121 156 114 c 0
 179 96 297 87 327 87 c 0
 395 87 438 101 500 101 c 0
EndSplineSet
Validated: 1
EndChar
StartChar: Eth
Encoding: 208 208 144
Width: 772
GlyphClass: 1
Flags: W
LayerCount: 2
Fore
SplineSet
353 773 m 0
 324 785 300 790 279 796 c 1
 264 796 234 796 221 788 c 1
 219 782 217 758 217 748 c 0
 217 737 219 705 219 660 c 0
 219 586 223 539 227 517 c 1
 250 518 280 520 308 520 c 0
 341 520 366 522 396 522 c 0
 467 522 505 518 510 511 c 0
 516 503 518 496 518 488 c 0
 518 475 507 470 488 463 c 0
 478 460 463 455 457 454 c 0
 443 450 407 446 333 440 c 0
 302 438 271 437 238 435 c 1
 241 414 253 325 257 296 c 0
 264 233 273 172 287 110 c 1
 347 110 370 118 423 152 c 0
 533 215 617 328 617 458 c 0
 617 547 599 590 558 632 c 0
 511 681 417 746 353 773 c 0
93 812 m 0
 93 842 131 878 159 885 c 0
 167 887 187 889 222 889 c 0
 256 889 295 888 334 874 c 0
 466 826 563 758 640 674 c 0
 677 633 704 551 704 498 c 0
 704 382 657 264 607 199 c 0
 543 114 391 13 284 13 c 0
 266 13 251 14 239 19 c 0
 219 27 210 57 202 108 c 0
 199 127 193 159 186 205 c 0
 180 253 173 294 168 330 c 0
 163 371 159 405 156 427 c 1
 132 426 110 421 93 421 c 0
 50 421 30 426 30 459 c 0
 30 472 40 482 56 494 c 0
 78 509 110 508 146 511 c 1
 142 545 138 592 136 627 c 0
 134 674 134 744 132 753 c 1
 127 755 117 763 111 768 c 0
 96 784 93 795 93 812 c 0
EndSplineSet
Validated: 1
EndChar
StartChar: Ntilde
Encoding: 145 209 145
GlifName: N_tilde
Width: 772
VWidth: 0
Flags: W
LayerCount: 2
Fore
SplineSet
259 1123 m 256
 271 1130 285 1131 301 1131 c 256
 360 1131 432 1069 464 1069 c 256
 488 1069 510 1080 528 1094 c 256
 546 1108 562 1122 580 1122 c 256
 592 1122 612 1113 612 1091 c 256
 612 1022 519 986 461 986 c 256
 387 986 342 1037 303 1037 c 256
 291 1037 276 1026 266 1016 c 256
 241 991 198 945 167 945 c 256
 151 945 144 948 134 966 c 256
 130 974 128 980 128 984 c 256
 128 999 240 1112 259 1123 c 256
242 468 m 256
 232 478 168 612 150 656 c 257
 148 628 146 612 146 548 c 256
 146 400 148 478 148 340 c 256
 150 222 162 140 182 98 c 256
 192 78 198 60 198 48 c 256
 198 20 170 -6 142 -6 c 256
 122 -6 108 2 102 22 c 256
 96 60 94 94 90 122 c 256
 88 132 72 312 70 322 c 256
 66 354 64 454 64 616 c 256
 64 734 66 808 68 838 c 256
 70 868 74 886 80 892 c 256
 88 898 96 900 106 900 c 256
 132 900 154 880 168 842 c 256
 168 840 186 798 226 716 c 256
 256 658 262 614 314 520 c 256
 354 448 400 392 430 318 c 256
 452 266 584 94 608 94 c 256
 620 94 626 96 626 148 c 256
 626 166 620 180 618 196 c 256
 613.312 225.689 611.981 254.464 611.981 280.891 c 256
 611.981 315.583 614.274 346.23 614.274 369.599 c 256
 614.274 373.998 614.193 378.139 614 382 c 256
 604 598 596 752 586 786 c 256
 584 794 582 798 582 804 c 256
 582 830 594 854 614 878 c 256
 626 890 646 898 674 898 c 256
 692 898 702 898 706 896 c 256
 710 894 714 888 714 878 c 256
 714 866 708 852 698 840 c 256
 684 824 670 816 670 806 c 256
 670 736 678 656 682 584 c 256
 682.667 576.667 682.889 570.223 682.889 564.519 c 256
 682.889 553.111 682 544.667 682 538 c 256
 688 464 688 430 694 362 c 256
 694.53 354.574 694.744 347.922 694.744 341.797 c 256
 694.744 316.252 691.024 299.863 691.024 274.708 c 256
 691.024 260.405 692.227 243.267 696 220 c 256
 700 194 704 186 704 132 c 256
 704 76 698 46 688 14 c 256
 678 -12 648 -12 636 -12 c 256
 550 -12 422 146 364 262 c 256
 360 270 292 398 242 468 c 256
EndSplineSet
Validated: 524289
EndChar
StartChar: Ograve
Encoding: 146 210 146
GlifName: O_grave
Width: 756
VWidth: 0
Flags: W
LayerCount: 2
Fore
SplineSet
218 1120 m 256
 218 1148 242 1160 268 1160 c 256
 290 1160 312 1150 334 1132 c 256
 380 1094 406 1076 422 1064 c 256
 480 1022 494 1008 494 998 c 256
 494 970 468 960 443 960 c 256
 427 960 413 966 401 974 c 256
 389 982 368 992 317 1034 c 256
 273 1070 252 1085 241 1091 c 256
 223 1101 218 1114 218 1120 c 256
218 780 m 257
 214 782 200 790 196 790 c 256
 186 790 176 738 176 724 c 257
 176 724 208 770 218 780 c 257
564 214 m 256
 596 268 626 340 626 420 c 256
 626 524 624 562 616 598 c 256
 596 694 578 822 460 822 c 256
 422 822 392 814 370 804 c 256
 309 773 215 658 186 596 c 256
 176 578 166 572 156 572 c 257
 151 559 140 463 140 450 c 256
 140 428.667 139.803 411.086 139.803 395.745 c 256
 139.803 342.05 142.223 315.777 164 252 c 256
 174 220 188 194 198 176 c 256
 246 104 290 76 366 76 c 256
 396 76 440 96 456 106 c 256
 514 148 542 178 564 214 c 256
182 892 m 256
 206 892 266 856 276 842 c 257
 328 880 376 904 452 904 c 256
 506 904 546 892 578 858 c 256
 624 808 624 790 656 724 c 256
 686 664 702 570 702 444 c 256
 702 366 694 310 682 280 c 256
 642 187 582 98 496 42 c 256
 446 8 380 -12 350 -12 c 256
 240 -12 165 51 118 144 c 256
 88 198 90 206 80 258 c 256
 74 290 56 322 56 398 c 256
 56 536 74 626 84 676 c 256
 100 746 92 804 128 856 c 256
 144 880 162 892 182 892 c 256
EndSplineSet
Validated: 524289
EndChar
StartChar: Oacute
Encoding: 147 211 147
GlifName: O_acute
Width: 756
VWidth: 0
Flags: W
LayerCount: 2
Fore
SplineSet
448 1176 m 256
 466 1190 484 1196 500 1196 c 256
 525 1196 540 1183 540 1158 c 256
 540 1115 346 977 298 956 c 256
 292 953 284 952 277 952 c 256
 264 952 236 961 236 978 c 256
 236 984 234 996 252 1014 c 256
 266 1028 307 1063 347 1095 c 256
 385 1126 422 1158 448 1176 c 256
218 780 m 257
 214 782 200 790 196 790 c 256
 186 790 176 738 176 724 c 257
 176 724 208 770 218 780 c 257
564 214 m 256
 596 268 626 340 626 420 c 256
 626 524 624 562 616 598 c 256
 596 694 578 822 460 822 c 256
 422 822 392 814 370 804 c 256
 309 773 215 658 186 596 c 256
 176 578 166 572 156 572 c 257
 151 559 140 463 140 450 c 256
 140 428.667 139.803 411.086 139.803 395.745 c 256
 139.803 342.05 142.223 315.777 164 252 c 256
 174 220 188 194 198 176 c 256
 246 104 290 76 366 76 c 256
 396 76 440 96 456 106 c 256
 514 148 542 178 564 214 c 256
182 892 m 256
 206 892 266 856 276 842 c 257
 328 880 376 904 452 904 c 256
 506 904 546 892 578 858 c 256
 624 808 624 790 656 724 c 256
 686 664 702 570 702 444 c 256
 702 366 694 310 682 280 c 256
 642 187 582 98 496 42 c 256
 446 8 380 -12 350 -12 c 256
 240 -12 165 51 118 144 c 256
 88 198 90 206 80 258 c 256
 74 290 56 322 56 398 c 256
 56 536 74 626 84 676 c 256
 100 746 92 804 128 856 c 256
 144 880 162 892 182 892 c 256
EndSplineSet
Validated: 524321
EndChar
StartChar: Ocircumflex
Encoding: 212 212 148
Width: 756
GlyphClass: 1
Flags: W
LayerCount: 2
Fore
SplineSet
250 997 m 0
 232 979 218 969 212 969 c 0
 209 969 208 968 205 968 c 0
 201 968 196 970 186 980 c 0
 176.470703125 989.529296875 174.228515625 997.376953125 174.228515625 1003.54296875 c 0
 174.228515625 1009.02441406 176 1013.17675781 176 1016 c 0
 176 1044 256 1119 280 1140 c 0
 303 1159 344 1200 387 1200 c 0
 433 1200 454 1174 488 1128 c 0
 510 1098 545 1062 560 1054 c 0
 576 1046 584 1036 584 1022 c 0
 584 994 557 984 533 984 c 0
 496 984 461 1020 429 1068 c 0
 417 1086 400 1112 387 1112 c 0
 362 1112 272 1019 250 997 c 0
218 780 m 1
 214 782 200 790 196 790 c 0
 186 790 176 738 176 724 c 1
 176 724 208 770 218 780 c 1
564 214 m 0
 596 268 626 340 626 420 c 0
 626 524 624 562 616 598 c 0
 596 694 578 822 460 822 c 0
 422 822 392 814 370 804 c 0
 309 773 215 658 186 596 c 0
 176 578 166 572 156 572 c 1
 151 559 140 463 140 450 c 0
 140 428.666992188 139.802734375 411.0859375 139.802734375 395.745117188 c 0
 139.802734375 342.049804688 142.22265625 315.77734375 164 252 c 0
 174 220 188 194 198 176 c 0
 246 104 290 76 366 76 c 0
 396 76 440 96 456 106 c 0
 514 148 542 178 564 214 c 0
182 892 m 0
 206 892 266 856 276 842 c 1
 328 880 376 904 452 904 c 0
 506 904 546 892 578 858 c 0
 624 808 624 790 656 724 c 0
 686 664 702 570 702 444 c 0
 702 366 694 310 682 280 c 0
 642 187 582 98 496 42 c 0
 446 8 380 -12 350 -12 c 0
 240 -12 165 51 118 144 c 0
 88 198 90 206 80 258 c 0
 74 290 56 322 56 398 c 0
 56 536 74 626 84 676 c 0
 100 746 92 804 128 856 c 0
 144 880 162 892 182 892 c 0
EndSplineSet
Validated: 1
EndChar
StartChar: Odieresis
Encoding: 150 214 150
GlifName: O_dieresis
Width: 756
VWidth: 0
Flags: W
LayerCount: 2
Fore
SplineSet
174 1128 m 256
 180 1136 194 1144 198 1144 c 256
 202 1144 216 1144 230 1134 c 256
 242 1126 254 1096 280 1076 c 256
 294 1066 300 1048 300 1026 c 256
 300 1020 298 1016 296 1010 c 256
 294 1006 288 1004 282 1004 c 256
 234 1004 205 1033 178 1068 c 256
 170.355 1078.51 167.733 1090.39 167.733 1101.02 c 256
 167.733 1112.65 170.866 1122.78 174 1128 c 256
462 1142 m 256
 496 1142 502 1134 530 1098 c 256
 546 1078 560 1074 560 1050 c 256
 560 1018 552 1006 528 1006 c 256
 514 1006 478 1038 458 1058 c 256
 440 1078 428 1094 428 1114 c 256
 428 1134 442 1142 462 1142 c 256
218 780 m 257
 214 782 200 790 196 790 c 256
 186 790 176 738 176 724 c 257
 176 724 208 770 218 780 c 257
564 214 m 256
 596 268 626 340 626 420 c 256
 626 524 624 562 616 598 c 256
 596 694 578 822 460 822 c 256
 422 822 392 814 370 804 c 256
 309 773 215 658 186 596 c 256
 176 578 166 572 156 572 c 257
 151 559 140 463 140 450 c 256
 140 428.667 139.803 411.086 139.803 395.745 c 256
 139.803 342.05 142.223 315.777 164 252 c 256
 174 220 188 194 198 176 c 256
 246 104 290 76 366 76 c 256
 396 76 440 96 456 106 c 256
 514 148 542 178 564 214 c 256
182 892 m 256
 206 892 266 856 276 842 c 257
 328 880 376 904 452 904 c 256
 506 904 546 892 578 858 c 256
 624 808 624 790 656 724 c 256
 686 664 702 570 702 444 c 256
 702 366 694 310 682 280 c 256
 642 187 582 98 496 42 c 256
 446 8 380 -12 350 -12 c 256
 240 -12 165 51 118 144 c 256
 88 198 90 206 80 258 c 256
 74 290 56 322 56 398 c 256
 56 536 74 626 84 676 c 256
 100 746 92 804 128 856 c 256
 144 880 162 892 182 892 c 256
EndSplineSet
Validated: 524289
EndChar
StartChar: multiply
Encoding: 215 215 151
Width: 540
GlyphClass: 1
Flags: W
LayerCount: 2
Fore
SplineSet
184 80 m 0
 170 64 132 12 112 12 c 0
 94 12 60 34 60 56 c 0
 60 74 70 92 92 114 c 0
 114 136 128 146 136 156 c 0
 138 160 170 208 172 210 c 0
 180 220 204 244 214 254 c 1
 214 254 182 286 168 302 c 0
 106 372 18 442 18 472 c 0
 18 496 62 526 78 526 c 0
 84 526 90 524 98 516 c 0
 106 508 124 486 154 450 c 0
 192 402 226 370 252 352 c 0
 264 346 270 338 276 334 c 1
 288 346 316 384 322 392 c 0
 324 396 380 464 386 468 c 0
 398 478 402 488 428 512 c 0
 442 526 460 534 482 534 c 0
 510 534 512 520 512 490 c 0
 512 478 508 464 498 452 c 0
 488 440 464 416 428 378 c 0
 370 318 342 286 342 284 c 0
 342 282 360 260 398 218 c 0
 438 176 462 148 470 136 c 0
 476 128 498 112 516 92 c 0
 520 88 528 82 528 72 c 0
 528 40 498 22 472 22 c 0
 448 22 372 108 338 142 c 0
 318 162 310 168 306 174 c 0
 304 178 290 188 284 194 c 1
 274 182 260 164 238 142 c 0
 216 120 190 88 184 80 c 0
EndSplineSet
Validated: 1
EndChar
StartChar: Oslash
Encoding: 152 216 152
GlifName: O_slash
Width: 944
VWidth: 0
Flags: W
LayerCount: 2
Fore
SplineSet
724 414 m 256
 724 463 715 594 691 629 c 256
 684 640 678 652 676 654 c 257
 672 650 665 644 659 636 c 256
 653 629 636 616 612 598 c 256
 587 582 410 414 410 405 c 257
 367 353 304 298 266 241 c 257
 281 207 364 131 395 112 c 256
 416 99 439 89 463 87 c 256
 486 87 496 85 503 85 c 256
 584 85 691 237 701 304 c 256
 703 329 709 348 716 361 c 256
 722 370 724 389 724 414 c 256
406 826 m 256
 336 826 311 804 302 788 c 256
 277 750 253 711 249 654 c 256
 247 627 239 598 230 570 c 256
 220 545 216 500 216 435 c 256
 216 372 224 348 230 332 c 257
 237 336 247 350 266 369 c 256
 374 477 441 547 469 581 c 256
 501 614 532 642 558 665 c 256
 600 701 625 722 629 728 c 256
 627 731 619 739 615 743 c 256
 585 777 530 792 471 815 c 256
 448 825 427 826 406 826 c 256
230 859 m 256
 260 900 300 923 351 923 c 256
 420 923 427 906 494 895 c 256
 560 882 615 855 667 807 c 256
 672 802 690 787 693 781 c 257
 709 792 724 802 739 813 c 256
 769 836 790 861 840 861 c 256
 864 861 904 859 908 857 c 256
 916 853 925 834 925 823 c 256
 925 795 894 775 868 775 c 256
 833 775 770 737 747 712 c 257
 761 692 787 626 794 602 c 256
 800 589 802 547 802 473 c 256
 802 365 788 357 785 327 c 256
 779 260 723 160 680 108 c 256
 615 35 571 0 469 0 c 256
 405 0 295 78 251 120 c 256
 228 142 213 152 203 161 c 257
 193 152 144 97 144 87 c 256
 144 84 148 76 154 76 c 256
 159 76 161 70 161 61 c 256
 161 46 156 36 146 23 c 256
 137 9 121 -2 102 -8 c 256
 89 -13 85 -13 82 -13 c 256
 63 -13 17 33 17 51 c 256
 17 72 45 95 57 108 c 256
 87 152 99 177 137 215 c 256
 150 230 152 239 159 245 c 256
 159 247 156 258 154 272 c 257
 148 285 139 372 139 418 c 256
 139 464 146 505 146 551 c 256
 148 606 150 625 154 638 c 256
 156 644 159 665 161 709 c 256
 161 749 177 788 230 859 c 256
EndSplineSet
Validated: 1
EndChar
StartChar: Ugrave
Encoding: 153 217 153
GlifName: U_grave
Width: 650
VWidth: 0
Flags: W
LayerCount: 2
Fore
SplineSet
155 1150 m 256
 155 1178 179 1190 205 1190 c 256
 227 1190 249 1180 271 1162 c 256
 317 1124 343 1106 359 1094 c 256
 417 1052 431 1038 431 1028 c 256
 431 1000 405 990 380 990 c 256
 364 990 350 996 338 1004 c 256
 326 1012 305 1022 254 1064 c 256
 210 1100 189 1115 178 1121 c 256
 160 1131 155 1144 155 1150 c 256
52 792 m 256
 52 848 56 882 61 893 c 256
 69 904 82 911 101 911 c 256
 111 911 120 907 123 903 c 256
 132 892 135 864 135 820 c 256
 135 744 133 650 133 576 c 256
 133 475 144 320 179 228 c 256
 191 197 204 170 232 141 c 256
 272 99 304 74 330 74 c 256
 378 74 426 115 472 189 c 256
 503 240 512 268 518 330 c 256
 525 406 526 410 526 534 c 256
 526 768 510 812 483 842 c 256
 480 847 474 851 474 859 c 256
 474 870 485 882 496 894 c 256
 505 905 518 911 532 911 c 256
 544 911 581 876 592 798 c 256
 602 699 604 662 604 538 c 256
 604 520.909 604.033 505.537 604.033 491.361 c 256
 604.033 427.57 603.363 388 596 325 c 256
 587 252 581 219 538 142 c 256
 489 55 403 -7 324 -7 c 256
 264 -7 229 28 187 68 c 256
 151 103 125 144 102 200 c 256
 60 297 50 512 50 624 c 256
 50 675 52 742 52 792 c 256
EndSplineSet
Validated: 524289
EndChar
StartChar: Uacute
Encoding: 154 218 154
GlifName: U_acute
Width: 650
VWidth: 0
Flags: W
LayerCount: 2
Fore
SplineSet
385 1206 m 256
 403 1220 421 1226 437 1226 c 256
 462 1226 477 1213 477 1188 c 256
 477 1145 283 1007 235 986 c 256
 229 983 221 982 214 982 c 256
 201 982 173 991 173 1008 c 256
 173 1014 171 1026 189 1044 c 256
 203 1058 244 1093 284 1125 c 256
 322 1156 359 1188 385 1206 c 256
52 792 m 256
 52 848 56 882 61 893 c 256
 69 904 82 911 101 911 c 256
 111 911 120 907 123 903 c 256
 132 892 135 864 135 820 c 256
 135 744 133 650 133 576 c 256
 133 475 144 320 179 228 c 256
 191 197 204 170 232 141 c 256
 272 99 304 74 330 74 c 256
 378 74 426 115 472 189 c 256
 503 240 512 268 518 330 c 256
 525 406 526 410 526 534 c 256
 526 768 510 812 483 842 c 256
 480 847 474 851 474 859 c 256
 474 870 485 882 496 894 c 256
 505 905 518 911 532 911 c 256
 544 911 581 876 592 798 c 256
 602 699 604 662 604 538 c 256
 604 520.909 604.033 505.537 604.033 491.361 c 256
 604.033 427.57 603.363 388 596 325 c 256
 587 252 581 219 538 142 c 256
 489 55 403 -7 324 -7 c 256
 264 -7 229 28 187 68 c 256
 151 103 125 144 102 200 c 256
 60 297 50 512 50 624 c 256
 50 675 52 742 52 792 c 256
EndSplineSet
Validated: 524321
EndChar
StartChar: Ucircumflex
Encoding: 155 219 155
GlifName: U_circumflex
Width: 650
VWidth: 0
Flags: W
LayerCount: 2
Fore
SplineSet
187 1027 m 256
 169 1009 155 999 149 999 c 256
 146 999 145 998 142 998 c 256
 138 998 133 1000 123 1010 c 256
 113.471 1019.53 111.229 1027.38 111.229 1033.54 c 256
 111.229 1039.02 113 1043.18 113 1046 c 256
 113 1074 193 1149 217 1170 c 256
 240 1189 281 1230 324 1230 c 256
 370 1230 391 1204 425 1158 c 256
 447 1128 482 1092 497 1084 c 256
 513 1076 521 1066 521 1052 c 256
 521 1024 494 1014 470 1014 c 256
 433 1014 398 1050 366 1098 c 256
 354 1116 337 1142 324 1142 c 256
 299 1142 209 1049 187 1027 c 256
52 792 m 256
 52 848 56 882 61 893 c 256
 69 904 82 911 101 911 c 256
 111 911 120 907 123 903 c 256
 132 892 135 864 135 820 c 256
 135 744 133 650 133 576 c 256
 133 475 144 320 179 228 c 256
 191 197 204 170 232 141 c 256
 272 99 304 74 330 74 c 256
 378 74 426 115 472 189 c 256
 503 240 512 268 518 330 c 256
 525 406 526 410 526 534 c 256
 526 768 510 812 483 842 c 256
 480 847 474 851 474 859 c 256
 474 870 485 882 496 894 c 256
 505 905 518 911 532 911 c 256
 544 911 581 876 592 798 c 256
 602 699 604 662 604 538 c 256
 604 520.909 604.033 505.537 604.033 491.361 c 256
 604.033 427.57 603.363 388 596 325 c 256
 587 252 581 219 538 142 c 256
 489 55 403 -7 324 -7 c 256
 264 -7 229 28 187 68 c 256
 151 103 125 144 102 200 c 256
 60 297 50 512 50 624 c 256
 50 675 52 742 52 792 c 256
EndSplineSet
Validated: 524289
EndChar
StartChar: Thorn
Encoding: 222 222 158
Width: 606
GlyphClass: 1
Flags: W
LayerCount: 2
Fore
SplineSet
380 608 m 0
 362 614 338 619 304 619 c 0
 245 619 183 614 147 605 c 1
 145 586 145 548 145 500 c 0
 145 441 147 351 149 334 c 1
 168 328 200 326 259 326 c 0
 284 326 326 338 340 343 c 0
 373 354 429 398 441 419 c 0
 451 436 462 468 462 481 c 0
 462 541 444 564 429 579 c 0
 424 587 406 598 380 608 c 0
504 614 m 0
 530 580 540 562 540 477 c 0
 540 339 371 244 249 244 c 0
 211 244 184 246 147 248 c 1
 147 248 148 195 148 162 c 0
 148 110 144 50 140 31 c 0
 136 12 128 0 119 0 c 0
 117 0 113 2 106 4 c 0
 79 15 65 128 64 207 c 0
 63.5 267 63.25 313.75 63.25 360.375 c 0
 63.25 407 63.5 453.5 64 513 c 0
 65 570 68 639 68 661 c 0
 68 686 66 688 66 794 c 0
 66 865 69 903 75 908 c 0
 81 918 92 922 109 922 c 0
 117 922 125 920 132 914 c 0
 138 910 164 872 164 857 c 0
 164 855 162 843 156 821 c 0
 151 805 149 783 149 754 c 2
 149 690 l 1
 163 692 247 702 299 702 c 0
 374 702 460 680 504 614 c 0
EndSplineSet
Validated: 1
EndChar
StartChar: germandbls
Encoding: 223 223 159
GlifName: germandbls
Width: 634
VWidth: 0
Flags: HW
AnchorPoint: "bottom" 338 27 basechar 0
AnchorPoint: "top" 316 945 basechar 0
LayerCount: 2
Fore
SplineSet
138 476 m 256
 138 448 148.999 119 148.999 58 c 256
 148.999 14 141.999 -8 127.999 -8 c 256
 95.999 -8 82.999 20 74.999 66 c 256
 67.999 107 63.999 259 61.999 381 c 256
 59.5273 479.886 57.8193 505.815 57.8193 531.971 c 256
 57.8193 548.136 58.4717 564.387 60 598 c 256
 62 655 83 727 126 816 c 256
 148 861 200 911 254 911 c 256
 332 911 404 847 436 788 c 256
 448 771 459 731 459 676 c 256
 459 609 436 522 383 478 c 257
 396 474 417 459 453 434 c 256
 520 389 493 411 535 370 c 256
 565 343 588 259 588 189 c 256
 588 124 576 63 535 12 c 256
 525 1 489 -33 438 -33 c 256
 370 -33 326 -3 288 33 c 256
 267 52 258 71 258 88 c 256
 258 109 271 121 297 121 c 256
 303 121 318 111 347 90 c 256
 372 71 396 58 417 50 c 256
 427 47 434 45 440 45 c 256
 448 45 459 52 474 68 c 256
 493 88 510 147 510 172 c 256
 510 259 465 324 398 377 c 257
 372 403 289 417 250 417 c 256
 242 417 237 417 233 419 c 256
 225 423 221 448 221 451 c 256
 221 467 246 491 261 495 c 256
 282 501 324 524 347 563 c 256
 373 611 379 643 379 696 c 256
 379 712 358 759 334 786 c 256
 316 805 277 829 250 829 c 256
 212 829 172 729 164 693 c 256
 163 683 159 662 149 626 c 256
 142 600 138 550 138 476 c 256
EndSplineSet
Validated: 524289
EndChar
StartChar: atilde
Encoding: 163 227 163
GlifName: atilde
Width: 533
VWidth: 0
Flags: W
LayerCount: 2
Fore
SplineSet
145 783 m 256
 157 790 171 791 187 791 c 256
 246 791 318 729 350 729 c 256
 374 729 396 740 414 754 c 256
 432 768 448 782 466 782 c 256
 478 782 498 773 498 751 c 256
 498 682 405 646 347 646 c 256
 273 646 228 697 189 697 c 256
 177 697 162 686 152 676 c 256
 127 651 84 605 53 605 c 256
 37 605 30 608 20 626 c 256
 16 634 14 640 14 644 c 256
 14 659 126 772 145 783 c 256
274 230 m 256
 246 230 208 196 186 170 c 256
 168 148 150 110 150 98 c 256
 150 76 176 74 236 74 c 256
 287 74 340 93 380 124 c 257
 380 140 376 162 366 182 c 256
 356 206 308 230 274 230 c 256
224 548 m 256
 242 550 258 552 274 552 c 256
 306 552 322 550 356 538 c 256
 396 520 406 518 428 498 c 256
 480 446 484 367 484 298 c 256
 484 216 468 116 468 52 c 256
 468 38 464 18 460 12 c 256
 456 6 432 -6 416 -6 c 256
 400 -6 392 10 388 28 c 257
 340 2 266 -12 200 -12 c 256
 162 -12 116 -8 102 0 c 256
 84 10 56 74 56 96 c 256
 56 152 86 192 120 228 c 256
 158 268 200 314 296 314 c 256
 338 314 380 290 402 264 c 257
 402 282 404 290 404 308 c 256
 404 356 402 386 392 404 c 256
 378 438 324 462 274 462 c 256
 202 462 162 448 126 416 c 256
 100 394 102 368 62 368 c 256
 52 368 42 376 42 404 c 256
 42 422 44 434 50 444 c 256
 92 508 138 538 224 548 c 256
EndSplineSet
Validated: 1
Substitution2: "cv01CharacterVariants01lookup5 subtable" atilde.cv01
EndChar
StartChar: aring
Encoding: 229 229 165
Width: 526
GlyphClass: 1
Flags: W
LayerCount: 2
Fore
SplineSet
364 122 m 0
 348 140 291 173.000976562 249 173.000976562 c 0
 235 173.000976562 220 171.000976562 206 165.000976562 c 0
 199 164.000976562 186 162.000976562 179 158.000976562 c 0
 170 155.000976562 159 147.000976562 152 135.000976562 c 0
 148.602539062 128.885742188 146.58984375 117.692382812 146.58984375 106.125976562 c 0
 146.58984375 100.668945312 147.038085938 95.12890625 148 90 c 0
 154 66 163 56 183 56 c 0
 244 56 316 84 372 106 c 1
 368 117 366 119 364 122 c 0
195 626.000976562 m 0
 198 599.000976562 214 590.000976562 239 590.000976562 c 0
 245 590.000976562 250 590.000976562 255 594.000976562 c 0
 280 614.000976562 282 608.000976562 307 632.000976562 c 0
 323 646.000976562 334 664.000976562 334 678.000976562 c 0
 334 714.000976562 277 747.000976562 246 747.000976562 c 0
 240 747.000976562 226 743.000976562 219 729.000976562 c 0
 202 702.000976562 188 684.000976562 188 660.000976562 c 0
 188 648.000976562 193 632.000976562 195 626.000976562 c 0
229 822.000976562 m 0
 265 822.000976562 347.999023438 794.000976562 371.999023438 770.000976562 c 0
 392.999023438 749.000976562 417.999023438 705.000976562 417.999023438 675.000976562 c 0
 417.999023438 659.000976562 410.999023438 644.000976562 398.999023438 632.000976562 c 0
 385.999023438 619.000976562 374.999023438 603.000976562 365.999023438 592.000976562 c 0
 356.999023438 581.000976562 342.999023438 569.000976562 322.999023438 556.000976562 c 1
 336.999023438 549.000976562 349.999023438 542.000976562 363.999023438 525.000976562 c 0
 390.999023438 495.000976562 385.999023438 500.000976562 410.999023438 468.000976562 c 0
 421.999023438 452.000976562 439.999023438 381.000976562 441.999023438 281.000976562 c 0
 443.999023438 182.000976562 450.999023438 126.000976562 453.999023438 115.000976562 c 0
 457.999023438 102.000976562 461.999023438 84.0009765625 461.999023438 75.0009765625 c 0
 461.999023438 61.0009765625 461.999023438 34.0009765625 455.999023438 27.0009765625 c 0
 452.999023438 23.0009765625 439.999023438 14.0009765625 410.999023438 14.0009765625 c 0
 401.999023438 14.0009765625 399.999023438 20.0009765625 394.999023438 27.0009765625 c 0
 392.999023438 29.0009765625 390.999023438 32.0009765625 389.999023438 38.0009765625 c 1
 371.999023438 17.0009765625 311.999023438 -5.9990234375 284.999023438 -12.9990234375 c 0
 228.999023438 -26.9990234375 191.999023438 -33.9990234375 169.999023438 -33.9990234375 c 0
 153.999023438 -33.9990234375 135.999023438 -28.9990234375 113.999023438 -19.9990234375 c 0
 97.9990234375 -10.9990234375 84.9990234375 -3.9990234375 77.9990234375 3.0009765625 c 0
 70.9990234375 11.0009765625 66.9990234375 27.0009765625 61.9990234375 43.0009765625 c 0
 57.4013671875 54.82421875 54.9609375 72.2568359375 54.9609375 88.212890625 c 0
 54.9609375 96.548828125 55.626953125 104.481445312 57 111.000976562 c 0
 66 158.000976562 85 201.000976562 130 230.000976562 c 0
 154 245.000976562 174 252.000976562 192 252.000976562 c 0
 203 252.000976562 217 253.000976562 230 253.000976562 c 0
 236 253.000976562 242 253.000976562 246 252.000976562 c 0
 291 246.000976562 318 241.000976562 327 237.000976562 c 0
 336 234.000976562 354 227.000976562 364 221.000976562 c 1
 361 236.000976562 361 243.000976562 361 272.000976562 c 0
 361 277.000976562 357 284.000976562 357 293.000976562 c 0
 354 340.000976562 350 363.000976562 348 387.000976562 c 0
 346 407.000976562 330 435.000976562 316 457.000976562 c 0
 301 476.000976562 292 477.000976562 271 477.000976562 c 0
 222 470.000976562 179 448.000976562 145 410.000976562 c 0
 118 383.000976562 100 371.000976562 87 371.000976562 c 0
 71 371.000976562 64 387.000976562 64 419.000976562 c 0
 64 432.000976562 71 446.000976562 87 466.000976562 c 0
 103 486.000976562 120 493.000976562 130 502.000976562 c 0
 139 509.000976562 156 520.000976562 170 531.000976562 c 1
 163 533.000976562 152 545.000976562 147 551.000976562 c 0
 130 569.000976562 109 596.000976562 109 662.000976562 c 0
 109 705.000976562 113 734.000976562 139 768.000976562 c 0
 163 795.000976562 201 822.000976562 229 822.000976562 c 0
EndSplineSet
Validated: 1
Substitution2: "'cv01' Character Variants 01 lookup 5-1" aring.cv01
EndChar
StartChar: ae
Encoding: 230 230 166
GlifName: ae
Width: 830
VWidth: 0
Flags: HW
AnchorPoint: "bottom" 402 27 basechar 0
AnchorPoint: "top" 412 645 basechar 0
LayerCount: 2
Fore
SplineSet
317 102 m 256
 337 139 338 161 338 201 c 257
 277 201 192 197 160 177 c 256
 134 161 124 159 124 122 c 256
 124 96 145 80 160 73 c 256
 163 72 180 68 204 68 c 256
 232 68 303 82 317 102 c 256
650 437 m 256
 632 451 610 458 583 458 c 256
 537 458 526 447 490 417 c 256
 454 387 445 365 443 327 c 256
 442 313 441 293 441 293 c 257
 461 291 482 285 504 285 c 256
 527 285 551 288 574 293 c 256
 594 296 621 309 632 316 c 256
 648 328 684 350 684 375 c 256
 684 384 669 421 650 437 c 256
124 428 m 256
 91 428 86 435 86 467 c 256
 86 483 97 501 119 518 c 256
 151 543 191 555 236 555 c 256
 259 555 282 551 302 548 c 256
 333 544 395 492 403 462 c 257
 452 501 507 536 590 536 c 256
 678 536 734 491 761 424 c 256
 769 407 774 379 774 370 c 256
 774 343 757 317 740 298 c 256
 668 216 583 200 476 200 c 256
 465 200 454 200 441 201 c 257
 441 201 442 183 443 176 c 256
 451 106 521 89 594 89 c 256
 626 89 666 110 718 141 c 256
 729 148 738 152 747 152 c 256
 766 152 782 137 782 114 c 256
 782 96 779 88 772 82 c 256
 711 30 644 -4 563 -4 c 256
 506 -4 439 26 400 68 c 257
 391 53 365 24 349 14 c 256
 326 -2 297 -13 221 -13 c 256
 167 -13 80 4 63 42 c 256
 45 84 45 95 45 134 c 256
 45 273 218 296 324 296 c 256
 329 296 335 298 342 298 c 257
 342 325 342 345 338 386 c 256
 336 414 312 457 288 464 c 256
 281 465 266 467 245 467 c 256
 214 467 191 460 178 446 c 256
 164 429 149 428 124 428 c 256
EndSplineSet
EndChar
StartChar: ccedilla
Encoding: 167 231 167
GlifName: ccedilla
Width: 560
VWidth: 0
Flags: W
LayerCount: 2
Fore
SplineSet
254 -199 m 256
 293 -192 338 -147 338 -107 c 256
 338 -89 317 -30 308 -6 c 257
 286 -8 261 -13 232 -13 c 256
 207 -13 178 -10 155 5 c 256
 97 37 72 87 52 147 c 256
 47 161 43 190 43 235 c 256
 43 311 61 379 110 437 c 256
 128 456 149 482 169 507 c 256
 199 545 246 563 293 563 c 256
 347 563 374 548 396 518 c 256
 407 503 412 487 412 474 c 256
 412 444 396 411 369 411 c 256
 358 411 351 417 345 429 c 256
 338 449 317 476 295 476 c 256
 260 476 208 429 191 402 c 256
 164 359 131 296 131 244 c 256
 131 203 137 170 149 145 c 256
 173 96 189 75 246 75 c 256
 313 75 407 106 457 149 c 256
 464 155 471 158 481 158 c 256
 487 158 494 157 502 154 c 256
 518 149 527 141 527 134 c 256
 527 109 491 71 468 60 c 256
 439 48 421 32 396 17 c 257
 399 6 403 -3 408 -19 c 256
 425 -71 428 -85 428 -112 c 256
 428 -141 412 -174 407 -183 c 256
 389 -211 353 -256 308 -271 c 256
 284 -278 237 -291 216 -291 c 256
 185 -291 169 -255 169 -229 c 256
 169 -224 176 -211 254 -199 c 256
EndSplineSet
Validated: 1
EndChar
StartChar: egrave
Encoding: 232 232 168
Width: 509
GlyphClass: 1
Flags: W
LayerCount: 2
Fore
SplineSet
98 776 m 0
 98 804 122 816 148 816 c 0
 170 816 192 806 214 788 c 0
 260 750 286 732 302 720 c 0
 360 678 374 664 374 654 c 0
 374 626 348 616 323 616 c 0
 307 616 293 622 281 630 c 0
 269 638 248 648 197 690 c 0
 153 726 132 741 121 747 c 0
 103 757 98 770 98 776 c 0
134 312 m 1
 206 327 304 353 366 388 c 1
 335 423 294 468 244 468 c 0
 228 468 212 462 200 452 c 0
 170 432 134 358 134 312 c 1
154 533 m 0
 172 548 202 560 230 560 c 0
 288 560 350 524 394 484 c 0
 432 448 458 422 458 380 c 0
 458 356 424 330 394 312 c 0
 380 302 326 276 302 266 c 0
 248 248 188 228 136 212 c 1
 140 160 158 114 182 90 c 0
 198 74 228 62 288 62 c 0
 316 62 354 86 370 100 c 0
 380 110 416 126 436 126 c 0
 452 126 470 112 470 98 c 0
 470 76 418 44 404 32 c 0
 362 -4 336 -18 284 -18 c 0
 198 -18 151 -11 120 22 c 0
 62 84 41 146 41 250 c 0
 41 403 78 469 154 533 c 0
EndSplineSet
Validated: 1
EndChar
StartChar: eacute
Encoding: 233 233 169
Width: 509
GlyphClass: 1
Flags: W
LayerCount: 2
Fore
SplineSet
328 832 m 0
 346 846 364 852 380 852 c 0
 405 852 420 839 420 814 c 0
 420 771 226 633 178 612 c 0
 172 609 164 608 157 608 c 0
 144 608 116 617 116 634 c 0
 116 640 114 652 132 670 c 0
 146 684 187 719 227 751 c 0
 265 782 302 814 328 832 c 0
134 312 m 1
 206 327 304 353 366 388 c 1
 335 423 294 468 244 468 c 0
 228 468 212 462 200 452 c 0
 170 432 134 358 134 312 c 1
154 533 m 0
 172 548 202 560 230 560 c 0
 288 560 350 524 394 484 c 0
 432 448 458 422 458 380 c 0
 458 356 424 330 394 312 c 0
 380 302 326 276 302 266 c 0
 248 248 188 228 136 212 c 1
 140 160 158 114 182 90 c 0
 198 74 228 62 288 62 c 0
 316 62 354 86 370 100 c 0
 380 110 416 126 436 126 c 0
 452 126 470 112 470 98 c 0
 470 76 418 44 404 32 c 0
 362 -4 336 -18 284 -18 c 0
 198 -18 151 -11 120 22 c 0
 62 84 41 146 41 250 c 0
 41 403 78 469 154 533 c 0
EndSplineSet
Validated: 33
EndChar
StartChar: edieresis
Encoding: 235 235 171
Width: 509
GlyphClass: 1
Flags: W
LayerCount: 2
Fore
SplineSet
54 784 m 0
 60 792 74 800 78 800 c 0
 82 800 96 800 110 790 c 0
 122 782 134 752 160 732 c 0
 174 722 180 704 180 682 c 0
 180 676 178 672 176 666 c 0
 174 662 168 660 162 660 c 0
 114 660 85 689 58 724 c 0
 50.35546875 734.510742188 47.7333984375 746.391601562 47.7333984375 757.024414062 c 0
 47.7333984375 768.646484375 50.8662109375 778.77734375 54 784 c 0
342 798 m 0
 376 798 382 790 410 754 c 0
 426 734 440 730 440 706 c 0
 440 674 432 662 408 662 c 0
 394 662 358 694 338 714 c 0
 320 734 308 750 308 770 c 0
 308 790 322 798 342 798 c 0
134 312 m 1
 206 327 304 353 366 388 c 1
 335 423 294 468 244 468 c 0
 228 468 212 462 200 452 c 0
 170 432 134 358 134 312 c 1
154 533 m 0
 172 548 202 560 230 560 c 0
 288 560 350 524 394 484 c 0
 432 448 458 422 458 380 c 0
 458 356 424 330 394 312 c 0
 380 302 326 276 302 266 c 0
 248 248 188 228 136 212 c 1
 140 160 158 114 182 90 c 0
 198 74 228 62 288 62 c 0
 316 62 354 86 370 100 c 0
 380 110 416 126 436 126 c 0
 452 126 470 112 470 98 c 0
 470 76 418 44 404 32 c 0
 362 -4 336 -18 284 -18 c 0
 198 -18 151 -11 120 22 c 0
 62 84 41 146 41 250 c 0
 41 403 78 469 154 533 c 0
EndSplineSet
Validated: 1
EndChar
StartChar: igrave
Encoding: 236 236 172
Width: 252
GlyphClass: 1
Flags: W
LayerCount: 2
Fore
SplineSet
-32 802 m 0
 -32 830 -8 842 18 842 c 0
 40 842 62 832 84 814 c 0
 130 776 156 758 172 746 c 0
 230 704 244 690 244 680 c 0
 244 652 218 642 193 642 c 0
 177 642 163 648 151 656 c 0
 139 664 118 674 67 716 c 0
 23 752 2 767 -9 773 c 0
 -27 783 -32 796 -32 802 c 0
97 33 m 0
 94 57 94 86 93 114 c 0
 87 275 82 428 75 464 c 0
 73 473 71 485 71 498 c 0
 71 529 91 547 116 547 c 0
 145 547 157 507 161 462 c 0
 170 372 175 239 175 174 c 0
 175 136 183 80 187 67 c 0
 189 62 197 46 197 32 c 0
 197 14 192 -3 147 -3 c 0
 118 -3 100 12 97 33 c 0
EndSplineSet
Validated: 1
EndChar
StartChar: iacute
Encoding: 173 237 173
GlifName: iacute
Width: 252
VWidth: 0
Flags: W
LayerCount: 2
Fore
SplineSet
198 858 m 256
 216 872 234 878 250 878 c 256
 275 878 290 865 290 840 c 256
 290 797 96 659 48 638 c 256
 42 635 34 634 27 634 c 256
 14 634 -14 643 -14 660 c 256
 -14 666 -16 678 2 696 c 256
 16 710 57 745 97 777 c 256
 135 808 172 840 198 858 c 256
97 33 m 256
 94 57 94 86 93 114 c 256
 87 275 82 428 75 464 c 256
 73 473 71 485 71 498 c 256
 71 529 91 547 116 547 c 256
 145 547 157 507 161 462 c 256
 170 372 175 239 175 174 c 256
 175 136 183 80 187 67 c 256
 189 62 197 46 197 32 c 256
 197 14 192 -3 147 -3 c 256
 118 -3 100 12 97 33 c 256
EndSplineSet
Validated: 33
EndChar
StartChar: icircumflex
Encoding: 238 238 174
Width: 252
GlyphClass: 1
Flags: W
LayerCount: 2
Fore
SplineSet
0 679 m 0
 -18 661 -32 651 -38 651 c 0
 -41 651 -42 650 -45 650 c 0
 -49 650 -54 652 -64 662 c 0
 -73.529296875 671.529296875 -75.771484375 679.376953125 -75.771484375 685.54296875 c 0
 -75.771484375 691.024414062 -74 695.176757812 -74 698 c 0
 -74 726 6 801 30 822 c 0
 53 841 94 882 137 882 c 0
 183 882 204 856 238 810 c 0
 260 780 295 744 310 736 c 0
 326 728 334 718 334 704 c 0
 334 676 307 666 283 666 c 0
 246 666 211 702 179 750 c 0
 167 768 150 794 137 794 c 0
 112 794 22 701 0 679 c 0
97 33 m 0
 94 57 94 86 93 114 c 0
 87 275 82 428 75 464 c 0
 73 473 71 485 71 498 c 0
 71 529 91 547 116 547 c 0
 145 547 157 507 161 462 c 0
 170 372 175 239 175 174 c 0
 175 136 183 80 187 67 c 0
 189 62 197 46 197 32 c 0
 197 14 192 -3 147 -3 c 0
 118 -3 100 12 97 33 c 0
EndSplineSet
Validated: 1
EndChar
StartChar: idieresis
Encoding: 175 239 175
GlifName: idieresis
Width: 252
VWidth: 0
Flags: W
LayerCount: 2
Fore
SplineSet
-76 810 m 256
 -70 818 -56 826 -52 826 c 256
 -48 826 -34 826 -20 816 c 256
 -8 808 4 778 30 758 c 256
 44 748 50 730 50 708 c 256
 50 702 48 698 46 692 c 256
 44 688 38 686 32 686 c 256
 -16 686 -45 715 -72 750 c 256
 -79.6445 760.511 -82.2666 772.392 -82.2666 783.024 c 256
 -82.2666 794.646 -79.1338 804.777 -76 810 c 256
212 824 m 256
 246 824 252 816 280 780 c 256
 296 760 310 756 310 732 c 256
 310 700 302 688 278 688 c 256
 264 688 228 720 208 740 c 256
 190 760 178 776 178 796 c 256
 178 816 192 824 212 824 c 256
97 33 m 256
 94 57 94 86 93 114 c 256
 87 275 82 428 75 464 c 256
 73 473 71 485 71 498 c 256
 71 529 91 547 116 547 c 256
 145 547 157 507 161 462 c 256
 170 372 175 239 175 174 c 256
 175 136 183 80 187 67 c 256
 189 62 197 46 197 32 c 256
 197 14 192 -3 147 -3 c 256
 118 -3 100 12 97 33 c 256
EndSplineSet
Validated: 524289
EndChar
StartChar: eth
Encoding: 240 240 176
Width: 612
GlyphClass: 1
Flags: W
LayerCount: 2
Fore
SplineSet
190 276 m 0
 190 270 189.876953125 262.499023438 189.876953125 254.092773438 c 0
 189.876953125 228.874023438 191.001953125 195.499023438 200.001953125 169.999023438 c 0
 216.001953125 125.999023438 248.001953125 97.9990234375 278.001953125 97.9990234375 c 0
 341.001953125 97.9990234375 420.001953125 222.999023438 436.001953125 275.999023438 c 0
 452.001953125 329.999023438 462.001953125 417.999023438 462.001953125 439.999023438 c 0
 462.001953125 547.999023438 446.001953125 666.999023438 371.001953125 750.999023438 c 1
 345.001953125 728.999023438 323.001953125 708.999023438 298.001953125 695.999023438 c 0
 262.001953125 677.999023438 244.001953125 659.999023438 244.001953125 649.999023438 c 0
 244.001953125 631.999023438 212.001953125 607.999023438 194.001953125 607.999023438 c 0
 180.001953125 607.999023438 168.001953125 613.999023438 152.001953125 625.999023438 c 0
 144.001953125 631.999023438 140.501953125 640.999023438 140.501953125 650.749023438 c 0
 140.501953125 660.499023438 144.001953125 670.999023438 150.001953125 679.999023438 c 0
 182.001953125 725.999023438 222.001953125 745.999023438 258.001953125 773.999023438 c 0
 265.001953125 779.999023438 279.001953125 788.999023438 297.001953125 800.999023438 c 1
 273.001953125 808.999023438 247.001953125 811.999023438 220.001953125 811.999023438 c 0
 190.001953125 811.999023438 162.001953125 807.999023438 138.001953125 799.999023438 c 0
 116.001953125 791.999023438 96.001953125 755.999023438 76.001953125 755.999023438 c 0
 54.001953125 755.999023438 34.001953125 757.999023438 28.001953125 783.999023438 c 0
 26.4326171875 791.84375 24.86328125 800.918945312 24.86328125 810.018554688 c 0
 24.86328125 824.118164062 28.6298828125 838.275390625 42.0009765625 848 c 0
 70.0009765625 868 90.0009765625 878 108.000976562 886 c 0
 124.000976562 892 188.000976562 908 236.000976562 908 c 0
 279.000976562 908 338.000976562 881 376.000976562 860 c 1
 413.000976562 889 439.000976562 910 462.000976562 930 c 0
 490.000976562 954 520.000976562 972 552.000976562 972 c 0
 578.000976562 972 600.000976562 954 600.000976562 932 c 0
 600.000976562 920 588.000976562 908 566.000976562 896 c 0
 513.000976562 869 482.000976562 840 440.000976562 806 c 1
 470.000976562 773 493.000976562 736 498.000976562 716 c 0
 510.000976562 666 542.000976562 616 550.000976562 556 c 0
 552.47265625 517.063476562 554.180664062 484.239257812 554.180664062 453.92578125 c 0
 554.180664062 386.143554688 545.639648438 330.91796875 518 248 c 0
 494 180 467 134 422 80 c 0
 398 50 406 58 360 30 c 0
 338 12 304 8 276 8 c 0
 248 8 204 20 192 32 c 0
 174 48 130 92 122 112 c 0
 110 150 96 188 96 252 c 0
 96 322 104 352 112 368 c 0
 146 440 152 444 214 494 c 0
 264 534 288 546 348 546 c 0
 376 546 414 526 422 514 c 0
 428 506 440 484 440 470 c 0
 440 454 426 442 406 442 c 0
 394 442 392 444 376 450 c 0
 368 454 350 456 344 456 c 0
 306 456 246 414 228 388 c 0
 210 362 190 316 190 276 c 0
EndSplineSet
Validated: 1
EndChar
StartChar: ntilde
Encoding: 177 241 177
GlifName: ntilde
Width: 578
VWidth: 0
Flags: W
LayerCount: 2
Fore
SplineSet
163 787 m 256
 175 794 189 795 205 795 c 256
 264 795 336 733 368 733 c 256
 392 733 414 744 432 758 c 256
 450 772 466 786 484 786 c 256
 496 786 516 777 516 755 c 256
 516 686 423 650 365 650 c 256
 291 650 246 701 207 701 c 256
 195 701 180 690 170 680 c 256
 145 655 102 609 71 609 c 256
 55 609 48 612 38 630 c 256
 34 638 32 644 32 648 c 256
 32 663 144 776 163 787 c 256
182 32 m 256
 174 6 158 -14 126 -14 c 256
 82 -14 68 325 68 370 c 256
 68 391.143 68.1631 408.53 68.1631 422.77 c 256
 68.1631 458.367 67.1426 474.286 60 480 c 256
 54 484 48 488 48 496 c 256
 49.9541 525.308 84.3574 566.069 112.05 566.069 c 256
 112.704 566.069 113.354 566.046 114 566 c 256
 122 566 126 560 134 554 c 256
 150 536 148 514 150 440 c 256
 150 422 158 266 160 244 c 257
 184 318 218 384 258 456 c 256
 292 518 312 544 404 544 c 256
 484 544 510 506 510 302 c 256
 510 255.333 509.111 185.556 509.111 140.667 c 256
 509.111 118.223 509.333 102 510 98 c 256
 514 74 530 58 530 36 c 256
 530 -4 503 -8 470 -8 c 256
 436 -6 426 16 422 42 c 256
 420.382 56.5625 417.455 92.0693 417.455 112.513 c 256
 417.455 117.34 417.618 121.326 418 124 c 256
 422 180 422 300 422 324 c 256
 422 418 420 452 380 452 c 256
 360 452 338 418 320 382 c 256
 280 302 224 184 182 32 c 256
EndSplineSet
Validated: 524289
EndChar
StartChar: ograve
Encoding: 178 242 178
GlifName: ograve
Width: 536
VWidth: 0
Flags: W
LayerCount: 2
Fore
SplineSet
112 756 m 256
 112 784 136 796 162 796 c 256
 184 796 206 786 228 768 c 256
 274 730 300 712 316 700 c 256
 374 658 388 644 388 634 c 256
 388 606 362 596 337 596 c 256
 321 596 307 602 295 610 c 256
 283 618 262 628 211 670 c 256
 167 706 146 721 135 727 c 256
 117 737 112 750 112 756 c 256
394 417 m 256
 362 453 354 463 302 463 c 256
 220 463 180 439 148 367 c 256
 138 347 134 307 134 271 c 256
 134 193 152 147 188 105 c 256
 208 81 222 71 238 71 c 256
 260 71 286 91 322 123 c 256
 362 157 388 189 400 217 c 256
 410 235 412 281 412 319 c 256
 412 365 404 405 394 417 c 256
286 544 m 256
 446 544 490 484 490 324 c 256
 490 276 489 221 471 182 c 256
 457 152 419 98 372 57 c 256
 327 18 292 -10 239 -10 c 256
 178 -10 121 33 87 97 c 256
 69 129 46 212 46 322 c 256
 46 376 62 416 90 448 c 256
 142 508 184 544 286 544 c 256
EndSplineSet
Validated: 1
EndChar
StartChar: oacute
Encoding: 243 243 179
Width: 536
GlyphClass: 1
Flags: W
LayerCount: 2
Fore
SplineSet
342 812 m 0
 360 826 378 832 394 832 c 0
 419 832 434 819 434 794 c 0
 434 751 240 613 192 592 c 0
 186 589 178 588 171 588 c 0
 158 588 130 597 130 614 c 0
 130 620 128 632 146 650 c 0
 160 664 201 699 241 731 c 0
 279 762 316 794 342 812 c 0
394 417 m 0
 362 453 354 463 302 463 c 0
 220 463 180 439 148 367 c 0
 138 347 134 307 134 271 c 0
 134 193 152 147 188 105 c 0
 208 81 222 71 238 71 c 0
 260 71 286 91 322 123 c 0
 362 157 388 189 400 217 c 0
 410 235 412 281 412 319 c 0
 412 365 404 405 394 417 c 0
286 544 m 0
 446 544 490 484 490 324 c 0
 490 276 489 221 471 182 c 0
 457 152 419 98 372 57 c 0
 327 18 292 -10 239 -10 c 0
 178 -10 121 33 87 97 c 0
 69 129 46 212 46 322 c 0
 46 376 62 416 90 448 c 0
 142 508 184 544 286 544 c 0
EndSplineSet
Validated: 33
EndChar
StartChar: otilde
Encoding: 181 245 181
GlifName: otilde
Width: 536
VWidth: 0
Flags: W
LayerCount: 2
Fore
SplineSet
149 763 m 256
 161 770 175 771 191 771 c 256
 250 771 322 709 354 709 c 256
 378 709 400 720 418 734 c 256
 436 748 452 762 470 762 c 256
 482 762 502 753 502 731 c 256
 502 662 409 626 351 626 c 256
 277 626 232 677 193 677 c 256
 181 677 166 666 156 656 c 256
 131 631 88 585 57 585 c 256
 41 585 34 588 24 606 c 256
 20 614 18 620 18 624 c 256
 18 639 130 752 149 763 c 256
394 417 m 256
 362 453 354 463 302 463 c 256
 220 463 180 439 148 367 c 256
 138 347 134 307 134 271 c 256
 134 193 152 147 188 105 c 256
 208 81 222 71 238 71 c 256
 260 71 286 91 322 123 c 256
 362 157 388 189 400 217 c 256
 410 235 412 281 412 319 c 256
 412 365 404 405 394 417 c 256
286 544 m 256
 446 544 490 484 490 324 c 256
 490 276 489 221 471 182 c 256
 457 152 419 98 372 57 c 256
 327 18 292 -10 239 -10 c 256
 178 -10 121 33 87 97 c 256
 69 129 46 212 46 322 c 256
 46 376 62 416 90 448 c 256
 142 508 184 544 286 544 c 256
EndSplineSet
Validated: 1
EndChar
